{"glyphs":{"0":{"ha":883,"x_min":90,"x_max":852,"o":"m 852 734 q 802 418 852 600 q 678 138 752 236 q 539 18 615 56 q 362 -21 463 -21 q 157 52 224 -21 q 90 275 90 125 q 137 581 90 397 q 264 871 184 766 q 403 991 325 952 q 581 1030 481 1030 q 785 957 718 1030 q 852 734 852 883 m 715 736 q 681 875 715 827 q 558 923 646 923 q 443 895 493 923 q 352 794 393 866 q 266 546 304 711 q 227 273 227 380 q 261 134 227 182 q 384 86 296 86 q 498 116 446 86 q 590 215 551 146 q 676 465 637 300 q 715 736 715 630 z "},"1":{"ha":883,"x_min":105,"x_max":678,"o":"m 653 0 l 105 0 l 128 98 l 336 98 l 494 785 l 284 785 l 304 872 q 486 905 421 872 q 572 1013 551 938 l 678 1013 l 467 98 l 676 98 l 653 0 z "},"2":{"ha":883,"x_min":23,"x_max":823,"o":"m 707 0 l 23 0 l 55 142 q 217 261 151 212 q 378 385 284 310 q 612 608 544 517 q 680 784 680 699 q 633 884 680 850 q 512 918 586 918 q 374 896 452 918 q 222 830 296 873 l 215 830 l 242 968 q 379 1011 296 992 q 539 1031 463 1031 q 749 971 675 1031 q 823 811 823 912 q 761 605 823 702 q 543 378 699 507 q 352 229 450 301 q 190 111 254 157 l 732 111 l 707 0 z "},"3":{"ha":883,"x_min":39,"x_max":852,"o":"m 646 89 q 508 8 586 37 q 328 -21 431 -21 q 169 0 246 -21 q 39 49 92 20 l 71 179 l 81 179 q 199 118 128 144 q 348 92 269 92 q 548 164 470 92 q 626 353 626 237 q 576 459 626 424 q 422 494 527 494 l 358 494 l 385 602 l 449 602 q 637 655 564 602 q 710 798 710 707 q 666 886 710 854 q 537 918 623 918 q 387 892 467 918 q 245 830 307 867 l 238 830 l 267 967 q 405 1011 321 991 q 564 1031 489 1031 q 775 978 698 1031 q 852 832 852 924 q 778 654 852 732 q 590 555 703 576 l 590 549 q 649 529 616 543 q 705 492 681 514 q 748 433 731 469 q 766 350 766 398 q 734 207 766 276 q 646 89 702 138 z "},"4":{"ha":883,"x_min":33,"x_max":821,"o":"m 797 286 l 647 286 l 581 0 l 449 0 l 515 286 l 33 286 l 68 440 l 688 1010 l 814 1010 l 671 389 l 821 389 l 797 286 m 539 389 l 645 846 l 150 389 l 539 389 z "},"5":{"ha":883,"x_min":61,"x_max":918,"o":"m 664 98 q 525 11 604 42 q 338 -21 446 -21 q 182 -1 256 -21 q 61 44 109 20 l 88 176 l 98 176 q 211 118 140 144 q 359 92 282 92 q 562 165 485 92 q 640 357 640 238 q 622 433 640 403 q 574 483 604 464 q 502 510 544 502 q 414 518 460 518 q 295 509 355 518 q 193 492 235 500 l 312 1010 l 918 1010 l 891 896 l 417 896 l 353 618 q 408 624 381 622 q 461 626 434 626 q 699 560 614 626 q 784 381 784 494 q 753 227 784 300 q 664 98 722 153 z "},"6":{"ha":883,"x_min":91,"x_max":830,"o":"m 404 -21 q 173 71 255 -21 q 91 322 91 163 q 132 595 91 469 q 254 820 174 722 q 449 972 332 916 q 711 1029 566 1029 q 783 1024 754 1029 q 830 1013 811 1019 l 806 893 l 800 893 q 746 909 784 901 q 669 917 709 917 q 410 822 524 917 q 258 576 297 728 q 384 629 317 610 q 517 648 451 648 q 631 632 580 648 q 723 583 682 616 q 787 496 766 546 q 808 380 808 446 q 693 96 808 214 q 404 -21 578 -21 m 667 366 q 617 496 667 451 q 467 541 567 541 q 357 526 416 541 q 241 480 298 510 q 230 406 235 451 q 226 318 226 361 q 243 208 226 252 q 286 137 260 163 q 348 97 313 109 q 420 85 382 85 q 598 162 530 85 q 667 366 667 239 z "},"7":{"ha":883,"x_min":102,"x_max":939,"o":"m 904 859 l 256 0 l 102 0 l 791 896 l 216 896 l 242 1010 l 939 1010 l 904 859 z "},"8":{"ha":883,"x_min":62,"x_max":857,"o":"m 680 87 q 550 7 624 37 q 377 -23 476 -23 q 147 47 232 -23 q 62 227 62 117 q 123 411 62 330 q 303 542 185 493 l 303 545 q 212 628 242 582 q 181 732 181 673 q 294 943 181 854 q 568 1033 407 1033 q 780 972 702 1033 q 857 817 857 911 q 801 657 857 735 q 640 536 745 580 l 640 532 q 754 446 715 496 q 793 320 793 396 q 763 197 793 261 q 680 87 733 134 m 720 800 q 673 898 720 859 q 548 938 627 938 q 387 887 453 938 q 321 758 321 836 q 343 687 321 720 q 409 632 366 655 q 474 602 434 619 q 562 568 514 584 q 683 674 646 618 q 720 800 720 730 m 589 149 q 634 221 619 180 q 650 303 650 262 q 625 383 650 349 q 542 447 601 417 q 477 474 513 461 q 382 510 441 487 q 250 399 296 468 q 204 252 204 330 q 255 124 204 176 q 391 73 307 73 q 510 95 460 73 q 589 149 560 116 z "},"9":{"ha":883,"x_min":107,"x_max":846,"o":"m 846 687 q 804 412 846 543 q 682 187 761 281 q 485 35 600 90 q 226 -20 370 -20 q 159 -16 189 -20 q 107 -4 130 -12 l 131 116 l 138 116 q 190 100 154 109 q 269 92 225 92 q 528 188 414 92 q 680 433 642 283 q 553 379 612 397 q 420 361 494 361 q 307 377 360 361 q 214 427 254 393 q 152 509 174 460 q 129 629 129 559 q 245 913 129 796 q 534 1030 362 1030 q 765 938 684 1030 q 846 687 846 846 m 711 691 q 695 800 711 755 q 652 872 679 844 q 590 912 625 899 q 517 924 555 924 q 336 844 403 924 q 270 644 270 763 q 320 513 270 558 q 470 468 370 468 q 581 484 522 468 q 696 529 640 499 q 707 601 703 564 q 711 691 711 637 z "}," ":{"ha":488,"x_min":0,"x_max":0,"o":""},"!":{"ha":547,"x_min":117,"x_max":495,"o":"m 495 1010 l 309 278 l 193 278 l 343 1010 l 495 1010 m 255 0 l 117 0 l 150 143 l 288 143 l 255 0 z "},"\"":{"ha":637,"x_min":207,"x_max":682,"o":"m 682 1055 l 558 663 l 469 663 l 534 1055 l 682 1055 m 420 1055 l 296 663 l 207 663 l 272 1055 l 420 1055 z "},"#":{"ha":1137,"x_min":127,"x_max":1069,"o":"m 1055 632 l 829 632 l 726 377 l 935 377 l 920 286 l 688 286 l 572 0 l 484 0 l 600 286 l 417 286 l 301 0 l 214 0 l 330 286 l 127 286 l 142 377 l 368 377 l 471 632 l 262 632 l 276 724 l 509 724 l 625 1010 l 713 1010 l 596 724 l 779 724 l 896 1010 l 983 1010 l 867 724 l 1069 724 l 1055 632 m 743 633 l 557 633 l 453 376 l 639 376 l 743 633 z "},"$":{"ha":883,"x_min":41,"x_max":847,"o":"m 405 1 l 348 -245 l 268 -245 l 323 -3 q 167 16 239 -2 q 41 62 94 35 l 70 185 l 81 185 q 116 159 95 172 q 175 130 137 145 q 249 107 205 118 q 347 94 293 96 l 415 393 q 374 403 393 398 q 333 414 355 408 q 203 488 243 438 q 162 601 162 538 q 258 791 162 712 q 524 884 355 870 l 567 1069 l 647 1069 l 605 886 q 738 867 673 884 q 847 831 803 850 l 818 709 l 808 709 q 707 766 762 745 q 583 791 652 787 l 515 493 q 551 485 530 490 q 592 474 572 479 q 723 406 678 451 q 768 295 768 361 q 672 95 768 174 q 405 1 576 16 m 437 505 l 503 790 q 349 738 403 783 q 295 623 295 694 q 326 551 295 580 q 437 505 357 522 m 634 264 q 600 339 634 312 q 492 380 566 366 l 427 96 q 579 143 524 102 q 634 264 634 184 z "},"%":{"ha":1495,"x_min":128,"x_max":1415,"o":"m 332 430 q 180 480 231 430 q 128 631 128 531 q 213 919 128 808 q 446 1029 298 1029 q 597 978 545 1029 q 648 828 648 926 q 566 544 648 657 q 332 430 483 430 m 490 621 q 519 720 510 667 q 528 829 528 773 q 505 913 528 885 q 428 942 482 942 q 345 913 379 942 q 288 839 310 885 q 258 743 268 798 q 248 631 248 687 q 270 546 248 576 q 349 517 293 517 q 433 545 398 517 q 490 621 469 574 m 1098 -20 q 946 31 998 -20 q 895 181 895 81 q 980 469 895 359 q 1212 579 1065 579 q 1363 528 1312 579 q 1415 378 1415 477 q 1332 94 1415 208 q 1098 -20 1249 -20 m 1256 171 q 1286 270 1277 217 q 1295 380 1295 323 q 1272 464 1295 435 q 1194 492 1249 492 q 1111 464 1145 492 q 1054 389 1076 435 q 1024 293 1034 349 q 1014 181 1014 237 q 1037 97 1014 126 q 1116 67 1059 67 q 1200 96 1164 67 q 1256 171 1235 124 m 1182 1010 l 475 0 l 362 0 l 1069 1010 l 1182 1010 z "},"&":{"ha":1009,"x_min":60,"x_max":975,"o":"m 975 0 l 816 0 l 692 150 q 516 18 602 57 q 338 -21 429 -21 q 137 46 215 -21 q 60 222 60 114 q 83 347 60 292 q 147 447 107 401 q 234 521 184 489 q 328 575 283 553 q 253 658 284 612 q 222 758 222 703 q 242 853 222 808 q 304 942 261 899 q 407 1006 345 981 q 547 1031 469 1031 q 718 978 653 1031 q 782 842 782 926 q 771 773 782 814 q 731 695 760 732 q 647 620 700 654 q 506 561 594 585 l 714 312 q 770 449 749 368 q 808 616 792 530 l 944 616 l 930 551 q 875 395 914 473 q 775 240 836 316 l 975 0 m 606 710 q 634 770 625 738 q 642 836 642 802 q 607 920 642 889 q 524 951 571 951 q 405 900 451 951 q 359 777 359 848 q 380 701 359 739 q 458 616 402 663 q 550 655 514 632 q 606 710 585 679 m 641 211 l 382 526 q 329 493 363 517 q 272 444 295 469 q 226 369 245 414 q 207 267 207 323 q 254 134 207 184 q 391 85 302 85 q 520 116 456 85 q 641 211 584 146 z "},"'":{"ha":373,"x_min":204,"x_max":420,"o":"m 420 1055 l 296 663 l 204 663 l 269 1055 l 420 1055 z "},"(":{"ha":631,"x_min":96,"x_max":688,"o":"m 380 -279 l 236 -279 q 136 -65 175 -180 q 96 176 96 50 q 127 424 96 304 q 219 660 159 544 q 357 868 277 770 q 534 1055 437 966 l 688 1055 l 688 1048 q 527 904 610 991 q 376 711 443 817 q 264 473 307 603 q 221 199 221 343 q 264 -69 221 52 q 380 -273 307 -190 l 380 -279 z "},")":{"ha":631,"x_min":-54,"x_max":537,"o":"m 537 600 q 505 350 537 472 q 414 116 473 227 q 275 -95 355 5 q 99 -279 194 -194 l -54 -279 l -54 -273 q 107 -129 24 -214 q 258 65 190 -44 q 374 315 335 190 q 412 576 412 441 q 370 843 412 721 q 254 1048 328 964 l 254 1055 l 397 1055 q 497 842 458 957 q 537 600 537 727 z "},"*":{"ha":883,"x_min":200,"x_max":851,"o":"m 851 603 l 810 532 l 564 680 l 568 431 l 484 431 l 488 680 l 241 532 l 200 602 l 461 743 l 200 884 l 241 955 l 489 808 l 484 1055 l 568 1055 l 563 809 l 810 954 l 851 884 l 591 745 l 851 603 z "},"+":{"ha":1137,"x_min":172,"x_max":1023,"o":"m 1023 388 l 654 388 l 654 18 l 541 18 l 541 388 l 172 388 l 172 496 l 541 496 l 541 866 l 654 866 l 654 496 l 1023 496 l 1023 388 z "},",":{"ha":505,"x_min":-40,"x_max":353,"o":"m 353 193 l 59 -251 l -40 -251 l 180 193 l 353 193 z "},"-":{"ha":631,"x_min":104,"x_max":556,"o":"m 528 380 l 104 380 l 133 503 l 556 503 l 528 380 z "},".":{"ha":505,"x_min":83,"x_max":292,"o":"m 247 0 l 83 0 l 128 193 l 292 193 l 247 0 z "},"/":{"ha":631,"x_min":-126,"x_max":707,"o":"m 707 1055 l -5 -206 l -126 -206 l 583 1055 l 707 1055 z "},":":{"ha":631,"x_min":146,"x_max":485,"o":"m 440 564 l 277 564 l 321 758 l 485 758 l 440 564 m 310 0 l 146 0 l 191 193 l 355 193 l 310 0 z "},";":{"ha":631,"x_min":16,"x_max":485,"o":"m 440 564 l 277 564 l 321 758 l 485 758 l 440 564 m 409 193 l 115 -251 l 16 -251 l 235 193 l 409 193 z "},"<":{"ha":1137,"x_min":201,"x_max":984,"o":"m 984 52 l 201 400 l 201 484 l 984 832 l 984 710 l 367 442 l 984 174 l 984 52 z "},"=":{"ha":1137,"x_min":195,"x_max":1000,"o":"m 1000 530 l 195 530 l 195 639 l 1000 639 l 1000 530 m 1000 245 l 195 245 l 195 354 l 1000 354 l 1000 245 z "},">":{"ha":1137,"x_min":211,"x_max":994,"o":"m 994 400 l 211 52 l 211 174 l 828 442 l 211 710 l 211 832 l 994 484 l 994 400 z "},"?":{"ha":758,"x_min":183,"x_max":772,"o":"m 659 574 q 543 490 607 527 q 407 418 479 452 l 374 271 l 252 271 l 300 478 q 419 537 351 502 q 526 605 488 573 q 606 695 581 650 q 631 798 631 740 q 587 888 631 857 q 471 919 543 919 q 335 899 406 919 q 213 849 264 878 l 206 849 l 237 981 q 362 1015 287 1000 q 503 1030 438 1030 q 702 974 631 1030 q 772 823 772 917 q 742 683 772 745 q 659 574 711 621 m 321 0 l 183 0 l 216 143 l 355 143 l 321 0 z "},"@":{"ha":1389,"x_min":131,"x_max":1305,"o":"m 1125 106 l 812 106 l 812 185 q 709 123 759 145 q 602 101 659 101 q 458 159 511 101 q 405 328 405 218 q 437 508 405 428 q 520 646 469 589 q 635 733 568 701 q 765 765 703 765 q 858 753 814 765 q 937 720 901 741 l 945 753 l 1053 753 l 920 182 l 1095 182 q 1181 370 1152 258 q 1211 566 1211 482 q 1107 845 1211 747 q 815 943 1002 943 q 588 894 695 943 q 400 760 481 844 q 274 564 321 677 q 227 331 227 451 q 336 40 227 149 q 636 -68 446 -68 q 762 -60 694 -68 q 882 -37 830 -51 l 864 -128 q 746 -148 798 -142 q 621 -153 694 -153 q 264 -26 398 -153 q 131 313 131 101 q 187 591 131 460 q 338 819 243 722 q 560 973 431 916 q 826 1030 689 1030 q 1178 911 1051 1030 q 1305 580 1305 791 q 1258 326 1305 449 q 1125 106 1211 203 m 832 277 l 916 634 q 843 662 879 653 q 765 671 806 671 q 593 581 663 671 q 522 345 522 490 q 552 239 522 277 q 650 201 583 201 q 743 224 696 201 q 832 277 790 248 z "},"A":{"ha":948,"x_min":-58,"x_max":855,"o":"m 855 0 l 719 0 l 685 284 l 250 284 l 84 0 l -58 0 l 543 1010 l 721 1010 l 855 0 m 670 394 l 607 892 l 314 394 l 670 394 z "},"B":{"ha":952,"x_min":47,"x_max":908,"o":"m 733 81 q 595 19 667 37 q 418 0 524 0 l 47 0 l 280 1010 l 570 1010 q 735 1002 681 1010 q 833 968 789 995 q 889 909 871 945 q 908 830 908 873 q 859 675 908 743 q 722 572 809 608 l 722 566 q 846 498 803 548 q 889 369 889 448 q 846 206 889 283 q 733 81 803 129 m 762 793 q 753 840 762 821 q 726 871 743 859 q 654 895 697 890 q 544 900 612 900 l 391 900 l 321 600 l 498 600 q 600 609 556 600 q 675 635 643 617 q 740 705 718 660 q 762 793 762 750 m 747 359 q 734 421 747 397 q 688 465 722 444 q 619 487 661 481 q 501 492 576 492 l 297 492 l 208 110 l 393 110 q 540 120 484 110 q 638 155 597 130 q 720 242 692 186 q 747 359 747 297 z "},"C":{"ha":970,"x_min":90,"x_max":1025,"o":"m 500 -18 q 199 81 309 -18 q 90 363 90 180 q 132 623 90 503 q 253 835 174 744 q 445 976 331 924 q 699 1028 559 1028 q 865 1007 787 1028 q 1025 939 943 985 l 994 787 l 984 787 q 939 829 962 810 q 871 871 916 848 q 782 904 833 891 q 668 918 730 918 q 494 878 573 918 q 356 767 414 838 q 267 599 299 698 q 234 388 234 500 q 307 171 234 248 q 516 93 379 93 q 638 107 581 93 q 744 144 696 122 q 823 189 788 165 q 884 231 859 212 l 893 231 l 861 75 q 697 11 790 39 q 500 -18 605 -18 z "},"D":{"ha":1063,"x_min":48,"x_max":1030,"o":"m 1030 623 q 946 309 1030 457 q 716 81 862 161 q 533 16 627 33 q 321 0 439 0 l 48 0 l 281 1010 l 516 1010 q 716 995 626 1010 q 882 929 807 979 q 992 803 954 881 q 1030 623 1030 726 m 888 611 q 861 744 888 688 q 778 838 833 800 q 661 887 723 874 q 503 899 598 899 l 391 899 l 208 111 l 348 111 q 521 126 445 111 q 665 181 597 142 q 831 361 774 243 q 888 611 888 479 z "},"E":{"ha":878,"x_min":48,"x_max":946,"o":"m 946 1010 l 920 895 l 389 895 l 323 610 l 854 610 l 828 496 l 297 496 l 209 115 l 740 115 l 713 0 l 48 0 l 281 1010 l 946 1010 z "},"F":{"ha":798,"x_min":47,"x_max":926,"o":"m 901 895 l 391 895 l 322 602 l 761 602 l 734 488 l 296 488 l 183 0 l 47 0 l 281 1010 l 926 1010 l 901 895 z "},"G":{"ha":1077,"x_min":90,"x_max":1082,"o":"m 534 -20 q 208 83 325 -20 q 90 376 90 186 q 133 635 90 516 q 258 842 176 753 q 458 979 340 929 q 724 1028 576 1028 q 902 1007 813 1028 q 1082 937 990 985 l 1052 784 l 1040 784 q 876 886 964 854 q 686 918 787 918 q 490 873 574 918 q 348 756 406 829 q 263 589 292 684 q 234 396 234 493 q 314 171 234 250 q 549 92 393 92 q 678 104 618 92 q 791 136 738 117 l 848 395 l 578 395 l 604 508 l 1008 508 l 908 75 q 827 42 863 56 q 737 12 791 27 q 641 -11 690 -2 q 534 -20 591 -20 z "},"H":{"ha":1044,"x_min":48,"x_max":1053,"o":"m 1053 1010 l 821 0 l 686 0 l 801 496 l 297 496 l 182 0 l 48 0 l 281 1010 l 415 1010 l 323 610 l 827 610 l 919 1010 l 1053 1010 z "},"I":{"ha":585,"x_min":5,"x_max":638,"o":"m 405 0 l 5 0 l 27 98 l 159 98 l 348 911 l 216 911 l 238 1010 l 638 1010 l 616 911 l 484 911 l 295 98 l 427 98 l 405 0 z "},"J":{"ha":631,"x_min":-53,"x_max":652,"o":"m 481 262 q 353 57 450 129 q 120 -14 257 -14 q 35 -8 87 -14 q -53 5 -18 -3 l -24 126 l -17 126 q 47 106 9 117 q 128 96 85 96 q 231 112 190 96 q 294 155 271 127 q 333 225 319 184 q 357 313 347 266 l 493 907 l 273 907 l 297 1010 l 652 1010 l 481 262 z "},"K":{"ha":962,"x_min":51,"x_max":1062,"o":"m 871 0 l 713 0 l 401 451 l 263 334 l 186 0 l 51 0 l 284 1010 l 420 1010 l 298 486 l 891 1010 l 1062 1010 l 508 526 l 871 0 z "},"L":{"ha":773,"x_min":47,"x_max":713,"o":"m 687 0 l 47 0 l 281 1010 l 416 1010 l 210 115 l 713 115 l 687 0 z "},"M":{"ha":1171,"x_min":47,"x_max":1181,"o":"m 948 0 l 812 0 l 1012 858 l 602 278 l 522 278 l 379 884 l 174 0 l 47 0 l 281 1010 l 465 1010 l 602 448 l 995 1010 l 1181 1010 l 948 0 z "},"N":{"ha":1039,"x_min":47,"x_max":1053,"o":"m 819 0 l 659 0 l 383 903 l 174 0 l 47 0 l 281 1010 l 483 1010 l 735 185 l 926 1010 l 1053 1010 l 819 0 z "},"O":{"ha":1093,"x_min":91,"x_max":1060,"o":"m 1060 652 q 1020 399 1060 521 q 905 184 981 277 q 720 34 828 88 q 475 -21 611 -21 q 193 78 294 -21 q 91 358 91 176 q 132 616 91 496 q 249 831 172 736 q 434 976 323 922 q 675 1031 544 1031 q 958 933 855 1031 q 1060 652 1060 835 m 803 251 q 889 424 860 328 q 918 633 918 519 q 849 846 918 772 q 654 920 779 920 q 479 876 557 920 q 345 755 401 831 q 262 582 291 681 q 233 379 233 484 q 302 164 233 239 q 497 90 372 90 q 671 134 593 90 q 803 251 749 178 z "},"P":{"ha":838,"x_min":47,"x_max":880,"o":"m 743 481 q 603 404 680 429 q 418 378 526 378 l 271 378 l 183 0 l 47 0 l 281 1010 l 547 1010 q 699 994 639 1010 q 798 947 760 977 q 859 872 838 916 q 880 767 880 829 q 844 610 880 684 q 743 481 808 536 m 736 744 q 725 808 736 779 q 689 857 713 838 q 620 889 660 880 q 517 899 581 899 l 391 899 l 296 488 l 416 488 q 552 503 498 488 q 645 550 606 517 q 714 637 691 589 q 736 744 736 685 z "},"Q":{"ha":1093,"x_min":90,"x_max":1061,"o":"m 803 250 q 888 423 859 328 q 918 633 918 519 q 848 846 918 772 q 654 920 779 920 q 479 876 557 920 q 345 755 401 831 q 262 582 291 681 q 233 379 233 484 q 302 164 233 239 q 497 89 372 89 q 671 133 593 89 q 803 250 749 177 m 668 14 q 665 -12 667 1 q 664 -32 664 -24 q 698 -129 664 -103 q 797 -155 732 -155 q 865 -147 830 -155 q 924 -131 901 -139 l 942 -131 l 918 -248 q 836 -262 876 -258 q 754 -267 795 -267 q 592 -215 650 -267 q 534 -66 534 -163 q 536 -43 534 -54 q 538 -17 537 -31 q 509 -19 524 -18 q 475 -20 493 -20 q 192 78 294 -20 q 90 358 90 176 q 131 615 90 492 q 249 831 172 737 q 433 976 323 922 q 675 1031 544 1031 q 958 933 855 1031 q 1061 652 1061 835 q 956 260 1061 438 q 668 14 852 81 z "},"R":{"ha":966,"x_min":47,"x_max":892,"o":"m 741 759 q 730 820 741 795 q 697 862 720 844 q 634 891 671 883 q 543 899 597 899 l 391 899 l 300 510 l 443 510 q 558 522 509 510 q 647 565 607 534 q 716 650 692 599 q 741 759 741 701 m 892 0 l 734 0 l 468 404 l 276 404 l 183 0 l 47 0 l 280 1010 l 555 1010 q 705 998 648 1010 q 806 955 763 986 q 865 888 844 927 q 887 789 887 848 q 808 568 887 663 q 601 435 729 473 l 892 0 z "},"S":{"ha":949,"x_min":35,"x_max":947,"o":"m 397 -18 q 210 2 298 -18 q 35 66 121 23 l 68 220 l 77 220 q 237 125 142 158 q 420 92 332 92 q 641 150 564 92 q 718 296 718 207 q 691 374 718 342 q 610 420 663 405 q 506 443 566 432 q 390 467 445 454 q 225 549 283 491 q 167 692 167 606 q 289 932 167 836 q 606 1028 412 1028 q 798 1006 711 1028 q 947 954 884 984 l 916 810 l 907 810 q 769 886 859 854 q 582 918 680 918 q 385 863 458 918 q 311 726 311 809 q 338 647 311 681 q 432 596 364 613 q 547 571 475 586 q 668 544 619 557 q 814 465 764 517 q 864 334 864 413 q 831 201 864 267 q 741 89 799 136 q 594 10 678 39 q 397 -18 511 -18 z "},"T":{"ha":856,"x_min":119,"x_max":1001,"o":"m 975 895 l 615 895 l 408 0 l 273 0 l 479 895 l 119 895 l 145 1010 l 1001 1010 l 975 895 z "},"U":{"ha":1017,"x_min":105,"x_max":1042,"o":"m 902 406 q 835 213 876 292 q 727 78 794 133 q 592 3 665 28 q 420 -21 519 -21 q 183 51 261 -21 q 105 250 105 123 q 111 329 105 292 q 125 406 117 366 l 265 1010 l 401 1010 l 260 399 q 247 327 252 367 q 241 265 241 288 q 292 135 241 180 q 444 90 343 90 q 572 112 517 90 q 667 179 627 134 q 726 272 704 221 q 764 395 748 323 l 906 1010 l 1042 1010 l 902 406 z "},"V":{"ha":948,"x_min":151,"x_max":1065,"o":"m 1065 1010 l 465 0 l 286 0 l 151 1010 l 291 1010 l 401 123 l 922 1010 l 1065 1010 z "},"W":{"ha":1375,"x_min":197,"x_max":1450,"o":"m 1450 1010 l 965 0 l 810 0 l 780 836 l 388 0 l 239 0 l 197 1010 l 334 1010 l 361 172 l 756 1010 l 892 1010 l 920 163 l 1318 1010 l 1450 1010 z "},"X":{"ha":951,"x_min":-42,"x_max":1053,"o":"m 434 508 l 201 1010 l 347 1010 l 530 606 l 901 1010 l 1053 1010 l 581 507 l 817 0 l 670 0 l 485 408 l 109 0 l -42 0 l 434 508 z "},"Y":{"ha":854,"x_min":144,"x_max":992,"o":"m 992 1010 l 509 443 l 406 0 l 271 0 l 370 429 l 144 1010 l 288 1010 l 463 556 l 845 1010 l 992 1010 z "},"Z":{"ha":951,"x_min":1,"x_max":1001,"o":"m 789 0 l 1 0 l 29 123 l 811 895 l 219 895 l 245 1010 l 1001 1010 l 974 893 l 185 115 l 816 115 l 789 0 z "},"[":{"ha":631,"x_min":14,"x_max":671,"o":"m 366 -266 l 14 -266 l 319 1055 l 671 1055 l 650 963 l 416 963 l 153 -174 l 387 -174 l 366 -266 z "},"\\":{"ha":631,"x_min":169,"x_max":546,"o":"m 546 -206 l 433 -206 l 169 1055 l 284 1055 l 546 -206 z "},"]":{"ha":631,"x_min":-33,"x_max":625,"o":"m 320 -266 l -33 -266 l -12 -174 l 222 -174 l 487 963 l 252 963 l 273 1055 l 625 1055 l 320 -266 z "},"^":{"ha":1137,"x_min":160,"x_max":1044,"o":"m 1044 464 l 910 464 l 602 889 l 294 463 l 160 463 l 559 1010 l 645 1010 l 1044 464 z "},"_":{"ha":883,"x_min":-137,"x_max":770,"o":"m 770 -122 l 751 -203 l -137 -203 l -118 -122 l 770 -122 z "},"`":{"ha":883,"x_min":383,"x_max":615,"o":"m 615 883 l 517 883 l 383 1137 l 543 1137 l 615 883 z "},"a":{"ha":834,"x_min":26,"x_max":755,"o":"m 593 399 q 407 384 488 395 q 273 349 326 372 q 190 289 218 327 q 161 193 161 250 q 195 119 161 144 q 298 93 228 93 q 424 120 359 93 q 543 186 488 148 l 593 399 m 519 81 q 469 50 500 70 q 405 16 437 30 q 328 -11 370 0 q 229 -21 285 -21 q 83 32 139 -21 q 26 169 26 84 q 66 321 26 259 q 184 422 106 383 q 369 478 260 461 q 615 500 477 496 q 622 533 619 519 q 625 562 625 547 q 612 614 625 594 q 575 647 599 635 q 520 664 551 659 q 450 668 488 668 q 319 649 393 668 q 199 612 245 631 l 192 612 l 217 740 q 330 763 256 750 q 473 776 405 776 q 685 732 614 776 q 755 592 755 688 q 752 553 755 574 q 745 514 749 532 l 627 0 l 500 0 l 519 81 z "},"b":{"ha":865,"x_min":38,"x_max":808,"o":"m 808 518 q 773 307 808 408 q 681 136 739 207 q 546 20 621 61 q 381 -21 471 -21 q 268 -5 321 -21 q 174 37 216 11 l 157 0 l 38 0 l 281 1055 l 409 1055 l 322 678 q 446 750 385 722 q 580 779 506 779 q 749 710 690 779 q 808 518 808 642 m 598 214 q 655 343 636 273 q 674 494 674 414 q 639 618 674 574 q 526 662 604 662 q 410 634 470 662 q 297 571 349 606 l 197 138 q 282 102 241 115 q 380 89 323 89 q 506 123 450 89 q 598 214 562 158 z "},"c":{"ha":724,"x_min":59,"x_max":748,"o":"m 366 -17 q 239 0 294 -17 q 142 54 184 17 q 81 142 102 89 q 59 267 59 196 q 92 466 59 374 q 186 628 125 558 q 332 735 245 696 q 519 775 419 775 q 645 757 586 775 q 748 713 703 739 l 720 576 l 713 576 q 679 604 699 588 q 631 635 659 621 q 569 660 603 650 q 492 669 535 669 q 277 558 360 669 q 194 288 194 447 q 243 140 194 192 q 383 89 292 89 q 469 101 426 89 q 541 127 511 113 q 603 161 574 143 q 644 187 631 178 l 652 187 l 625 48 q 500 2 566 22 q 366 -17 434 -17 z "},"d":{"ha":865,"x_min":58,"x_max":897,"o":"m 897 1055 l 652 0 l 525 0 l 543 79 q 405 0 457 20 q 290 -21 352 -21 q 120 47 183 -21 q 58 244 58 115 q 92 451 58 353 q 184 621 125 548 q 320 736 241 694 q 487 779 399 779 q 598 766 547 779 q 693 727 649 753 l 769 1055 l 897 1055 m 669 621 q 579 656 623 645 q 486 667 536 667 q 360 633 416 667 q 266 541 305 600 q 211 412 230 487 q 191 266 191 336 q 227 139 191 183 q 342 96 262 96 q 459 124 399 96 q 568 186 518 153 l 669 621 z "},"e":{"ha":827,"x_min":60,"x_max":783,"o":"m 651 461 q 656 494 654 481 q 657 524 657 508 q 617 637 657 597 q 490 678 578 678 q 319 618 394 678 q 218 461 245 559 l 651 461 m 396 -18 q 149 56 239 -18 q 60 273 60 130 q 191 630 60 481 q 517 779 323 779 q 714 714 646 779 q 783 534 783 650 q 777 470 783 514 q 758 368 771 426 l 200 368 q 194 329 196 348 q 193 294 193 310 q 251 143 193 198 q 416 89 309 89 q 570 118 491 89 q 703 184 649 147 l 710 184 l 682 46 q 621 24 648 34 q 552 3 594 14 q 477 -12 510 -7 q 396 -18 445 -18 z "},"f":{"ha":488,"x_min":46,"x_max":681,"o":"m 654 937 l 648 937 q 595 949 628 943 q 537 956 563 956 q 412 913 454 956 q 349 783 370 871 l 343 758 l 573 758 l 549 656 l 323 656 l 175 0 l 46 0 l 194 656 l 108 656 l 132 758 l 218 758 l 224 783 q 333 989 252 916 q 541 1062 414 1062 q 618 1058 584 1062 q 681 1048 653 1054 l 654 937 z "},"g":{"ha":863,"x_min":14,"x_max":825,"o":"m 825 758 l 671 84 q 525 -198 627 -109 q 241 -287 422 -287 q 123 -278 182 -287 q 14 -254 64 -269 l 43 -127 l 50 -127 q 153 -160 88 -144 q 274 -176 217 -176 q 384 -159 338 -176 q 458 -114 429 -142 q 504 -48 486 -85 q 532 37 522 -10 l 548 103 q 427 34 479 57 q 294 12 375 12 q 121 79 183 12 q 58 269 58 146 q 91 460 58 368 q 180 625 123 553 q 316 736 237 694 q 485 779 395 779 q 601 764 550 779 q 690 725 652 749 l 706 758 l 825 758 m 667 621 q 577 656 623 644 q 485 669 532 669 q 364 638 418 669 q 270 555 309 608 q 212 434 233 505 q 191 292 191 363 q 228 169 191 212 q 345 125 264 125 q 459 149 401 125 q 572 208 517 172 l 667 621 z "},"h":{"ha":879,"x_min":38,"x_max":797,"o":"m 797 585 q 794 541 797 568 q 785 492 791 513 l 671 0 l 544 0 l 644 431 q 656 494 652 467 q 661 547 661 521 q 632 633 661 604 q 531 662 604 662 q 417 633 479 662 q 296 566 355 605 l 165 0 l 38 0 l 281 1055 l 409 1055 l 321 673 q 457 751 393 724 q 587 779 520 779 q 742 729 686 779 q 797 585 797 679 z "},"i":{"ha":381,"x_min":39,"x_max":410,"o":"m 410 1017 l 379 884 l 235 884 l 266 1017 l 410 1017 m 342 758 l 167 0 l 39 0 l 214 758 l 342 758 z "},"j":{"ha":478,"x_min":-182,"x_max":510,"o":"m 479 884 l 334 884 l 365 1017 l 510 1017 l 479 884 m 262 -18 q 154 -218 232 -150 q -39 -287 77 -287 q -110 -281 -66 -287 q -182 -268 -154 -276 l -156 -152 l -149 -152 q -103 -169 -130 -161 q -41 -178 -76 -178 q 39 -163 7 -178 q 92 -119 71 -149 q 124 -48 111 -91 q 147 40 137 -6 l 289 655 l 131 655 l 155 758 l 441 758 l 262 -18 z "},"k":{"ha":815,"x_min":43,"x_max":870,"o":"m 734 0 l 579 0 l 337 333 l 227 244 l 172 0 l 43 0 l 287 1055 l 416 1055 l 258 377 l 703 758 l 870 758 l 438 399 l 734 0 z "},"l":{"ha":381,"x_min":39,"x_max":411,"o":"m 411 1055 l 167 0 l 39 0 l 283 1055 l 411 1055 z "},"m":{"ha":1352,"x_min":38,"x_max":1270,"o":"m 1270 590 q 1266 543 1270 568 q 1257 492 1263 517 l 1143 0 l 1016 0 l 1116 431 q 1129 498 1124 467 q 1134 555 1134 528 q 1108 634 1134 606 q 1010 662 1082 662 q 897 632 956 662 q 778 562 837 602 q 773 524 777 545 q 766 485 770 502 l 654 0 l 527 0 l 627 431 q 641 500 635 473 q 646 555 646 527 q 612 639 646 616 q 521 662 578 662 q 430 641 480 662 q 296 566 380 621 l 165 0 l 38 0 l 213 758 l 340 758 l 321 673 q 453 751 392 723 q 581 779 513 779 q 705 746 657 779 q 768 656 753 713 q 929 750 858 721 q 1069 779 1000 779 q 1219 729 1169 779 q 1270 590 1270 680 z "},"n":{"ha":879,"x_min":38,"x_max":797,"o":"m 797 585 q 794 541 797 568 q 785 492 791 513 l 671 0 l 544 0 l 644 431 q 656 494 652 467 q 661 547 661 521 q 632 633 661 604 q 531 662 604 662 q 417 633 479 662 q 296 566 355 605 l 165 0 l 38 0 l 213 758 l 340 758 l 321 673 q 457 751 393 724 q 587 779 520 779 q 742 729 686 779 q 797 585 797 679 z "},"o":{"ha":843,"x_min":60,"x_max":783,"o":"m 783 490 q 751 294 783 388 q 663 132 720 201 q 527 19 604 60 q 347 -21 450 -21 q 136 56 212 -21 q 60 269 60 133 q 91 463 60 370 q 180 627 122 555 q 318 737 237 696 q 497 779 400 779 q 705 704 628 779 q 783 490 783 629 m 575 203 q 631 329 612 258 q 650 479 650 400 q 605 623 650 574 q 477 672 559 672 q 359 641 411 672 q 269 554 307 609 q 212 429 232 500 q 193 279 193 357 q 238 136 193 186 q 367 85 283 85 q 485 117 432 85 q 575 203 538 148 z "},"p":{"ha":865,"x_min":-26,"x_max":808,"o":"m 808 518 q 773 307 808 406 q 680 138 738 208 q 545 26 622 67 q 380 -15 467 -15 q 268 -1 319 -15 q 174 39 216 13 l 101 -279 l -26 -279 l 213 758 l 340 758 l 322 678 q 446 750 385 722 q 581 779 507 779 q 750 710 692 779 q 808 518 808 642 m 674 494 q 639 618 674 574 q 526 662 604 662 q 410 634 470 662 q 297 571 349 606 l 198 142 q 282 106 242 118 q 379 95 322 95 q 505 129 449 95 q 597 217 561 163 q 655 344 636 274 q 674 494 674 414 z "},"q":{"ha":865,"x_min":58,"x_max":827,"o":"m 827 758 l 588 -279 l 460 -279 l 545 85 q 423 13 481 40 q 290 -15 366 -15 q 120 50 183 -15 q 58 244 58 115 q 92 451 58 353 q 184 621 125 548 q 320 736 241 694 q 487 779 399 779 q 598 766 547 779 q 693 727 649 753 l 708 758 l 827 758 m 669 621 q 579 656 623 645 q 486 668 536 668 q 359 633 414 668 q 266 541 304 598 q 211 412 230 488 q 191 266 191 336 q 227 142 191 183 q 342 102 262 102 q 459 130 399 102 q 570 193 519 159 l 669 621 z "},"r":{"ha":593,"x_min":38,"x_max":679,"o":"m 650 623 l 643 623 q 592 633 616 630 q 536 636 569 636 q 409 607 472 636 q 289 538 347 578 l 167 0 l 38 0 l 211 758 l 340 758 l 314 646 q 467 733 404 709 q 587 758 530 758 q 635 756 621 758 q 679 749 650 754 l 650 623 z "},"s":{"ha":724,"x_min":12,"x_max":702,"o":"m 275 -18 q 123 3 190 -18 q 12 48 56 24 l 40 184 l 47 184 q 84 156 61 172 q 142 123 106 139 q 215 96 174 107 q 302 85 256 85 q 452 120 398 85 q 507 224 507 155 q 479 279 507 260 q 399 311 451 298 q 335 324 372 317 q 260 342 298 332 q 143 407 181 364 q 105 510 105 449 q 128 609 105 563 q 197 694 151 655 q 307 753 240 730 q 456 776 374 776 q 592 759 524 776 q 702 717 659 742 l 675 587 l 668 587 q 635 610 657 595 q 579 641 613 625 q 511 663 550 654 q 430 673 472 673 q 292 637 345 673 q 239 540 239 602 q 265 483 239 506 q 344 448 291 460 q 413 432 377 439 q 484 417 450 425 q 602 356 562 397 q 642 252 642 315 q 617 150 642 200 q 545 64 592 100 q 429 3 497 25 q 275 -18 360 -18 z "},"t":{"ha":547,"x_min":87,"x_max":606,"o":"m 606 758 l 583 654 l 320 654 l 239 305 q 227 244 232 279 q 221 190 221 210 q 246 116 221 140 q 339 92 271 92 q 405 102 367 92 q 457 117 444 111 l 464 117 l 440 7 q 359 -9 402 -3 q 283 -15 316 -15 q 138 26 189 -15 q 87 156 87 67 q 90 199 87 178 q 98 248 93 220 l 193 654 l 106 654 l 130 758 l 216 758 l 267 975 l 394 975 l 343 758 l 606 758 z "},"u":{"ha":879,"x_min":83,"x_max":841,"o":"m 841 758 l 666 0 l 538 0 l 558 84 q 423 7 486 35 q 290 -21 360 -21 q 138 28 193 -21 q 83 172 83 77 q 86 216 83 195 q 94 266 89 238 l 208 758 l 335 758 l 235 326 q 224 266 229 300 q 218 212 218 232 q 248 125 218 154 q 349 96 277 96 q 464 125 399 96 q 583 192 528 154 l 713 758 l 841 758 z "},"v":{"ha":821,"x_min":121,"x_max":859,"o":"m 859 758 l 377 0 l 250 0 l 121 758 l 251 758 l 347 155 l 718 758 l 859 758 z "},"w":{"ha":1137,"x_min":131,"x_max":1156,"o":"m 1156 758 l 804 0 l 685 0 l 609 585 l 296 0 l 178 0 l 131 758 l 261 758 l 281 172 l 590 758 l 696 758 l 770 172 l 1023 758 l 1156 758 z "},"x":{"ha":822,"x_min":-47,"x_max":869,"o":"m 342 383 l 131 758 l 274 758 l 430 469 l 712 758 l 869 758 l 482 376 l 694 0 l 551 0 l 394 290 l 110 0 l -47 0 l 342 383 z "},"y":{"ha":821,"x_min":35,"x_max":857,"o":"m 175 -279 l 35 -279 l 255 44 l 118 758 l 249 758 l 356 194 l 718 758 l 857 758 l 175 -279 z "},"z":{"ha":730,"x_min":-21,"x_max":747,"o":"m 591 0 l -21 0 l 1 94 l 564 656 l 130 656 l 154 758 l 747 758 l 726 667 l 161 102 l 614 102 l 591 0 z "},"{":{"ha":882,"x_min":111,"x_max":900,"o":"m 616 -266 l 515 -266 q 353 -217 412 -266 q 293 -76 293 -168 q 300 -9 293 -42 q 314 54 307 24 q 329 121 322 88 q 335 190 335 155 q 291 309 335 267 q 146 351 248 351 l 111 351 l 134 452 l 169 452 q 352 515 282 452 q 447 699 422 578 l 467 795 q 579 987 493 919 q 798 1055 665 1055 l 900 1055 l 881 966 l 804 966 q 657 919 707 966 q 589 781 607 871 l 565 669 q 477 508 543 569 q 313 410 411 446 l 307 393 q 417 313 378 362 q 456 195 456 263 q 435 67 456 154 q 414 -60 414 -20 q 448 -148 414 -119 q 558 -177 482 -177 l 635 -177 l 616 -266 z "},"|":{"ha":631,"x_min":286,"x_max":404,"o":"m 404 -266 l 286 -266 l 286 1055 l 404 1055 l 404 -266 z "},"}":{"ha":882,"x_min":-10,"x_max":779,"o":"m 779 438 l 755 338 l 721 338 q 536 274 605 338 q 443 91 468 210 l 422 -5 q 311 -199 395 -132 q 92 -266 227 -266 l -10 -266 l 9 -177 l 86 -177 q 229 -134 178 -177 q 301 8 280 -90 l 325 120 q 360 213 336 172 q 418 286 384 253 q 493 340 451 317 q 577 380 534 363 l 583 396 q 472 478 510 429 q 433 595 433 528 q 455 721 433 634 q 476 850 476 807 q 439 939 476 911 q 332 966 402 966 l 254 966 l 273 1055 l 375 1055 q 537 1006 477 1055 q 597 865 597 958 q 590 799 597 833 q 576 735 583 764 q 562 670 569 708 q 555 600 555 632 q 598 480 555 522 q 744 438 642 438 l 779 438 z "},"~":{"ha":1137,"x_min":156,"x_max":1039,"o":"m 1039 629 q 1024 496 1038 562 q 979 380 1010 431 q 904 298 948 328 q 792 269 860 269 q 719 278 751 269 q 661 307 687 288 q 614 346 635 324 q 572 391 593 368 q 534 436 555 412 q 496 477 514 460 q 455 508 477 496 q 407 519 433 519 q 310 460 344 519 q 269 268 275 400 l 156 268 q 171 400 157 336 q 215 516 185 464 q 291 597 244 566 q 403 628 338 628 q 477 617 444 628 q 536 589 510 607 q 582 551 562 572 q 623 505 603 529 q 661 460 639 487 q 700 419 684 434 q 741 388 720 399 q 788 377 762 377 q 887 438 852 377 q 926 629 921 498 l 1039 629 z "},"Ä":{"ha":948,"x_min":-58,"x_max":866,"o":"m 855 0 l 719 0 l 685 284 l 250 284 l 84 0 l -58 0 l 543 1010 l 721 1010 l 855 0 m 670 394 l 607 892 l 314 394 l 670 394 m 836 1137 l 699 1137 l 730 1270 l 866 1270 l 836 1137 m 554 1137 l 418 1137 l 448 1270 l 585 1270 l 554 1137 z "},"Å":{"ha":948,"x_min":-58,"x_max":884,"o":"m 856 0 l 718 0 l 684 284 l 250 284 l 85 0 l -58 0 l 507 949 q 430 1019 458 973 q 401 1122 401 1065 q 485 1308 401 1227 q 681 1390 568 1390 q 826 1336 769 1390 q 884 1202 884 1282 q 839 1057 884 1123 q 728 958 795 991 l 856 0 m 669 394 l 607 890 l 315 394 l 669 394 m 784 1185 q 752 1268 784 1234 q 667 1301 720 1301 q 551 1252 601 1301 q 501 1137 502 1203 q 533 1052 501 1086 q 618 1018 566 1018 q 734 1069 684 1018 q 784 1185 784 1120 z "},"Ç":{"ha":970,"x_min":90,"x_max":1025,"o":"m 500 -18 q 199 81 309 -18 q 90 363 90 180 q 132 623 90 503 q 253 835 174 744 q 445 976 331 924 q 699 1028 559 1028 q 865 1007 787 1028 q 1025 939 943 985 l 994 787 l 984 787 q 939 829 962 810 q 871 871 916 848 q 782 904 833 891 q 668 918 730 918 q 494 878 573 918 q 356 767 414 838 q 267 599 299 698 q 234 388 234 500 q 307 171 234 248 q 516 93 379 93 q 638 107 581 93 q 744 144 696 122 q 823 189 788 165 q 884 231 859 212 l 893 231 l 861 75 q 763 33 818 55 q 656 -1 707 11 q 579 -210 653 -133 q 385 -287 505 -287 q 319 -281 356 -287 q 253 -267 281 -275 l 275 -166 l 281 -166 q 326 -182 298 -173 q 388 -191 354 -191 q 514 -143 476 -191 q 552 -16 552 -96 q 527 -18 540 -17 q 500 -18 513 -18 z "},"É":{"ha":878,"x_min":48,"x_max":946,"o":"m 946 1010 l 920 895 l 389 895 l 323 610 l 854 610 l 828 496 l 297 496 l 209 115 l 740 115 l 713 0 l 48 0 l 281 1010 l 946 1010 m 855 1390 l 614 1136 l 509 1136 l 681 1390 l 855 1390 z "},"Ñ":{"ha":1039,"x_min":47,"x_max":1053,"o":"m 819 0 l 659 0 l 383 903 l 174 0 l 47 0 l 281 1010 l 483 1010 l 735 185 l 926 1010 l 1053 1010 l 819 0 m 986 1351 q 911 1194 960 1245 q 791 1143 863 1143 q 727 1156 753 1143 q 677 1195 701 1168 q 634 1238 654 1222 q 590 1253 614 1253 q 538 1225 559 1253 q 505 1141 517 1196 l 420 1141 q 496 1296 444 1244 q 614 1348 549 1348 q 676 1334 648 1348 q 726 1297 705 1321 q 771 1255 750 1270 q 816 1241 791 1241 q 869 1271 846 1241 q 903 1351 891 1300 l 986 1351 z "},"Ö":{"ha":1093,"x_min":91,"x_max":1060,"o":"m 1060 652 q 1020 399 1060 521 q 905 184 981 277 q 720 34 828 88 q 475 -21 611 -21 q 193 78 294 -21 q 91 358 91 176 q 132 616 91 496 q 249 831 172 736 q 434 976 323 922 q 675 1031 544 1031 q 958 933 855 1031 q 1060 652 1060 835 m 803 251 q 889 424 860 328 q 918 633 918 519 q 849 846 918 772 q 654 920 779 920 q 479 876 557 920 q 345 755 401 831 q 262 582 291 681 q 233 379 233 484 q 302 164 233 239 q 497 90 372 90 q 671 134 593 90 q 803 251 749 178 m 880 1137 l 744 1137 l 774 1270 l 911 1270 l 880 1137 m 599 1137 l 463 1137 l 493 1270 l 629 1270 l 599 1137 z "},"Ü":{"ha":1017,"x_min":105,"x_max":1042,"o":"m 902 406 q 835 213 876 292 q 727 78 794 133 q 592 3 665 28 q 420 -21 519 -21 q 183 51 261 -21 q 105 250 105 123 q 111 329 105 292 q 125 406 117 366 l 265 1010 l 401 1010 l 260 399 q 247 327 252 367 q 241 265 241 288 q 292 135 241 180 q 444 90 343 90 q 572 112 517 90 q 667 179 627 134 q 726 272 704 221 q 764 395 748 323 l 906 1010 l 1042 1010 l 902 406 m 869 1137 l 733 1137 l 764 1270 l 900 1270 l 869 1137 m 588 1137 l 452 1137 l 482 1270 l 618 1270 l 588 1137 z "},"á":{"ha":834,"x_min":26,"x_max":763,"o":"m 593 399 q 407 384 488 395 q 273 349 326 372 q 190 289 218 327 q 161 193 161 250 q 195 119 161 144 q 298 93 228 93 q 424 120 359 93 q 543 186 488 148 l 593 399 m 519 81 q 469 50 500 70 q 405 16 437 30 q 328 -11 370 0 q 229 -21 285 -21 q 83 32 139 -21 q 26 169 26 84 q 66 321 26 259 q 184 422 106 383 q 369 478 260 461 q 615 500 477 496 q 622 533 619 519 q 625 562 625 547 q 612 614 625 594 q 575 647 599 635 q 520 664 551 659 q 450 668 488 668 q 319 649 393 668 q 199 612 245 631 l 192 612 l 217 740 q 330 763 256 750 q 473 776 405 776 q 685 732 614 776 q 755 592 755 688 q 752 553 755 574 q 745 514 749 532 l 627 0 l 500 0 l 519 81 m 763 1137 l 522 883 l 416 883 l 589 1137 l 763 1137 z "},"à":{"ha":834,"x_min":26,"x_max":755,"o":"m 593 399 q 407 384 488 395 q 273 349 326 372 q 190 289 218 327 q 161 193 161 250 q 195 119 161 144 q 298 93 228 93 q 424 120 359 93 q 543 186 488 148 l 593 399 m 519 81 q 469 50 500 70 q 405 16 437 30 q 328 -11 370 0 q 229 -21 285 -21 q 83 32 139 -21 q 26 169 26 84 q 66 321 26 259 q 184 422 106 383 q 369 478 260 461 q 615 500 477 496 q 622 533 619 519 q 625 562 625 547 q 612 614 625 594 q 575 647 599 635 q 520 664 551 659 q 450 668 488 668 q 319 649 393 668 q 199 612 245 631 l 192 612 l 217 740 q 330 763 256 750 q 473 776 405 776 q 685 732 614 776 q 755 592 755 688 q 752 553 755 574 q 745 514 749 532 l 627 0 l 500 0 l 519 81 m 600 883 l 502 883 l 368 1137 l 528 1137 l 600 883 z "},"â":{"ha":834,"x_min":26,"x_max":755,"o":"m 593 399 q 407 384 488 395 q 273 349 326 372 q 190 289 218 327 q 161 193 161 250 q 195 119 161 144 q 298 93 228 93 q 424 120 359 93 q 543 186 488 148 l 593 399 m 519 81 q 469 50 500 70 q 405 16 437 30 q 328 -11 370 0 q 229 -21 285 -21 q 83 32 139 -21 q 26 169 26 84 q 66 321 26 259 q 184 422 106 383 q 369 478 260 461 q 615 500 477 496 q 622 533 619 519 q 625 562 625 547 q 612 614 625 594 q 575 647 599 635 q 520 664 551 659 q 450 668 488 668 q 319 649 393 668 q 199 612 245 631 l 192 612 l 217 740 q 330 763 256 750 q 473 776 405 776 q 685 732 614 776 q 755 592 755 688 q 752 553 755 574 q 745 514 749 532 l 627 0 l 500 0 l 519 81 m 738 880 l 635 880 l 547 1056 l 383 880 l 273 880 l 484 1137 l 639 1137 l 738 880 z "},"ä":{"ha":834,"x_min":26,"x_max":755,"o":"m 593 399 q 407 384 488 395 q 273 349 326 372 q 190 289 218 327 q 161 193 161 250 q 195 119 161 144 q 298 93 228 93 q 424 120 359 93 q 543 186 488 148 l 593 399 m 519 81 q 469 50 500 70 q 405 16 437 30 q 328 -11 370 0 q 229 -21 285 -21 q 83 32 139 -21 q 26 169 26 84 q 66 321 26 259 q 184 422 106 383 q 369 478 260 461 q 615 500 477 496 q 622 533 619 519 q 625 562 625 547 q 612 614 625 594 q 575 647 599 635 q 520 664 551 659 q 450 668 488 668 q 319 649 393 668 q 199 612 245 631 l 192 612 l 217 740 q 330 763 256 750 q 473 776 405 776 q 685 732 614 776 q 755 592 755 688 q 752 553 755 574 q 745 514 749 532 l 627 0 l 500 0 l 519 81 m 711 884 l 575 884 l 606 1017 l 742 1017 l 711 884 m 430 884 l 294 884 l 324 1017 l 460 1017 l 430 884 z "},"ã":{"ha":834,"x_min":26,"x_max":796,"o":"m 593 399 q 407 384 488 395 q 273 349 326 372 q 190 289 218 327 q 161 193 161 250 q 195 119 161 144 q 298 93 228 93 q 424 120 359 93 q 543 186 488 148 l 593 399 m 519 81 q 469 50 500 70 q 405 16 437 30 q 328 -11 370 0 q 229 -21 285 -21 q 83 32 139 -21 q 26 169 26 84 q 66 321 26 259 q 184 422 106 383 q 369 478 260 461 q 615 500 477 496 q 622 533 619 519 q 625 562 625 547 q 612 614 625 594 q 575 647 599 635 q 520 664 551 659 q 450 668 488 668 q 319 649 393 668 q 199 612 245 631 l 192 612 l 217 740 q 330 763 256 750 q 473 776 405 776 q 685 732 614 776 q 755 592 755 688 q 752 553 755 574 q 745 514 749 532 l 627 0 l 500 0 l 519 81 m 796 1098 q 721 941 770 992 q 601 890 673 890 q 537 903 564 890 q 488 942 511 915 q 445 985 465 969 q 400 1000 425 1000 q 348 972 369 1000 q 315 888 328 943 l 230 888 q 307 1043 254 991 q 425 1095 359 1095 q 487 1081 458 1095 q 536 1044 515 1068 q 581 1002 560 1017 q 626 988 602 988 q 679 1018 656 988 q 713 1098 701 1047 l 796 1098 z "},"å":{"ha":834,"x_min":26,"x_max":755,"o":"m 593 399 q 407 384 488 395 q 273 349 326 372 q 190 289 218 327 q 161 193 161 250 q 195 119 161 144 q 298 93 228 93 q 424 120 359 93 q 543 186 488 148 l 593 399 m 519 81 q 469 50 500 70 q 405 16 437 30 q 328 -11 370 0 q 229 -21 285 -21 q 83 32 139 -21 q 26 169 26 84 q 66 321 26 259 q 184 422 106 383 q 369 478 260 461 q 615 500 477 496 q 622 533 619 519 q 625 562 625 547 q 612 614 625 594 q 575 647 599 635 q 520 664 551 659 q 450 668 488 668 q 319 649 393 668 q 199 612 245 631 l 192 612 l 217 740 q 290 756 243 747 q 385 770 336 765 q 296 839 329 792 q 263 948 263 886 q 348 1136 263 1056 q 543 1216 433 1216 q 688 1162 631 1216 q 745 1028 745 1108 q 691 869 745 940 q 556 771 637 798 q 706 716 656 760 q 755 592 755 672 q 752 553 755 574 q 745 514 749 532 l 627 0 l 500 0 l 519 81 m 646 1012 q 613 1094 646 1061 q 528 1128 581 1128 q 413 1079 463 1128 q 363 963 363 1029 q 395 879 363 913 q 479 844 427 844 q 595 895 545 844 q 646 1012 646 946 z "},"ç":{"ha":724,"x_min":59,"x_max":748,"o":"m 366 -17 q 239 0 294 -17 q 142 54 184 17 q 81 142 102 89 q 59 267 59 196 q 92 466 59 374 q 186 628 125 558 q 332 735 245 696 q 519 775 419 775 q 645 757 586 775 q 748 713 703 739 l 720 576 l 713 576 q 679 604 699 588 q 631 635 659 621 q 569 660 603 650 q 492 669 535 669 q 277 558 360 669 q 194 288 194 447 q 243 140 194 192 q 383 89 292 89 q 469 101 426 89 q 541 127 511 113 q 603 161 574 143 q 644 187 631 178 l 652 187 l 625 48 q 572 26 600 37 q 517 7 545 16 q 442 -207 517 -127 q 246 -287 368 -287 q 180 -281 217 -287 q 114 -267 142 -275 l 136 -166 l 142 -166 q 187 -182 159 -173 q 249 -191 215 -191 q 376 -142 339 -191 q 413 -14 413 -93 q 390 -16 401 -16 q 366 -17 378 -17 z "},"é":{"ha":827,"x_min":60,"x_max":783,"o":"m 651 461 q 656 494 654 481 q 657 524 657 508 q 617 637 657 597 q 490 678 578 678 q 319 618 394 678 q 218 461 245 559 l 651 461 m 396 -18 q 149 56 239 -18 q 60 273 60 130 q 191 630 60 481 q 517 779 323 779 q 714 714 646 779 q 783 534 783 650 q 777 470 783 514 q 758 368 771 426 l 200 368 q 194 329 196 348 q 193 294 193 310 q 251 143 193 198 q 416 89 309 89 q 570 118 491 89 q 703 184 649 147 l 710 184 l 682 46 q 621 24 648 34 q 552 3 594 14 q 477 -12 510 -7 q 396 -18 445 -18 m 770 1137 l 530 883 l 424 883 l 596 1137 l 770 1137 z "},"è":{"ha":827,"x_min":60,"x_max":783,"o":"m 651 461 q 656 494 654 481 q 657 524 657 508 q 617 637 657 597 q 490 678 578 678 q 319 618 394 678 q 218 461 245 559 l 651 461 m 396 -18 q 149 56 239 -18 q 60 273 60 130 q 191 630 60 481 q 517 779 323 779 q 714 714 646 779 q 783 534 783 650 q 777 470 783 514 q 758 368 771 426 l 200 368 q 194 329 196 348 q 193 294 193 310 q 251 143 193 198 q 416 89 309 89 q 570 118 491 89 q 703 184 649 147 l 710 184 l 682 46 q 621 24 648 34 q 552 3 594 14 q 477 -12 510 -7 q 396 -18 445 -18 m 608 883 l 509 883 l 376 1137 l 536 1137 l 608 883 z "},"ê":{"ha":827,"x_min":60,"x_max":783,"o":"m 651 461 q 656 494 654 481 q 657 524 657 508 q 617 637 657 597 q 490 678 578 678 q 319 618 394 678 q 218 461 245 559 l 651 461 m 396 -18 q 149 56 239 -18 q 60 273 60 130 q 191 630 60 481 q 517 779 323 779 q 714 714 646 779 q 783 534 783 650 q 777 470 783 514 q 758 368 771 426 l 200 368 q 194 329 196 348 q 193 294 193 310 q 251 143 193 198 q 416 89 309 89 q 570 118 491 89 q 703 184 649 147 l 710 184 l 682 46 q 621 24 648 34 q 552 3 594 14 q 477 -12 510 -7 q 396 -18 445 -18 m 748 880 l 645 880 l 557 1056 l 393 880 l 283 880 l 494 1137 l 649 1137 l 748 880 z "},"ë":{"ha":827,"x_min":60,"x_max":783,"o":"m 651 461 q 656 494 654 481 q 657 524 657 508 q 617 637 657 597 q 490 678 578 678 q 319 618 394 678 q 218 461 245 559 l 651 461 m 396 -18 q 149 56 239 -18 q 60 273 60 130 q 191 630 60 481 q 517 779 323 779 q 714 714 646 779 q 783 534 783 650 q 777 470 783 514 q 758 368 771 426 l 200 368 q 194 329 196 348 q 193 294 193 310 q 251 143 193 198 q 416 89 309 89 q 570 118 491 89 q 703 184 649 147 l 710 184 l 682 46 q 621 24 648 34 q 552 3 594 14 q 477 -12 510 -7 q 396 -18 445 -18 m 720 884 l 583 884 l 614 1017 l 750 1017 l 720 884 m 438 884 l 302 884 l 332 1017 l 469 1017 l 438 884 z "},"í":{"ha":381,"x_min":39,"x_max":547,"o":"m 342 758 l 168 0 l 39 0 l 214 758 l 342 758 m 547 1137 l 306 883 l 200 883 l 372 1137 l 547 1137 z "},"ì":{"ha":381,"x_min":39,"x_max":387,"o":"m 342 758 l 168 0 l 39 0 l 214 758 l 342 758 m 387 883 l 289 883 l 155 1137 l 315 1137 l 387 883 z "},"î":{"ha":381,"x_min":39,"x_max":486,"o":"m 342 758 l 168 0 l 39 0 l 214 758 l 342 758 m 486 880 l 389 880 l 332 1061 l 195 880 l 92 880 l 272 1137 l 422 1137 l 486 880 z "},"ï":{"ha":381,"x_min":39,"x_max":505,"o":"m 342 758 l 168 0 l 39 0 l 214 758 l 342 758 m 505 1017 l 474 884 l 346 884 l 376 1017 l 505 1017 m 258 1017 l 228 884 l 100 884 l 130 1017 l 258 1017 z "},"ñ":{"ha":879,"x_min":38,"x_max":829,"o":"m 797 585 q 794 541 797 568 q 785 492 791 513 l 671 0 l 544 0 l 644 431 q 656 494 652 467 q 661 547 661 521 q 632 633 661 604 q 531 662 604 662 q 417 633 479 662 q 296 566 355 605 l 165 0 l 38 0 l 213 758 l 340 758 l 321 673 q 457 751 393 724 q 587 779 520 779 q 742 729 686 779 q 797 585 797 679 m 829 1098 q 754 941 803 992 q 634 890 706 890 q 570 903 597 890 q 521 942 544 915 q 478 985 498 969 q 433 1000 458 1000 q 381 972 402 1000 q 348 888 361 943 l 263 888 q 340 1043 287 991 q 458 1095 393 1095 q 520 1081 492 1095 q 570 1044 548 1068 q 614 1002 593 1017 q 659 988 635 988 q 712 1018 690 988 q 746 1098 734 1047 l 829 1098 z "},"ó":{"ha":843,"x_min":60,"x_max":783,"o":"m 783 490 q 751 294 783 388 q 663 132 720 201 q 527 19 604 60 q 347 -21 450 -21 q 136 56 212 -21 q 60 269 60 133 q 91 463 60 370 q 180 627 122 555 q 318 737 237 696 q 497 779 400 779 q 705 704 628 779 q 783 490 783 629 m 575 203 q 631 329 612 258 q 650 479 650 400 q 605 623 650 574 q 477 672 559 672 q 359 641 411 672 q 269 554 307 609 q 212 429 232 500 q 193 279 193 357 q 238 136 193 186 q 367 85 283 85 q 485 117 432 85 q 575 203 538 148 m 778 1137 l 537 883 l 431 883 l 604 1137 l 778 1137 z "},"ò":{"ha":843,"x_min":60,"x_max":783,"o":"m 783 490 q 751 294 783 388 q 663 132 720 201 q 527 19 604 60 q 347 -21 450 -21 q 136 56 212 -21 q 60 269 60 133 q 91 463 60 370 q 180 627 122 555 q 318 737 237 696 q 497 779 400 779 q 705 704 628 779 q 783 490 783 629 m 575 203 q 631 329 612 258 q 650 479 650 400 q 605 623 650 574 q 477 672 559 672 q 359 641 411 672 q 269 554 307 609 q 212 429 232 500 q 193 279 193 357 q 238 136 193 186 q 367 85 283 85 q 485 117 432 85 q 575 203 538 148 m 615 883 l 517 883 l 383 1137 l 543 1137 l 615 883 z "},"ô":{"ha":843,"x_min":60,"x_max":783,"o":"m 783 490 q 751 294 783 388 q 663 132 720 201 q 527 19 604 60 q 347 -21 450 -21 q 136 56 212 -21 q 60 269 60 133 q 91 463 60 370 q 180 627 122 555 q 318 737 237 696 q 497 779 400 779 q 705 704 628 779 q 783 490 783 629 m 575 203 q 631 329 612 258 q 650 479 650 400 q 605 623 650 574 q 477 672 559 672 q 359 641 411 672 q 269 554 307 609 q 212 429 232 500 q 193 279 193 357 q 238 136 193 186 q 367 85 283 85 q 485 117 432 85 q 575 203 538 148 m 755 880 l 652 880 l 564 1056 l 401 880 l 291 880 l 502 1137 l 656 1137 l 755 880 z "},"ö":{"ha":843,"x_min":60,"x_max":783,"o":"m 783 490 q 751 294 783 388 q 663 132 720 201 q 527 19 604 60 q 347 -21 450 -21 q 136 56 212 -21 q 60 269 60 133 q 91 463 60 370 q 180 627 122 555 q 318 737 237 696 q 497 779 400 779 q 705 704 628 779 q 783 490 783 629 m 575 203 q 631 329 612 258 q 650 479 650 400 q 605 623 650 574 q 477 672 559 672 q 359 641 411 672 q 269 554 307 609 q 212 429 232 500 q 193 279 193 357 q 238 136 193 186 q 367 85 283 85 q 485 117 432 85 q 575 203 538 148 m 727 884 l 591 884 l 621 1017 l 758 1017 l 727 884 m 446 884 l 309 884 l 340 1017 l 476 1017 l 446 884 z "},"õ":{"ha":843,"x_min":60,"x_max":811,"o":"m 783 490 q 751 294 783 388 q 663 132 720 201 q 527 19 604 60 q 347 -21 450 -21 q 136 56 212 -21 q 60 269 60 133 q 91 463 60 370 q 180 627 122 555 q 318 737 237 696 q 497 779 400 779 q 705 704 628 779 q 783 490 783 629 m 575 203 q 631 329 612 258 q 650 479 650 400 q 605 623 650 574 q 477 672 559 672 q 359 641 411 672 q 269 554 307 609 q 212 429 232 500 q 193 279 193 357 q 238 136 193 186 q 367 85 283 85 q 485 117 432 85 q 575 203 538 148 m 811 1098 q 736 941 785 992 q 616 890 688 890 q 552 903 578 890 q 503 942 526 915 q 459 985 479 969 q 415 1000 439 1000 q 363 972 384 1000 q 330 888 342 943 l 245 888 q 321 1043 269 991 q 439 1095 374 1095 q 502 1081 473 1095 q 551 1044 530 1068 q 596 1002 575 1017 q 641 988 616 988 q 694 1018 671 988 q 728 1098 716 1047 l 811 1098 z "},"ú":{"ha":879,"x_min":83,"x_max":841,"o":"m 841 758 l 666 0 l 538 0 l 558 84 q 423 7 486 35 q 290 -21 360 -21 q 138 28 193 -21 q 83 172 83 77 q 86 216 83 195 q 94 266 89 238 l 208 758 l 335 758 l 235 326 q 224 266 229 300 q 218 212 218 232 q 248 125 218 154 q 349 96 277 96 q 464 125 399 96 q 583 192 528 154 l 713 758 l 841 758 m 793 1137 l 553 883 l 447 883 l 619 1137 l 793 1137 z "},"ù":{"ha":879,"x_min":83,"x_max":841,"o":"m 841 758 l 666 0 l 538 0 l 558 84 q 423 7 486 35 q 290 -21 360 -21 q 138 28 193 -21 q 83 172 83 77 q 86 216 83 195 q 94 266 89 238 l 208 758 l 335 758 l 235 326 q 224 266 229 300 q 218 212 218 232 q 248 125 218 154 q 349 96 277 96 q 464 125 399 96 q 583 192 528 154 l 713 758 l 841 758 m 631 883 l 532 883 l 399 1137 l 559 1137 l 631 883 z "},"û":{"ha":879,"x_min":83,"x_max":841,"o":"m 841 758 l 666 0 l 538 0 l 558 84 q 423 7 486 35 q 290 -21 360 -21 q 138 28 193 -21 q 83 172 83 77 q 86 216 83 195 q 94 266 89 238 l 208 758 l 335 758 l 235 326 q 224 266 229 300 q 218 212 218 232 q 248 125 218 154 q 349 96 277 96 q 464 125 399 96 q 583 192 528 154 l 713 758 l 841 758 m 771 880 l 668 880 l 580 1056 l 416 880 l 307 880 l 517 1137 l 672 1137 l 771 880 z "},"ü":{"ha":879,"x_min":83,"x_max":841,"o":"m 841 758 l 666 0 l 538 0 l 558 84 q 423 7 486 35 q 290 -21 360 -21 q 138 28 193 -21 q 83 172 83 77 q 86 216 83 195 q 94 266 89 238 l 208 758 l 335 758 l 235 326 q 224 266 229 300 q 218 212 218 232 q 248 125 218 154 q 349 96 277 96 q 464 125 399 96 q 583 192 528 154 l 713 758 l 841 758 m 743 884 l 607 884 l 637 1017 l 774 1017 l 743 884 m 462 884 l 326 884 l 356 1017 l 492 1017 l 462 884 z "},"†":{"ha":883,"x_min":202,"x_max":850,"o":"m 831 703 l 559 706 l 420 92 l 330 92 l 476 706 l 202 703 l 220 787 l 493 784 l 553 1055 l 642 1055 l 576 784 l 850 787 l 831 703 z "},"°":{"ha":753,"x_min":190,"x_max":730,"o":"m 730 759 q 651 568 730 646 q 460 490 573 490 q 269 567 348 490 q 190 759 190 645 q 268 950 190 872 q 460 1028 347 1028 q 652 950 574 1028 q 730 759 730 872 m 622 759 q 576 877 622 829 q 460 924 530 924 q 344 877 390 924 q 298 759 298 829 q 345 641 298 688 q 460 593 391 593 q 576 641 530 593 q 622 759 622 689 z "},"¢":{"ha":883,"x_min":97,"x_max":829,"o":"m 689 50 q 571 14 638 31 q 431 -4 505 -2 l 376 -245 l 296 -245 l 352 -1 q 165 82 233 12 q 97 274 97 153 q 130 466 97 382 q 222 612 163 549 q 358 711 278 673 q 528 760 439 749 l 583 1000 l 663 1000 l 608 762 q 734 743 678 760 q 829 704 790 725 l 799 579 l 791 579 q 699 642 745 621 q 587 667 652 663 l 454 94 q 608 130 545 102 q 713 186 671 158 l 720 186 l 689 50 m 374 96 l 506 666 q 398 628 449 658 q 309 551 348 599 q 250 439 273 507 q 227 294 227 371 q 267 154 227 201 q 374 96 306 106 z "},"£":{"ha":883,"x_min":10,"x_max":906,"o":"m 713 0 l 10 0 l 39 125 q 184 220 130 147 q 260 418 239 293 l 140 418 l 161 507 l 279 507 l 325 720 q 453 943 353 856 q 691 1029 553 1029 q 811 1019 760 1029 q 906 995 863 1008 l 874 863 l 867 863 q 795 902 842 882 q 678 921 749 921 q 530 865 587 921 q 451 707 472 808 l 408 507 l 691 507 l 669 418 l 389 418 l 381 374 q 306 223 365 289 q 169 119 248 157 l 169 111 l 739 111 l 713 0 z "},"§":{"ha":883,"x_min":46,"x_max":848,"o":"m 587 178 l 587 174 q 658 113 635 149 q 681 30 681 76 q 653 -83 681 -31 q 574 -174 626 -136 q 441 -239 517 -217 q 273 -261 365 -261 q 159 -252 214 -261 q 46 -222 104 -243 l 71 -95 l 78 -95 q 186 -138 131 -121 q 315 -154 242 -154 q 481 -116 417 -154 q 546 -1 546 -77 q 532 47 546 28 q 490 80 517 66 q 419 106 461 95 q 330 131 378 117 q 170 206 226 159 q 113 329 113 252 q 129 414 113 375 q 172 487 144 453 q 233 546 198 520 q 307 591 268 571 l 307 595 q 235 656 258 621 q 212 735 212 692 q 238 849 212 797 q 317 943 264 901 q 446 1006 368 983 q 621 1030 523 1030 q 735 1021 680 1030 q 848 991 790 1011 l 823 865 l 816 865 q 703 908 762 892 q 578 924 644 924 q 410 883 472 924 q 347 775 347 842 q 361 724 347 744 q 403 690 376 703 q 472 664 428 677 q 564 638 516 651 q 724 564 667 610 q 781 441 781 518 q 727 288 781 355 q 587 178 673 220 m 594 273 q 633 329 618 300 q 648 400 648 358 q 615 477 648 446 q 524 526 583 509 q 467 542 499 533 q 393 563 435 551 q 352 539 374 553 q 303 496 330 524 q 264 438 281 473 q 248 363 248 404 q 278 290 248 318 q 371 243 309 261 q 426 228 395 237 q 500 206 456 219 q 546 232 523 218 q 594 273 568 245 z "},"•":{"ha":758,"x_min":153,"x_max":659,"o":"m 659 449 q 585 270 659 345 q 406 196 510 196 q 227 270 301 196 q 153 449 153 345 q 227 628 153 553 q 406 702 301 702 q 585 628 510 702 q 659 449 659 553 z "},"¶":{"ha":883,"x_min":156,"x_max":892,"o":"m 602 -246 l 501 -246 l 772 924 l 627 924 l 356 -246 l 255 -246 l 405 402 q 224 468 292 405 q 156 636 156 531 q 270 906 156 802 q 576 1010 385 1010 l 892 1010 l 602 -246 z "},"ß":{"ha":861,"x_min":38,"x_max":823,"o":"m 672 110 q 545 18 616 52 q 384 -16 473 -16 q 316 -11 354 -16 q 255 3 278 -6 l 279 110 l 286 110 q 346 87 313 92 q 414 81 378 81 q 519 110 473 81 q 594 183 565 139 q 638 280 623 226 q 654 387 654 334 q 593 517 654 473 q 416 562 531 562 l 439 658 q 624 712 557 658 q 690 854 690 766 q 654 936 690 905 q 555 966 618 966 q 415 907 469 966 q 335 737 360 848 l 167 0 l 38 0 l 205 732 q 261 883 227 823 q 347 985 296 943 q 455 1043 393 1023 q 581 1062 517 1062 q 757 1014 690 1062 q 823 877 823 965 q 759 717 823 787 q 602 623 694 647 l 602 617 q 740 538 691 596 q 788 393 788 479 q 757 240 788 315 q 672 110 726 165 z "},"®":{"ha":1389,"x_min":137,"x_max":1310,"o":"m 1310 444 q 1138 30 1310 201 q 724 -142 966 -142 q 309 30 481 -142 q 137 444 137 201 q 309 859 137 687 q 724 1031 481 1031 q 1138 859 966 1031 q 1310 444 1310 687 m 1232 444 q 1083 805 1232 654 q 724 956 934 956 q 365 805 513 956 q 216 444 216 654 q 365 83 216 234 q 724 -67 513 -67 q 1083 83 934 -67 q 1232 444 1232 234 m 1101 146 l 950 146 l 726 387 l 616 387 l 616 146 l 504 146 l 504 766 l 715 766 q 821 761 779 766 q 902 734 862 756 q 965 679 945 711 q 985 596 985 646 q 946 487 985 530 q 841 417 908 443 l 1101 146 m 863 589 q 853 632 863 613 q 821 663 844 651 q 777 678 800 675 q 717 682 753 682 l 616 682 l 616 472 l 702 472 q 774 478 744 472 q 825 500 805 484 q 854 538 846 517 q 863 589 863 558 z "},"©":{"ha":1389,"x_min":137,"x_max":1310,"o":"m 1310 444 q 1138 30 1310 201 q 724 -142 966 -142 q 309 30 481 -142 q 137 444 137 201 q 309 859 137 687 q 724 1031 481 1031 q 1138 859 966 1031 q 1310 444 1310 687 m 1232 444 q 1083 805 1232 654 q 724 956 934 956 q 365 805 513 956 q 216 444 216 654 q 365 83 216 234 q 724 -67 513 -67 q 1083 83 934 -67 q 1232 444 1232 234 m 962 175 q 849 135 903 149 q 743 122 795 122 q 499 205 589 122 q 410 448 410 289 q 501 688 410 600 q 743 775 592 775 q 861 759 803 775 q 962 724 920 743 l 962 601 l 951 601 q 857 652 914 628 q 739 675 800 675 q 589 617 643 675 q 535 448 535 559 q 587 281 535 340 q 739 222 639 222 q 849 241 795 222 q 951 296 902 261 l 962 296 l 962 175 z "},"™":{"ha":1356,"x_min":201,"x_max":1291,"o":"m 1291 532 l 1206 532 l 1206 951 l 1193 951 l 1032 645 l 979 645 l 817 956 l 800 956 l 800 532 l 716 532 l 716 1010 l 878 1010 l 1007 751 l 1137 1010 l 1291 1010 l 1291 532 m 597 930 l 442 930 l 442 532 l 356 532 l 356 930 l 201 930 l 201 1010 l 597 1010 l 597 930 z "},"´":{"ha":883,"x_min":431,"x_max":778,"o":"m 778 1137 l 537 883 l 431 883 l 604 1137 l 778 1137 z "},"¨":{"ha":883,"x_min":309,"x_max":758,"o":"m 727 884 l 591 884 l 621 1017 l 758 1017 l 727 884 m 446 884 l 309 884 l 340 1017 l 476 1017 l 446 884 z "},"≠":{"ha":1137,"x_min":195,"x_max":1000,"o":"m 1000 245 l 587 245 l 517 18 l 413 18 l 484 245 l 195 245 l 195 351 l 517 351 l 574 533 l 195 533 l 195 639 l 606 639 l 677 866 l 781 866 l 710 639 l 1000 639 l 1000 533 l 677 533 l 621 351 l 1000 351 l 1000 245 z "},"Æ":{"ha":1374,"x_min":-78,"x_max":1442,"o":"m 1209 0 l 568 0 l 656 379 l 307 379 l 68 0 l -78 0 l 571 1010 l 1442 1010 l 1416 895 l 909 895 l 842 610 l 1350 610 l 1324 496 l 817 496 l 728 115 l 1235 115 l 1209 0 m 680 487 l 777 903 l 641 903 l 373 487 l 680 487 z "},"Ø":{"ha":1093,"x_min":54,"x_max":1082,"o":"m 870 828 l 330 137 q 403 101 361 113 q 497 88 445 88 q 668 131 588 88 q 804 250 748 173 q 891 423 861 328 q 920 633 920 519 q 908 743 920 693 q 870 828 895 792 m 280 185 l 821 873 q 745 910 788 898 q 654 922 703 922 q 479 878 557 922 q 344 756 401 833 q 260 584 290 682 q 231 379 231 486 q 243 271 231 321 q 280 185 256 221 m 194 79 q 117 198 144 127 q 90 358 90 269 q 131 615 90 492 q 249 831 172 737 q 433 976 323 922 q 675 1031 544 1031 q 799 1017 742 1031 q 900 975 855 1002 l 993 1093 l 1082 1093 l 956 932 q 1034 814 1008 882 q 1061 652 1061 745 q 1021 399 1061 521 q 906 184 981 277 q 720 34 829 88 q 475 -21 612 -21 q 352 -6 410 -21 q 250 35 294 8 l 144 -99 l 54 -99 l 194 79 z "},"∞":{"ha":1389,"x_min":140,"x_max":1307,"o":"m 1307 450 q 1283 300 1307 365 q 1219 193 1260 235 q 1121 129 1176 149 q 1002 109 1065 109 q 838 160 913 109 q 715 315 763 212 q 589 158 659 208 q 421 109 518 109 q 216 200 292 109 q 140 435 140 292 q 163 583 140 519 q 229 691 186 647 q 325 755 269 734 q 445 777 382 777 q 610 724 534 777 q 732 571 685 672 q 859 725 787 674 q 1026 777 931 777 q 1231 685 1155 777 q 1307 450 1307 593 m 687 494 q 582 614 644 574 q 452 655 519 655 q 304 598 358 655 q 251 435 251 541 q 294 289 251 347 q 420 231 336 231 q 537 263 495 231 q 619 361 580 296 q 657 430 642 398 q 687 494 673 463 m 1196 450 q 1151 599 1196 544 q 1027 654 1106 654 q 924 630 970 654 q 828 524 879 606 q 790 456 806 489 q 760 391 774 422 q 865 271 802 312 q 995 230 928 230 q 1143 286 1090 230 q 1196 450 1196 342 z "},"±":{"ha":1137,"x_min":175,"x_max":1020,"o":"m 1020 121 l 175 121 l 175 229 l 541 229 l 541 515 l 175 515 l 175 622 l 541 622 l 541 991 l 654 991 l 654 622 l 1020 622 l 1020 515 l 654 515 l 654 229 l 1020 229 l 1020 121 z "},"≤":{"ha":1137,"x_min":201,"x_max":984,"o":"m 984 205 l 201 533 l 201 617 l 984 945 l 984 821 l 381 575 l 984 330 l 984 205 m 984 0 l 201 0 l 201 109 l 984 109 l 984 0 z "},"≥":{"ha":1137,"x_min":211,"x_max":994,"o":"m 994 533 l 211 205 l 211 330 l 814 575 l 211 821 l 211 945 l 994 617 l 994 533 m 994 0 l 211 0 l 211 109 l 994 109 l 994 0 z "},"¥":{"ha":883,"x_min":66,"x_max":950,"o":"m 950 1010 l 519 446 l 505 380 l 757 380 l 736 291 l 486 291 l 465 201 l 716 201 l 696 111 l 444 111 l 418 0 l 291 0 l 317 111 l 66 111 l 87 201 l 337 201 l 358 291 l 107 291 l 127 380 l 380 380 l 392 432 l 216 1010 l 353 1010 l 479 563 l 806 1010 l 950 1010 z "},"µ":{"ha":891,"x_min":-24,"x_max":850,"o":"m 675 0 l 553 0 l 565 80 q 472 14 524 41 q 358 -14 420 -14 q 257 12 298 -14 q 187 77 216 39 l 105 -279 l -24 -279 l 216 758 l 345 758 l 213 189 q 278 127 235 151 q 376 102 321 102 q 494 128 441 102 q 591 193 547 153 l 722 758 l 850 758 l 675 0 z "},"∂":{"ha":883,"x_min":90,"x_max":806,"o":"m 777 442 q 727 280 759 363 q 642 129 695 197 q 512 15 581 51 q 355 -22 442 -22 q 163 52 236 -22 q 90 248 90 125 q 194 524 90 411 q 448 636 298 636 q 563 618 509 636 q 665 557 616 601 q 674 626 670 586 q 679 697 679 665 q 632 867 679 811 q 492 923 585 923 q 374 902 439 923 q 248 844 309 881 l 240 844 l 264 971 q 393 1016 324 1002 q 524 1030 462 1030 q 736 949 665 1030 q 806 713 806 867 q 799 591 806 673 q 777 442 791 509 m 650 463 q 563 513 613 495 q 463 531 513 531 q 289 453 353 531 q 225 253 225 374 q 266 127 225 172 q 374 83 306 83 q 522 150 460 83 q 624 348 583 216 q 637 398 631 372 q 650 463 644 425 z "},"∑":{"ha":1010,"x_min":156,"x_max":958,"o":"m 958 -128 l 156 -128 l 156 1 l 612 454 l 163 882 l 163 1010 l 931 1010 l 931 890 l 327 890 l 766 483 l 766 434 l 315 -9 l 958 -9 l 958 -128 z "},"∏":{"ha":1137,"x_min":134,"x_max":1075,"o":"m 1075 892 l 939 892 l 939 -131 l 805 -131 l 805 892 l 404 892 l 404 -131 l 269 -131 l 269 892 l 134 892 l 134 1010 l 1075 1010 l 1075 892 z "},"∫":{"ha":883,"x_min":123,"x_max":821,"o":"m 821 927 l 814 927 q 754 940 793 932 q 693 947 715 947 q 570 905 606 947 q 534 763 534 864 l 534 1 q 464 -213 534 -138 q 265 -287 393 -287 q 193 -283 230 -287 q 123 -273 156 -279 l 123 -152 l 130 -152 q 189 -164 152 -157 q 248 -172 225 -172 q 371 -130 336 -172 q 407 12 407 -89 l 407 774 q 477 987 407 912 q 676 1062 548 1062 q 750 1058 715 1062 q 821 1048 785 1055 l 821 927 z "},"ª":{"ha":758,"x_min":136,"x_max":743,"o":"m 635 376 l 521 376 l 536 439 q 438 385 493 410 q 305 360 384 360 q 183 405 230 360 q 136 522 136 450 q 172 656 136 604 q 273 740 208 709 q 423 782 335 769 q 619 800 511 795 q 623 818 619 800 q 626 850 626 836 q 595 911 626 890 q 486 931 564 931 q 367 914 429 931 q 279 888 305 897 l 270 888 l 295 1000 q 392 1020 328 1008 q 508 1031 456 1031 q 686 992 629 1031 q 743 876 743 954 q 741 844 743 864 q 734 808 739 824 l 635 376 m 559 536 l 597 709 q 477 699 547 706 q 366 679 407 692 q 287 632 317 664 q 256 546 256 600 q 283 486 256 507 q 364 465 310 465 q 469 487 420 465 q 559 536 517 509 z "},"º":{"ha":758,"x_min":134,"x_max":744,"o":"m 382 360 q 199 427 264 360 q 134 612 134 494 q 237 909 134 787 q 497 1031 340 1031 q 677 966 610 1031 q 744 781 744 901 q 643 482 744 604 q 382 360 542 360 m 621 772 q 585 893 621 853 q 481 933 548 933 q 319 844 382 933 q 257 621 257 755 q 294 499 257 541 q 399 458 330 458 q 558 546 496 458 q 621 772 621 635 z "},"Ω":{"ha":1137,"x_min":-7,"x_max":1086,"o":"m 985 0 l 575 0 l 634 259 q 748 323 690 286 q 847 409 806 361 q 917 525 891 460 q 943 680 943 589 q 871 855 943 791 q 673 920 798 920 q 506 886 578 920 q 385 798 433 853 q 311 672 336 743 q 286 526 286 601 q 299 430 286 470 q 338 358 313 389 q 399 302 363 328 q 462 259 434 277 l 403 0 l -7 0 l 19 113 l 315 113 l 338 207 q 194 343 244 262 q 144 526 144 425 q 183 717 144 627 q 295 878 222 807 q 467 989 364 947 q 689 1031 569 1031 q 979 939 873 1031 q 1086 694 1086 846 q 1058 532 1086 609 q 983 393 1031 455 q 874 284 937 333 q 737 202 811 235 l 715 113 l 1010 113 l 985 0 z "},"æ":{"ha":1326,"x_min":35,"x_max":1281,"o":"m 1281 535 q 1276 473 1281 514 q 1259 381 1272 431 l 703 381 q 696 336 699 361 q 693 294 693 311 q 752 140 693 191 q 916 89 812 89 q 1067 118 990 89 q 1198 185 1143 148 l 1206 185 l 1179 46 q 1046 2 1118 22 q 895 -18 974 -18 q 708 18 781 -18 q 597 123 635 54 q 544 83 581 111 q 471 37 507 55 q 365 -4 422 12 q 239 -20 308 -20 q 92 31 149 -20 q 35 165 35 82 q 77 324 35 264 q 196 418 119 384 q 377 462 268 450 q 605 477 486 475 q 614 523 610 506 q 617 559 617 540 q 576 641 617 613 q 439 669 534 669 q 313 651 383 669 q 193 612 243 633 l 184 612 l 210 741 q 321 764 248 751 q 462 777 393 777 q 637 746 574 777 q 726 652 700 714 q 860 743 784 708 q 1020 779 935 779 q 1215 715 1148 779 q 1281 535 1281 651 m 1157 519 q 1116 640 1157 601 q 993 678 1074 678 q 829 623 900 678 q 724 475 758 568 l 1154 475 q 1156 496 1156 485 q 1157 519 1157 507 m 579 380 q 433 373 512 378 q 301 351 355 368 q 207 297 243 334 q 170 195 170 260 q 204 119 170 144 q 308 93 237 93 q 445 124 374 93 q 572 202 516 156 q 569 236 570 218 q 568 270 568 254 q 570 322 568 296 q 579 380 573 348 z "},"ø":{"ha":843,"x_min":7,"x_max":822,"o":"m 627 597 l 254 119 q 303 93 275 102 q 367 83 332 83 q 485 115 432 83 q 576 202 538 146 q 633 328 614 258 q 652 479 652 397 q 646 544 652 514 q 627 597 640 574 m 216 162 l 589 640 q 538 666 567 657 q 477 674 510 674 q 357 642 408 674 q 268 555 307 610 q 211 429 232 503 q 191 279 191 355 q 197 215 191 243 q 216 162 203 186 m 134 60 q 79 151 98 98 q 60 269 60 204 q 91 462 60 370 q 180 627 121 555 q 318 737 236 696 q 497 779 400 779 q 587 767 545 779 q 663 734 629 755 l 747 842 l 822 842 l 709 697 q 764 609 745 660 q 783 490 783 558 q 752 296 783 389 q 664 132 722 202 q 527 19 605 60 q 347 -21 450 -21 q 255 -9 298 -21 q 179 23 213 2 l 82 -100 l 7 -100 l 134 60 z "},"¿":{"ha":758,"x_min":46,"x_max":635,"o":"m 160 436 q 276 520 212 483 q 412 591 340 557 l 445 739 l 566 739 l 519 532 q 399 472 468 508 q 292 405 331 437 q 213 315 238 360 q 188 212 188 270 q 232 122 188 153 q 347 91 275 91 q 483 111 412 91 q 606 161 554 132 l 612 161 l 582 28 q 456 -5 532 10 q 315 -20 380 -20 q 117 36 187 -20 q 46 186 46 93 q 77 327 46 265 q 160 436 108 389 m 497 1010 l 635 1010 l 602 867 l 464 867 l 497 1010 z "},"¡":{"ha":547,"x_min":110,"x_max":488,"o":"m 455 867 l 317 867 l 350 1010 l 488 1010 l 455 867 m 262 0 l 110 0 l 296 732 l 412 732 l 262 0 z "},"¬":{"ha":1137,"x_min":168,"x_max":1013,"o":"m 1013 39 l 897 39 l 897 408 l 168 408 l 168 517 l 1013 517 l 1013 39 z "},"√":{"ha":1137,"x_min":132,"x_max":1365,"o":"m 1365 1213 l 584 -102 l 533 -102 l 292 571 l 132 571 l 132 665 l 398 665 l 597 106 l 1252 1213 l 1365 1213 z "},"ƒ":{"ha":883,"x_min":-33,"x_max":884,"o":"m 504 508 l 427 143 q 314 -67 397 1 q 107 -136 231 -136 q 36 -133 72 -136 q -33 -123 0 -130 l -6 -10 l 1 -10 q 51 -23 24 -18 q 111 -29 78 -29 q 236 14 193 -29 q 300 156 280 56 l 375 508 l 212 508 l 234 597 l 393 597 l 425 751 q 533 956 452 882 q 745 1030 613 1030 q 822 1026 787 1030 q 884 1017 857 1022 l 858 904 l 851 904 q 799 917 831 911 q 741 923 766 923 q 617 884 659 923 q 555 751 576 844 l 521 597 l 754 597 l 732 508 l 504 508 z "},"≈":{"ha":1137,"x_min":194,"x_max":1000,"o":"m 1000 749 q 924 550 986 617 q 755 483 863 483 q 656 508 703 483 q 570 564 608 534 q 490 618 526 600 q 426 637 454 637 q 347 604 375 637 q 299 488 318 572 l 194 488 q 270 677 210 611 q 439 744 331 744 q 536 719 488 744 q 624 663 584 694 q 702 610 667 629 q 768 590 738 590 q 850 627 820 590 q 893 749 880 664 l 1000 749 m 1000 399 q 924 208 983 274 q 755 142 865 142 q 657 167 706 142 q 570 223 608 193 q 500 270 543 244 q 425 296 456 296 q 343 258 372 296 q 300 137 314 221 l 194 137 q 269 335 207 267 q 438 403 331 403 q 537 378 490 403 q 623 321 584 353 q 689 276 647 302 q 768 249 731 249 q 847 282 819 249 q 894 399 876 316 l 1000 399 z "},"∆":{"ha":1008,"x_min":-40,"x_max":901,"o":"m 901 0 l -40 0 l 574 1010 l 753 1010 l 901 0 m 753 109 l 639 892 l 164 109 l 753 109 z "},"«":{"ha":895,"x_min":120,"x_max":863,"o":"m 720 130 l 427 414 l 440 471 l 863 755 l 833 621 l 548 435 l 747 250 l 720 130 m 423 110 l 120 412 l 134 473 l 576 774 l 545 635 l 247 435 l 452 236 l 423 110 z "},"»":{"ha":895,"x_min":61,"x_max":804,"o":"m 791 412 l 348 110 l 380 250 l 677 449 l 472 648 l 501 774 l 804 473 l 791 412 m 484 414 l 61 130 l 92 264 l 376 449 l 177 634 l 205 755 l 498 471 l 484 414 z "},"…":{"ha":1137,"x_min":33,"x_max":964,"o":"m 928 0 l 790 0 l 825 151 l 964 151 l 928 0 m 550 0 l 412 0 l 447 151 l 585 151 l 550 0 m 172 0 l 33 0 l 68 151 l 207 151 l 172 0 z "},"À":{"ha":948,"x_min":-58,"x_max":855,"o":"m 855 0 l 719 0 l 685 284 l 250 284 l 84 0 l -58 0 l 543 1010 l 721 1010 l 855 0 m 670 394 l 607 892 l 314 394 l 670 394 m 738 1136 l 640 1136 l 506 1390 l 666 1390 l 738 1136 z "},"Ã":{"ha":948,"x_min":-58,"x_max":920,"o":"m 855 0 l 719 0 l 685 284 l 250 284 l 84 0 l -58 0 l 543 1010 l 721 1010 l 855 0 m 670 394 l 607 892 l 314 394 l 670 394 m 920 1351 q 845 1194 893 1245 q 724 1143 796 1143 q 661 1156 687 1143 q 611 1195 634 1168 q 568 1238 588 1222 q 524 1253 548 1253 q 472 1225 492 1253 q 438 1141 451 1196 l 353 1141 q 430 1296 377 1244 q 548 1348 483 1348 q 610 1334 582 1348 q 660 1297 638 1321 q 704 1255 684 1270 q 749 1241 725 1241 q 802 1271 780 1241 q 836 1351 825 1300 l 920 1351 z "},"Õ":{"ha":1093,"x_min":91,"x_max":1060,"o":"m 1060 652 q 1020 399 1060 521 q 905 184 981 277 q 720 34 828 88 q 475 -21 611 -21 q 193 78 294 -21 q 91 358 91 176 q 132 616 91 496 q 249 831 172 736 q 434 976 323 922 q 675 1031 544 1031 q 958 933 855 1031 q 1060 652 1060 835 m 803 251 q 889 424 860 328 q 918 633 918 519 q 849 846 918 772 q 654 920 779 920 q 479 876 557 920 q 345 755 401 831 q 262 582 291 681 q 233 379 233 484 q 302 164 233 239 q 497 90 372 90 q 671 134 593 90 q 803 251 749 178 m 966 1351 q 891 1194 940 1245 q 771 1143 843 1143 q 707 1156 734 1143 q 658 1195 681 1168 q 615 1238 635 1222 q 570 1253 595 1253 q 518 1225 539 1253 q 485 1141 498 1196 l 400 1141 q 477 1296 424 1244 q 595 1348 530 1348 q 657 1334 629 1348 q 707 1297 685 1321 q 751 1255 730 1270 q 796 1241 772 1241 q 849 1271 827 1241 q 883 1351 871 1300 l 966 1351 z "},"Œ":{"ha":1486,"x_min":90,"x_max":1554,"o":"m 1320 0 l 600 0 q 372 21 452 0 q 237 81 291 43 q 129 212 168 132 q 90 393 90 292 q 174 706 90 564 q 405 929 257 848 q 565 989 475 968 q 802 1010 656 1010 l 1554 1010 l 1527 895 l 1010 895 l 945 610 l 1461 610 l 1435 496 l 918 496 l 830 115 l 1347 115 l 1320 0 m 694 112 l 876 898 l 772 898 q 612 886 677 898 q 473 836 547 875 q 299 664 366 782 q 231 399 231 547 q 255 272 231 327 q 330 180 279 216 q 455 124 392 136 q 618 112 517 112 l 694 112 z "},"œ":{"ha":1362,"x_min":60,"x_max":1317,"o":"m 1293 368 l 745 368 q 740 326 741 347 q 739 289 739 305 q 796 142 739 195 q 956 89 854 89 q 1102 116 1025 89 q 1236 181 1179 142 l 1244 181 l 1216 46 q 1085 2 1158 22 q 937 -18 1012 -18 q 753 22 825 -18 q 644 136 682 62 q 499 17 576 56 q 337 -21 422 -21 q 132 55 205 -21 q 60 266 60 130 q 90 458 60 366 q 178 624 121 551 q 315 736 233 694 q 492 779 396 779 q 643 741 581 779 q 738 619 704 703 q 881 735 800 691 q 1059 779 962 779 q 1249 717 1181 779 q 1317 536 1317 655 q 1312 471 1317 513 q 1293 368 1306 428 m 1185 461 q 1191 495 1189 480 q 1192 526 1192 510 q 1152 640 1192 602 q 1032 678 1112 678 q 867 620 941 678 q 764 461 793 562 l 1185 461 m 566 206 q 619 333 600 260 q 637 486 637 405 q 594 626 637 579 q 472 673 551 673 q 273 559 352 673 q 193 276 193 446 q 236 134 193 182 q 359 85 279 85 q 478 118 425 85 q 566 206 531 151 z "},"–":{"ha":883,"x_min":106,"x_max":806,"o":"m 782 388 l 106 388 l 131 496 l 806 496 l 782 388 z "},"—":{"ha":1389,"x_min":106,"x_max":1313,"o":"m 1288 388 l 106 388 l 132 496 l 1313 496 l 1288 388 z "},"“":{"ha":637,"x_min":144,"x_max":603,"o":"m 603 676 l 515 676 l 418 1055 l 578 1055 l 603 676 m 329 676 l 241 676 l 144 1055 l 304 1055 l 329 676 z "},"”":{"ha":637,"x_min":170,"x_max":808,"o":"m 808 1055 l 537 676 l 444 676 l 643 1055 l 808 1055 m 534 1055 l 263 676 l 170 676 l 369 1055 l 534 1055 z "},"‘":{"ha":373,"x_min":144,"x_max":332,"o":"m 332 676 l 241 676 l 144 1055 l 307 1055 l 332 676 z "},"’":{"ha":373,"x_min":176,"x_max":544,"o":"m 544 1055 l 273 676 l 176 676 l 376 1055 l 544 1055 z "},"÷":{"ha":1137,"x_min":172,"x_max":1023,"o":"m 678 693 l 517 693 l 517 880 l 678 880 l 678 693 m 1023 388 l 172 388 l 172 496 l 1023 496 l 1023 388 m 678 5 l 517 5 l 517 191 l 678 191 l 678 5 z "},"◊":{"ha":1137,"x_min":146,"x_max":1049,"o":"m 1049 444 l 597 -38 l 146 444 l 597 925 l 1049 444 m 899 444 l 597 767 l 296 444 l 597 120 l 899 444 z "},"ÿ":{"ha":821,"x_min":35,"x_max":857,"o":"m 175 -279 l 35 -279 l 255 44 l 118 758 l 249 758 l 356 194 l 718 758 l 857 758 l 175 -279 m 712 884 l 576 884 l 606 1017 l 743 1017 l 712 884 m 431 884 l 294 884 l 325 1017 l 461 1017 l 431 884 z "},"Ÿ":{"ha":854,"x_min":144,"x_max":992,"o":"m 992 1010 l 509 443 l 406 0 l 271 0 l 370 429 l 144 1010 l 288 1010 l 463 556 l 845 1010 l 992 1010 m 785 1137 l 649 1137 l 680 1270 l 816 1270 l 785 1137 m 504 1137 l 368 1137 l 398 1270 l 534 1270 l 504 1137 z "},"⁄":{"ha":502,"x_min":-136,"x_max":684,"o":"m 684 1010 l -23 0 l -136 0 l 570 1010 l 684 1010 z "},"€":{"ha":883,"x_min":0,"x_max":938,"o":"m 938 953 l 907 801 l 897 801 q 773 890 836 863 q 633 918 711 918 q 490 878 565 918 q 356 767 414 838 q 319 714 336 743 q 287 653 301 685 l 557 653 l 528 573 l 258 573 q 244 508 250 543 q 236 443 238 473 l 478 443 l 448 363 l 235 363 q 305 164 241 235 q 474 93 370 93 q 645 127 560 93 q 797 218 729 161 l 806 218 l 774 62 q 624 4 703 26 q 461 -18 545 -18 q 199 81 308 -18 q 90 363 90 180 l 0 363 l 30 443 l 94 443 q 103 509 97 475 q 117 573 109 543 l 27 573 l 57 653 l 143 653 q 191 748 162 701 q 253 835 219 795 q 443 976 331 924 q 657 1028 555 1028 q 792 1014 728 1028 q 938 953 856 999 z "},"‹":{"ha":631,"x_min":134,"x_max":589,"o":"m 438 117 l 134 412 l 147 473 l 589 768 l 556 626 l 260 435 l 468 245 l 438 117 z "},"›":{"ha":631,"x_min":71,"x_max":526,"o":"m 513 412 l 71 117 l 104 258 l 399 449 l 192 640 l 222 768 l 526 473 l 513 412 z "},"ﬁ":{"ha":868,"x_min":44,"x_max":899,"o":"m 648 937 q 595 949 628 943 q 537 956 563 956 q 413 915 456 956 q 349 783 370 873 l 343 758 l 827 758 l 652 0 l 524 0 l 675 658 l 324 658 l 173 0 l 44 0 l 195 656 l 109 656 l 133 758 l 218 758 l 224 781 q 334 991 256 921 q 541 1062 412 1062 q 618 1058 584 1062 q 681 1048 653 1054 l 654 937 l 648 937 m 868 884 l 726 884 l 756 1017 l 899 1017 l 868 884 z "},"ﬂ":{"ha":869,"x_min":44,"x_max":899,"o":"m 527 0 l 745 946 q 670 956 716 951 q 587 960 625 960 q 426 920 478 960 q 351 786 373 880 l 344 758 l 567 758 l 543 655 l 324 655 l 173 0 l 44 0 l 195 655 l 109 655 l 133 758 l 219 758 l 227 790 q 355 996 258 929 q 593 1062 452 1062 q 685 1058 637 1062 q 770 1050 733 1053 l 899 1055 l 656 0 l 527 0 z "},"‡":{"ha":883,"x_min":119,"x_max":852,"o":"m 748 345 l 475 349 l 418 84 l 329 84 l 393 349 l 119 345 l 139 430 l 412 427 l 477 713 l 203 709 l 223 794 l 496 791 l 553 1055 l 642 1055 l 578 791 l 852 794 l 832 709 l 559 713 l 494 427 l 768 430 l 748 345 z "},"∙":{"ha":505,"x_min":163,"x_max":372,"o":"m 327 347 l 163 347 l 208 538 l 372 538 l 327 347 z "},"‚":{"ha":373,"x_min":-98,"x_max":267,"o":"m 267 192 l -5 -187 l -98 -187 l 101 192 l 267 192 z "},"„":{"ha":637,"x_min":-98,"x_max":538,"o":"m 538 192 l 267 -187 l 176 -187 l 375 192 l 538 192 m 264 192 l -7 -187 l -98 -187 l 101 192 l 264 192 z "},"‰":{"ha":2109,"x_min":128,"x_max":2029,"o":"m 332 430 q 180 480 231 430 q 128 631 128 531 q 213 919 128 808 q 446 1029 298 1029 q 597 978 545 1029 q 648 828 648 926 q 566 544 648 657 q 332 430 483 430 m 490 621 q 519 720 510 667 q 528 829 528 773 q 505 913 528 885 q 428 942 482 942 q 345 913 379 942 q 288 839 310 885 q 258 743 268 798 q 248 631 248 687 q 270 546 248 576 q 349 517 293 517 q 433 545 398 517 q 490 621 469 574 m 1098 -20 q 946 31 998 -20 q 895 181 895 81 q 980 469 895 359 q 1212 579 1065 579 q 1363 528 1312 579 q 1415 378 1415 477 q 1332 94 1415 208 q 1098 -20 1249 -20 m 1256 171 q 1286 270 1277 217 q 1295 380 1295 323 q 1272 464 1295 435 q 1194 492 1249 492 q 1111 464 1145 492 q 1054 389 1076 435 q 1024 293 1034 349 q 1014 181 1014 237 q 1037 97 1014 126 q 1116 67 1059 67 q 1200 96 1164 67 q 1256 171 1235 124 m 1182 1010 l 475 0 l 362 0 l 1069 1010 l 1182 1010 m 1712 -20 q 1560 31 1612 -20 q 1509 181 1509 81 q 1594 469 1509 359 q 1826 579 1679 579 q 1978 528 1926 579 q 2029 378 2029 477 q 1946 94 2029 208 q 1712 -20 1864 -20 m 1870 171 q 1900 270 1891 217 q 1909 380 1909 323 q 1886 464 1909 435 q 1809 492 1863 492 q 1725 464 1760 492 q 1668 389 1691 435 q 1638 293 1649 349 q 1628 181 1628 237 q 1651 97 1628 126 q 1730 67 1674 67 q 1814 96 1779 67 q 1870 171 1849 124 z "},"Â":{"ha":948,"x_min":-58,"x_max":857,"o":"m 855 0 l 719 0 l 685 284 l 250 284 l 84 0 l -58 0 l 543 1010 l 721 1010 l 855 0 m 670 394 l 607 892 l 314 394 l 670 394 m 857 1133 l 754 1133 l 666 1309 l 503 1133 l 393 1133 l 604 1390 l 758 1390 l 857 1133 z "},"Ê":{"ha":878,"x_min":48,"x_max":946,"o":"m 946 1010 l 920 895 l 389 895 l 323 610 l 854 610 l 828 496 l 297 496 l 209 115 l 740 115 l 713 0 l 48 0 l 281 1010 l 946 1010 m 864 1133 l 761 1133 l 673 1309 l 509 1133 l 399 1133 l 610 1390 l 765 1390 l 864 1133 z "},"Á":{"ha":948,"x_min":-58,"x_max":855,"o":"m 855 0 l 719 0 l 685 284 l 250 284 l 84 0 l -58 0 l 543 1010 l 721 1010 l 855 0 m 670 394 l 607 892 l 314 394 l 670 394 m 847 1390 l 606 1136 l 500 1136 l 673 1390 l 847 1390 z "},"Ë":{"ha":878,"x_min":48,"x_max":946,"o":"m 946 1010 l 920 895 l 389 895 l 323 610 l 854 610 l 828 496 l 297 496 l 209 115 l 740 115 l 713 0 l 48 0 l 281 1010 l 946 1010 m 842 1137 l 705 1137 l 736 1270 l 872 1270 l 842 1137 m 560 1137 l 424 1137 l 454 1270 l 591 1270 l 560 1137 z "},"È":{"ha":878,"x_min":48,"x_max":946,"o":"m 946 1010 l 920 895 l 389 895 l 323 610 l 854 610 l 828 496 l 297 496 l 209 115 l 740 115 l 713 0 l 48 0 l 281 1010 l 946 1010 m 719 1136 l 621 1136 l 487 1390 l 647 1390 l 719 1136 z "},"Í":{"ha":585,"x_min":5,"x_max":696,"o":"m 405 0 l 5 0 l 27 98 l 159 98 l 348 911 l 216 911 l 238 1010 l 638 1010 l 616 911 l 484 911 l 295 98 l 427 98 l 405 0 m 696 1390 l 455 1136 l 349 1136 l 522 1390 l 696 1390 z "},"Î":{"ha":585,"x_min":5,"x_max":688,"o":"m 405 0 l 5 0 l 27 98 l 159 98 l 348 911 l 216 911 l 238 1010 l 638 1010 l 616 911 l 484 911 l 295 98 l 427 98 l 405 0 m 688 1133 l 585 1133 l 496 1309 l 333 1133 l 223 1133 l 434 1390 l 589 1390 l 688 1133 z "},"Ï":{"ha":585,"x_min":5,"x_max":709,"o":"m 405 0 l 5 0 l 27 98 l 159 98 l 348 911 l 216 911 l 238 1010 l 638 1010 l 616 911 l 484 911 l 295 98 l 427 98 l 405 0 m 679 1137 l 543 1137 l 573 1270 l 709 1270 l 679 1137 m 397 1137 l 261 1137 l 292 1270 l 428 1270 l 397 1137 z "},"Ì":{"ha":585,"x_min":5,"x_max":638,"o":"m 405 0 l 5 0 l 27 98 l 159 98 l 348 911 l 216 911 l 238 1010 l 638 1010 l 616 911 l 484 911 l 295 98 l 427 98 l 405 0 m 593 1136 l 494 1136 l 361 1390 l 521 1390 l 593 1136 z "},"Ó":{"ha":1093,"x_min":91,"x_max":1060,"o":"m 1060 652 q 1020 399 1060 521 q 905 184 981 277 q 720 34 828 88 q 475 -21 611 -21 q 193 78 294 -21 q 91 358 91 176 q 132 616 91 496 q 249 831 172 736 q 434 976 323 922 q 675 1031 544 1031 q 958 933 855 1031 q 1060 652 1060 835 m 803 251 q 889 424 860 328 q 918 633 918 519 q 849 846 918 772 q 654 920 779 920 q 479 876 557 920 q 345 755 401 831 q 262 582 291 681 q 233 379 233 484 q 302 164 233 239 q 497 90 372 90 q 671 134 593 90 q 803 251 749 178 m 916 1390 l 675 1136 l 570 1136 l 742 1390 l 916 1390 z "},"Ô":{"ha":1093,"x_min":91,"x_max":1060,"o":"m 1060 652 q 1020 399 1060 521 q 905 184 981 277 q 720 34 828 88 q 475 -21 611 -21 q 193 78 294 -21 q 91 358 91 176 q 132 616 91 496 q 249 831 172 736 q 434 976 323 922 q 675 1031 544 1031 q 958 933 855 1031 q 1060 652 1060 835 m 803 251 q 889 424 860 328 q 918 633 918 519 q 849 846 918 772 q 654 920 779 920 q 479 876 557 920 q 345 755 401 831 q 262 582 291 681 q 233 379 233 484 q 302 164 233 239 q 497 90 372 90 q 671 134 593 90 q 803 251 749 178 m 903 1133 l 800 1133 l 712 1309 l 549 1133 l 439 1133 l 650 1390 l 804 1390 l 903 1133 z "},"Ò":{"ha":1093,"x_min":91,"x_max":1060,"o":"m 1060 652 q 1020 399 1060 521 q 905 184 981 277 q 720 34 828 88 q 475 -21 611 -21 q 193 78 294 -21 q 91 358 91 176 q 132 616 91 496 q 249 831 172 736 q 434 976 323 922 q 675 1031 544 1031 q 958 933 855 1031 q 1060 652 1060 835 m 803 251 q 889 424 860 328 q 918 633 918 519 q 849 846 918 772 q 654 920 779 920 q 479 876 557 920 q 345 755 401 831 q 262 582 291 681 q 233 379 233 484 q 302 164 233 239 q 497 90 372 90 q 671 134 593 90 q 803 251 749 178 m 758 1136 l 659 1136 l 526 1390 l 686 1390 l 758 1136 z "},"Ú":{"ha":1017,"x_min":105,"x_max":1042,"o":"m 902 406 q 835 213 876 292 q 727 78 794 133 q 592 3 665 28 q 420 -21 519 -21 q 183 51 261 -21 q 105 250 105 123 q 111 329 105 292 q 125 406 117 366 l 265 1010 l 401 1010 l 260 399 q 247 327 252 367 q 241 265 241 288 q 292 135 241 180 q 444 90 343 90 q 572 112 517 90 q 667 179 627 134 q 726 272 704 221 q 764 395 748 323 l 906 1010 l 1042 1010 l 902 406 m 893 1390 l 652 1136 l 547 1136 l 719 1390 l 893 1390 z "},"Û":{"ha":1017,"x_min":105,"x_max":1042,"o":"m 902 406 q 835 213 876 292 q 727 78 794 133 q 592 3 665 28 q 420 -21 519 -21 q 183 51 261 -21 q 105 250 105 123 q 111 329 105 292 q 125 406 117 366 l 265 1010 l 401 1010 l 260 399 q 247 327 252 367 q 241 265 241 288 q 292 135 241 180 q 444 90 343 90 q 572 112 517 90 q 667 179 627 134 q 726 272 704 221 q 764 395 748 323 l 906 1010 l 1042 1010 l 902 406 m 894 1133 l 791 1133 l 703 1309 l 539 1133 l 429 1133 l 640 1390 l 795 1390 l 894 1133 z "},"Ù":{"ha":1017,"x_min":105,"x_max":1042,"o":"m 902 406 q 835 213 876 292 q 727 78 794 133 q 592 3 665 28 q 420 -21 519 -21 q 183 51 261 -21 q 105 250 105 123 q 111 329 105 292 q 125 406 117 366 l 265 1010 l 401 1010 l 260 399 q 247 327 252 367 q 241 265 241 288 q 292 135 241 180 q 444 90 343 90 q 572 112 517 90 q 667 179 627 134 q 726 272 704 221 q 764 395 748 323 l 906 1010 l 1042 1010 l 902 406 m 758 1136 l 660 1136 l 526 1390 l 686 1390 l 758 1136 z "},"ı":{"ha":381,"x_min":39,"x_max":342,"o":"m 342 758 l 168 0 l 39 0 l 214 758 l 342 758 z "},"ˆ":{"ha":883,"x_min":291,"x_max":755,"o":"m 755 880 l 652 880 l 564 1056 l 401 880 l 291 880 l 502 1137 l 656 1137 l 755 880 z "},"˜":{"ha":883,"x_min":245,"x_max":811,"o":"m 811 1098 q 736 941 785 992 q 616 890 688 890 q 552 903 578 890 q 503 942 526 915 q 459 985 479 969 q 415 1000 439 1000 q 363 972 384 1000 q 330 888 342 943 l 245 888 q 321 1043 269 991 q 439 1095 374 1095 q 502 1081 473 1095 q 551 1044 530 1068 q 596 1002 575 1017 q 641 988 616 988 q 694 1018 671 988 q 728 1098 716 1047 l 811 1098 z "},"ˉ":{"ha":883,"x_min":232,"x_max":832,"o":"m 808 907 l 232 907 l 256 1010 l 832 1010 l 808 907 z "},"˘":{"ha":883,"x_min":304,"x_max":817,"o":"m 817 1137 q 704 946 785 1015 q 513 878 623 878 q 359 932 414 878 q 304 1088 304 987 q 306 1112 304 1101 q 308 1137 307 1122 l 420 1137 q 419 1114 419 1124 q 418 1096 418 1103 q 447 997 418 1028 q 530 966 475 966 q 633 1004 587 966 q 705 1137 680 1042 l 817 1137 z "},"˙":{"ha":883,"x_min":446,"x_max":621,"o":"m 591 884 l 446 884 l 476 1017 l 621 1017 l 591 884 z "},"˚":{"ha":883,"x_min":292,"x_max":774,"o":"m 494 755 q 350 810 407 755 q 292 948 292 865 q 377 1136 292 1056 q 572 1216 462 1216 q 717 1162 660 1216 q 774 1028 774 1108 q 691 837 774 920 q 494 755 608 755 m 675 1012 q 643 1094 675 1061 q 557 1128 610 1128 q 442 1079 492 1128 q 392 963 393 1029 q 424 879 392 913 q 509 844 456 844 q 625 895 574 844 q 675 1012 675 946 z "},"¸":{"ha":883,"x_min":114,"x_max":522,"o":"m 522 14 q 449 -207 522 -126 q 246 -287 376 -287 q 180 -281 217 -287 q 114 -267 142 -275 l 136 -166 l 142 -166 q 187 -182 159 -173 q 249 -191 215 -191 q 373 -144 336 -191 q 411 14 411 -98 l 522 14 z "},"˝":{"ha":883,"x_min":282,"x_max":874,"o":"m 874 1137 l 650 883 l 556 883 l 720 1137 l 874 1137 m 600 1137 l 376 883 l 282 883 l 446 1137 l 600 1137 z "},"˛":{"ha":883,"x_min":286,"x_max":599,"o":"m 579 -265 q 515 -279 541 -275 q 460 -283 489 -283 q 332 -242 378 -283 q 286 -129 286 -202 q 297 -55 286 -89 q 321 7 309 -21 l 426 7 q 408 -51 416 -15 q 399 -106 399 -87 q 424 -166 399 -146 q 498 -186 448 -186 q 548 -178 520 -186 q 593 -162 576 -170 l 599 -162 l 579 -265 z "},"ˇ":{"ha":883,"x_min":342,"x_max":807,"o":"m 807 1137 l 593 880 l 438 880 l 342 1137 l 452 1137 l 536 963 l 701 1137 l 807 1137 z "},"Ł":{"ha":773,"x_min":-18,"x_max":713,"o":"m 158 476 l 281 1010 l 416 1010 l 315 575 l 597 767 l 570 652 l 289 462 l 209 115 l 713 115 l 687 0 l 48 0 l 132 363 l -18 260 l 9 375 l 158 476 z "},"ł":{"ha":381,"x_min":-4,"x_max":454,"o":"m 159 517 l 283 1055 l 411 1055 l 308 610 l 454 711 l 429 604 l 283 505 l 167 0 l 39 0 l 134 412 l -4 317 l 20 425 l 159 517 z "},"Š":{"ha":949,"x_min":35,"x_max":947,"o":"m 397 -18 q 210 2 298 -18 q 35 66 121 23 l 68 220 l 77 220 q 237 125 142 158 q 420 92 332 92 q 641 150 564 92 q 718 296 718 207 q 691 374 718 342 q 610 420 663 405 q 506 443 566 432 q 390 467 445 454 q 225 549 283 491 q 167 692 167 606 q 289 932 167 836 q 606 1028 412 1028 q 798 1006 711 1028 q 947 954 884 984 l 916 810 l 907 810 q 769 886 859 854 q 582 918 680 918 q 385 863 458 918 q 311 726 311 809 q 338 647 311 681 q 432 596 364 613 q 547 571 475 586 q 668 544 619 557 q 814 465 764 517 q 864 334 864 413 q 831 201 864 267 q 741 89 799 136 q 594 10 678 39 q 397 -18 511 -18 m 887 1390 l 673 1133 l 518 1133 l 422 1390 l 532 1390 l 616 1216 l 781 1390 l 887 1390 z "},"š":{"ha":724,"x_min":12,"x_max":747,"o":"m 275 -18 q 123 3 190 -18 q 12 48 56 24 l 40 184 l 47 184 q 84 156 61 172 q 142 123 106 139 q 215 96 174 107 q 302 85 256 85 q 452 120 398 85 q 507 224 507 155 q 479 279 507 260 q 399 311 451 298 q 335 324 372 317 q 260 342 298 332 q 143 407 181 364 q 105 510 105 449 q 128 609 105 563 q 197 694 151 655 q 307 753 240 730 q 456 776 374 776 q 592 759 524 776 q 702 717 659 742 l 675 587 l 668 587 q 635 610 657 595 q 579 641 613 625 q 511 663 550 654 q 430 673 472 673 q 292 637 345 673 q 239 540 239 602 q 265 483 239 506 q 344 448 291 460 q 413 432 377 439 q 484 417 450 425 q 602 356 562 397 q 642 252 642 315 q 617 150 642 200 q 545 64 592 100 q 429 3 497 25 q 275 -18 360 -18 m 747 1137 l 534 880 l 378 880 l 283 1137 l 392 1137 l 477 963 l 641 1137 l 747 1137 z "},"Ž":{"ha":951,"x_min":1,"x_max":1001,"o":"m 789 0 l 1 0 l 29 123 l 811 895 l 219 895 l 245 1010 l 1001 1010 l 974 893 l 185 115 l 816 115 l 789 0 m 909 1390 l 695 1133 l 540 1133 l 444 1390 l 553 1390 l 638 1216 l 802 1390 l 909 1390 z "},"ž":{"ha":730,"x_min":-21,"x_max":747,"o":"m 591 0 l -21 0 l 1 94 l 564 656 l 130 656 l 154 758 l 747 758 l 726 667 l 161 102 l 614 102 l 591 0 m 743 1137 l 530 880 l 374 880 l 279 1137 l 388 1137 l 473 963 l 637 1137 l 743 1137 z "},"¦":{"ha":631,"x_min":286,"x_max":404,"o":"m 404 514 l 286 514 l 286 1055 l 404 1055 l 404 514 m 404 -266 l 286 -266 l 286 275 l 404 275 l 404 -266 z "},"Ð":{"ha":1063,"x_min":39,"x_max":1030,"o":"m 1030 623 q 946 309 1030 457 q 716 81 862 161 q 533 16 627 33 q 321 0 439 0 l 48 0 l 165 505 l 39 505 l 60 596 l 186 596 l 281 1010 l 516 1010 q 716 995 626 1010 q 882 929 807 979 q 992 803 954 881 q 1030 623 1030 726 m 888 611 q 861 744 888 688 q 778 838 833 800 q 661 887 723 874 q 503 899 598 899 l 391 899 l 320 596 l 565 596 l 544 505 l 299 505 l 208 111 l 348 111 q 521 126 445 111 q 665 181 597 142 q 831 361 774 243 q 888 611 888 479 z "},"ð":{"ha":850,"x_min":60,"x_max":796,"o":"m 679 146 q 540 24 621 68 q 356 -21 459 -21 q 139 53 219 -21 q 60 252 60 127 q 172 545 60 430 q 444 661 283 661 q 569 641 514 661 q 673 584 623 621 q 635 739 669 667 q 551 862 601 812 l 352 751 l 318 816 l 496 914 q 405 985 447 960 q 307 1044 363 1011 l 307 1055 l 498 1055 q 543 1019 520 1038 q 597 975 566 1000 l 756 1064 l 790 998 l 648 922 q 766 729 736 819 q 796 543 796 640 q 766 325 796 428 q 679 146 736 222 m 588 211 q 642 340 623 271 q 666 487 661 410 q 564 536 623 519 q 448 552 505 552 q 261 471 328 552 q 193 264 193 391 q 244 131 193 177 q 376 84 294 84 q 502 120 448 84 q 588 211 555 155 z "},"Ý":{"ha":854,"x_min":144,"x_max":992,"o":"m 992 1010 l 509 443 l 406 0 l 271 0 l 370 429 l 144 1010 l 288 1010 l 463 556 l 845 1010 l 992 1010 m 812 1390 l 571 1136 l 465 1136 l 637 1390 l 812 1390 z "},"ý":{"ha":821,"x_min":35,"x_max":857,"o":"m 175 -279 l 35 -279 l 255 44 l 118 758 l 249 758 l 356 194 l 718 758 l 857 758 l 175 -279 m 762 1137 l 521 883 l 415 883 l 587 1137 l 762 1137 z "},"Þ":{"ha":841,"x_min":47,"x_max":838,"o":"m 504 827 q 654 812 595 827 q 755 766 713 798 q 817 695 795 737 q 838 594 838 653 q 803 444 838 517 q 704 319 768 370 q 565 244 642 270 q 379 218 488 218 l 234 218 l 183 0 l 47 0 l 281 1010 l 416 1010 l 374 827 l 504 827 m 694 572 q 683 633 694 606 q 646 678 671 660 q 575 708 618 700 q 474 716 533 716 l 349 716 l 259 329 l 378 329 q 513 342 459 329 q 606 387 566 356 q 673 470 652 424 q 694 572 694 515 z "},"þ":{"ha":865,"x_min":-26,"x_max":808,"o":"m 808 518 q 773 307 808 406 q 680 138 738 208 q 545 26 622 67 q 380 -15 467 -15 q 268 -1 319 -15 q 174 39 216 13 l 101 -279 l -26 -279 l 281 1055 l 409 1055 l 322 678 q 446 750 385 722 q 581 779 507 779 q 750 710 692 779 q 808 518 808 642 m 674 494 q 639 618 674 574 q 526 662 604 662 q 410 634 470 662 q 297 571 349 606 l 198 142 q 282 106 242 118 q 379 95 322 95 q 505 129 449 95 q 597 217 561 163 q 655 344 636 274 q 674 494 674 414 z "},"−":{"ha":1137,"x_min":178,"x_max":1017,"o":"m 1017 388 l 178 388 l 178 496 l 1017 496 l 1017 388 z "},"×":{"ha":1137,"x_min":227,"x_max":968,"o":"m 968 146 l 893 71 l 597 370 l 302 71 l 227 146 l 525 442 l 227 738 l 302 813 l 597 515 l 893 813 l 968 738 l 670 442 l 968 146 z "},"¹":{"ha":753,"x_min":195,"x_max":632,"o":"m 614 384 l 195 384 l 214 464 l 370 464 l 460 854 l 296 854 l 313 928 q 453 949 405 928 q 514 1013 500 971 l 607 1013 l 480 464 l 632 464 l 614 384 z "},"²":{"ha":753,"x_min":155,"x_max":701,"o":"m 646 384 l 155 384 l 178 490 q 307 567 242 527 q 408 634 372 608 q 543 752 511 709 q 574 850 574 795 q 545 911 574 889 q 464 932 515 932 q 351 913 407 932 q 259 871 295 893 l 250 871 l 273 987 q 380 1018 323 1005 q 496 1030 437 1030 q 647 987 593 1030 q 701 873 701 944 q 658 737 701 801 q 523 607 615 673 q 422 542 479 576 q 315 479 366 508 l 667 479 l 646 384 z "},"³":{"ha":753,"x_min":146,"x_max":707,"o":"m 571 412 q 474 372 530 387 q 357 357 418 357 q 244 369 296 357 q 146 400 192 381 l 173 515 l 182 515 q 259 470 205 490 q 375 450 313 450 q 497 482 448 450 q 547 576 547 513 q 512 636 547 618 q 414 653 477 653 l 328 653 l 349 745 l 425 745 q 546 780 505 745 q 587 863 587 814 q 558 918 587 897 q 471 939 530 939 q 355 918 420 939 q 258 872 290 897 l 248 872 l 273 989 q 382 1019 325 1007 q 498 1031 440 1031 q 655 991 602 1031 q 707 893 707 951 q 664 778 707 826 q 546 709 621 730 l 546 704 q 631 664 595 694 q 666 583 666 634 q 640 482 666 525 q 571 412 614 439 z "},"½":{"ha":1389,"x_min":214,"x_max":1330,"o":"m 362 383 l 249 383 l 356 848 l 214 848 l 232 924 q 348 939 302 924 q 413 1013 393 954 l 507 1013 l 362 383 m 1069 1010 l 362 0 l 249 0 l 956 1010 l 1069 1010 m 1275 -1 l 784 -1 l 807 104 q 936 182 871 142 q 1038 249 1001 222 q 1172 367 1141 323 q 1204 465 1204 410 q 1174 526 1204 504 q 1093 547 1145 547 q 980 528 1036 547 q 888 486 924 508 l 880 486 l 902 602 q 1009 632 953 620 q 1125 645 1066 645 q 1276 602 1223 645 q 1330 488 1330 559 q 1287 352 1330 416 q 1152 222 1244 288 q 1052 157 1108 191 q 945 94 996 123 l 1296 94 l 1275 -1 z "},"¼":{"ha":1389,"x_min":208,"x_max":1235,"o":"m 355 383 l 242 383 l 349 848 l 208 848 l 225 924 q 341 939 296 924 q 406 1013 387 954 l 500 1013 l 355 383 m 1063 1010 l 357 0 l 243 0 l 950 1010 l 1063 1010 m 1215 151 l 1104 151 l 1069 0 l 966 0 l 1001 151 l 676 151 l 705 275 l 1116 644 l 1218 644 l 1124 238 l 1235 238 l 1215 151 m 1024 238 l 1087 511 l 777 238 l 1024 238 z "},"¾":{"ha":1389,"x_min":73,"x_max":1308,"o":"m 497 412 q 400 372 456 387 q 283 357 345 357 q 170 369 222 357 q 73 400 118 381 l 99 515 l 108 515 q 185 470 131 490 q 301 450 239 450 q 423 482 374 450 q 473 576 473 513 q 438 636 473 618 q 340 653 404 653 l 254 653 l 275 745 l 351 745 q 472 780 431 745 q 513 863 513 814 q 484 918 513 897 q 397 939 456 939 q 281 918 346 939 q 184 872 216 897 l 174 872 l 199 989 q 309 1019 251 1007 q 425 1031 366 1031 q 581 991 528 1031 q 633 893 633 951 q 590 778 633 826 q 472 709 547 730 l 472 704 q 557 664 522 694 q 592 583 592 634 q 566 482 592 525 q 497 412 540 439 m 1152 1010 l 446 0 l 332 0 l 1039 1010 l 1152 1010 m 1287 151 l 1177 151 l 1142 0 l 1039 0 l 1074 151 l 749 151 l 777 275 l 1188 644 l 1291 644 l 1197 238 l 1308 238 l 1287 151 m 1097 238 l 1160 511 l 849 238 l 1097 238 z "},"₣":{"ha":883,"x_min":2,"x_max":919,"o":"m 893 899 l 413 899 l 345 602 l 787 602 l 761 491 l 319 491 l 275 303 l 500 303 l 479 212 l 254 212 l 205 0 l 77 0 l 125 212 l 2 212 l 23 303 l 146 303 l 310 1010 l 919 1010 l 893 899 z "},"Ğ":{"ha":1077,"x_min":90,"x_max":1082,"o":"m 534 -20 q 208 83 325 -20 q 90 376 90 186 q 133 635 90 516 q 258 842 176 753 q 458 979 340 929 q 724 1028 576 1028 q 902 1007 813 1028 q 1082 937 990 985 l 1052 784 l 1040 784 q 876 886 964 854 q 686 918 787 918 q 490 873 574 918 q 348 756 406 829 q 263 589 292 684 q 234 396 234 493 q 314 171 234 250 q 549 92 393 92 q 678 104 618 92 q 791 136 738 117 l 848 395 l 578 395 l 604 508 l 1008 508 l 908 75 q 827 42 863 56 q 737 12 791 27 q 641 -11 690 -2 q 534 -20 591 -20 m 1039 1390 q 926 1199 1007 1268 q 735 1131 844 1131 q 581 1185 636 1131 q 526 1341 526 1240 q 527 1365 526 1354 q 530 1390 528 1375 l 642 1390 q 641 1367 641 1377 q 640 1349 640 1356 q 669 1250 640 1281 q 751 1219 697 1219 q 855 1257 809 1219 q 927 1390 901 1295 l 1039 1390 z "},"ğ":{"ha":863,"x_min":14,"x_max":825,"o":"m 825 758 l 671 84 q 525 -198 627 -109 q 241 -287 422 -287 q 123 -278 182 -287 q 14 -254 64 -269 l 43 -127 l 50 -127 q 153 -160 88 -144 q 274 -176 217 -176 q 384 -159 338 -176 q 458 -114 429 -142 q 504 -48 486 -85 q 532 37 522 -10 l 548 103 q 427 34 479 57 q 294 12 375 12 q 121 79 183 12 q 58 269 58 146 q 91 460 58 368 q 180 625 123 553 q 316 736 237 694 q 485 779 395 779 q 601 764 550 779 q 690 725 652 749 l 706 758 l 825 758 m 667 621 q 577 656 623 644 q 485 669 532 669 q 364 638 418 669 q 270 555 309 608 q 212 434 233 505 q 191 292 191 363 q 228 169 191 212 q 345 125 264 125 q 459 149 401 125 q 572 208 517 172 l 667 621 m 819 1137 q 705 946 787 1015 q 515 878 624 878 q 361 932 416 878 q 306 1088 306 987 q 307 1112 306 1101 q 309 1137 308 1122 l 422 1137 q 420 1114 420 1124 q 420 1096 420 1103 q 448 997 420 1028 q 531 966 477 966 q 635 1004 589 966 q 707 1137 681 1042 l 819 1137 z "},"İ":{"ha":585,"x_min":5,"x_max":638,"o":"m 405 0 l 5 0 l 27 98 l 159 98 l 348 911 l 216 911 l 238 1010 l 638 1010 l 616 911 l 484 911 l 295 98 l 427 98 l 405 0 m 523 1137 l 378 1137 l 408 1270 l 553 1270 l 523 1137 z "},"Ş":{"ha":949,"x_min":35,"x_max":947,"o":"m 397 -18 q 210 2 298 -18 q 35 66 121 23 l 68 220 l 77 220 q 237 125 142 158 q 420 92 332 92 q 641 150 564 92 q 718 296 718 207 q 691 374 718 342 q 610 420 663 405 q 506 443 566 432 q 390 467 445 454 q 225 549 283 491 q 167 692 167 606 q 289 932 167 836 q 606 1028 412 1028 q 798 1006 711 1028 q 947 954 884 984 l 916 810 l 907 810 q 769 886 859 854 q 582 918 680 918 q 385 863 458 918 q 311 726 311 809 q 338 647 311 681 q 432 596 364 613 q 547 571 475 586 q 668 544 619 557 q 814 465 764 517 q 864 334 864 413 q 831 201 864 267 q 741 89 799 136 q 652 33 701 58 q 545 -3 602 9 q 471 -207 545 -126 q 275 -287 396 -287 q 208 -281 245 -287 q 142 -267 171 -275 l 165 -166 l 171 -166 q 215 -182 187 -173 q 277 -191 243 -191 q 401 -147 362 -191 q 441 -17 439 -103 q 419 -18 431 -17 q 397 -18 408 -18 z "},"ş":{"ha":724,"x_min":12,"x_max":702,"o":"m 275 -18 q 123 3 190 -18 q 12 48 56 24 l 40 184 l 47 184 q 84 156 61 172 q 142 123 106 139 q 215 96 174 107 q 302 85 256 85 q 452 120 398 85 q 507 224 507 155 q 479 279 507 260 q 399 311 451 298 q 335 324 372 317 q 260 342 298 332 q 143 407 181 364 q 105 510 105 449 q 128 609 105 563 q 197 694 151 655 q 307 753 240 730 q 456 776 374 776 q 592 759 524 776 q 702 717 659 742 l 675 587 l 668 587 q 635 610 657 595 q 579 641 613 625 q 511 663 550 654 q 430 673 472 673 q 292 637 345 673 q 239 540 239 602 q 265 483 239 506 q 344 448 291 460 q 413 432 377 439 q 484 417 450 425 q 602 356 562 397 q 642 252 642 315 q 617 150 642 200 q 545 64 592 100 q 496 32 523 46 q 438 7 469 18 q 363 -206 438 -125 q 167 -287 288 -287 q 100 -281 138 -287 q 35 -267 63 -275 l 57 -166 l 63 -166 q 107 -182 79 -173 q 170 -191 136 -191 q 293 -146 254 -191 q 334 -15 332 -101 q 304 -17 319 -16 q 275 -18 290 -18 z "},"Ć":{"ha":970,"x_min":90,"x_max":1025,"o":"m 500 -18 q 199 81 309 -18 q 90 363 90 180 q 132 623 90 503 q 253 835 174 744 q 445 976 331 924 q 699 1028 559 1028 q 865 1007 787 1028 q 1025 939 943 985 l 994 787 l 984 787 q 939 829 962 810 q 871 871 916 848 q 782 904 833 891 q 668 918 730 918 q 494 878 573 918 q 356 767 414 838 q 267 599 299 698 q 234 388 234 500 q 307 171 234 248 q 516 93 379 93 q 638 107 581 93 q 744 144 696 122 q 823 189 788 165 q 884 231 859 212 l 893 231 l 861 75 q 697 11 790 39 q 500 -18 605 -18 m 936 1390 l 695 1136 l 589 1136 l 762 1390 l 936 1390 z "},"ć":{"ha":724,"x_min":59,"x_max":748,"o":"m 366 -17 q 239 0 294 -17 q 142 54 184 17 q 81 142 102 89 q 59 267 59 196 q 92 466 59 374 q 186 628 125 558 q 332 735 245 696 q 519 775 419 775 q 645 757 586 775 q 748 713 703 739 l 720 576 l 713 576 q 679 604 699 588 q 631 635 659 621 q 569 660 603 650 q 492 669 535 669 q 277 558 360 669 q 194 288 194 447 q 243 140 194 192 q 383 89 292 89 q 469 101 426 89 q 541 127 511 113 q 603 161 574 143 q 644 187 631 178 l 652 187 l 625 48 q 500 2 566 22 q 366 -17 434 -17 m 748 1137 l 507 883 l 401 883 l 574 1137 l 748 1137 z "},"Č":{"ha":970,"x_min":90,"x_max":1025,"o":"m 500 -18 q 199 81 309 -18 q 90 363 90 180 q 132 623 90 503 q 253 835 174 744 q 445 976 331 924 q 699 1028 559 1028 q 865 1007 787 1028 q 1025 939 943 985 l 994 787 l 984 787 q 939 829 962 810 q 871 871 916 848 q 782 904 833 891 q 668 918 730 918 q 494 878 573 918 q 356 767 414 838 q 267 599 299 698 q 234 388 234 500 q 307 171 234 248 q 516 93 379 93 q 638 107 581 93 q 744 144 696 122 q 823 189 788 165 q 884 231 859 212 l 893 231 l 861 75 q 697 11 790 39 q 500 -18 605 -18 m 981 1390 l 768 1133 l 612 1133 l 517 1390 l 626 1390 l 711 1216 l 875 1390 l 981 1390 z "},"č":{"ha":724,"x_min":59,"x_max":784,"o":"m 366 -17 q 239 0 294 -17 q 142 54 184 17 q 81 142 102 89 q 59 267 59 196 q 92 466 59 374 q 186 628 125 558 q 332 735 245 696 q 519 775 419 775 q 645 757 586 775 q 748 713 703 739 l 720 576 l 713 576 q 679 604 699 588 q 631 635 659 621 q 569 660 603 650 q 492 669 535 669 q 277 558 360 669 q 194 288 194 447 q 243 140 194 192 q 383 89 292 89 q 469 101 426 89 q 541 127 511 113 q 603 161 574 143 q 644 187 631 178 l 652 187 l 625 48 q 500 2 566 22 q 366 -17 434 -17 m 784 1137 l 570 880 l 415 880 l 319 1137 l 429 1137 l 513 963 l 677 1137 l 784 1137 z "},"đ":{"ha":865,"x_min":58,"x_max":996,"o":"m 852 863 l 652 0 l 525 0 l 543 79 q 405 0 457 20 q 290 -21 352 -21 q 120 47 183 -21 q 58 244 58 115 q 92 451 58 353 q 184 621 125 548 q 320 736 241 694 q 487 779 399 779 q 598 766 547 779 q 693 727 649 753 l 724 863 l 477 863 l 498 951 l 745 951 l 769 1055 l 897 1055 l 873 951 l 996 951 l 976 863 l 852 863 m 669 621 q 579 656 623 645 q 486 667 536 667 q 360 633 416 667 q 266 541 305 600 q 211 412 230 487 q 191 266 191 336 q 227 139 191 183 q 342 96 262 96 q 459 124 399 96 q 568 186 518 153 l 669 621 z "},"¯":{"ha":883,"x_min":172,"x_max":1079,"o":"m 1079 1213 l 1060 1131 l 172 1131 l 191 1213 l 1079 1213 z "},"·":{"ha":505,"x_min":163,"x_max":372,"o":"m 327 347 l 163 347 l 208 538 l 372 538 l 327 347 z "},"Ă":{"ha":948,"x_min":-58,"x_max":941,"o":"m 855 0 l 719 0 l 685 284 l 250 284 l 84 0 l -58 0 l 543 1010 l 721 1010 l 855 0 m 670 394 l 607 892 l 314 394 l 670 394 m 941 1390 q 828 1199 909 1268 q 637 1131 747 1131 q 484 1185 538 1131 q 429 1341 429 1240 q 430 1365 429 1354 q 432 1390 431 1375 l 545 1390 q 543 1367 543 1377 q 543 1349 543 1356 q 571 1250 543 1281 q 654 1219 600 1219 q 758 1257 711 1219 q 829 1390 804 1295 l 941 1390 z "},"ă":{"ha":834,"x_min":26,"x_max":785,"o":"m 593 399 q 407 384 488 395 q 273 349 326 372 q 190 289 218 327 q 161 193 161 250 q 195 119 161 144 q 298 93 228 93 q 424 120 359 93 q 543 186 488 148 l 593 399 m 519 81 q 469 50 500 70 q 405 16 437 30 q 328 -11 370 0 q 229 -21 285 -21 q 83 32 139 -21 q 26 169 26 84 q 66 321 26 259 q 184 422 106 383 q 369 478 260 461 q 615 500 477 496 q 622 533 619 519 q 625 562 625 547 q 612 614 625 594 q 575 647 599 635 q 520 664 551 659 q 450 668 488 668 q 319 649 393 668 q 199 612 245 631 l 192 612 l 217 740 q 330 763 256 750 q 473 776 405 776 q 685 732 614 776 q 755 592 755 688 q 752 553 755 574 q 745 514 749 532 l 627 0 l 500 0 l 519 81 m 785 1137 q 672 946 753 1015 q 481 878 591 878 q 328 932 382 878 q 273 1088 273 987 q 274 1112 273 1101 q 276 1137 275 1122 l 389 1137 q 387 1114 387 1124 q 387 1096 387 1103 q 415 997 387 1028 q 498 966 444 966 q 602 1004 555 966 q 673 1137 648 1042 l 785 1137 z "},"Ą":{"ha":948,"x_min":-58,"x_max":966,"o":"m 669 -32 q 679 -9 669 -32 q 711 58 688 14 l 684 284 l 250 284 l 85 0 l -58 0 l 543 1010 l 722 1010 l 856 0 l 789 0 q 769 -50 779 -20 q 760 -106 760 -79 q 786 -166 760 -146 q 862 -186 812 -186 q 915 -178 885 -186 q 961 -163 944 -170 l 966 -163 l 943 -265 q 879 -279 905 -275 q 824 -283 852 -283 q 695 -242 741 -283 q 650 -129 650 -201 q 669 -32 650 -77 m 669 394 l 606 890 l 315 394 l 669 394 z "},"ą":{"ha":834,"x_min":26,"x_max":780,"o":"m 593 399 q 407 384 488 395 q 273 349 326 372 q 190 289 218 327 q 161 193 161 250 q 195 119 161 144 q 298 93 228 93 q 424 120 359 93 q 543 186 488 148 l 593 399 m 519 81 q 469 50 500 70 q 405 16 437 30 q 328 -11 370 0 q 229 -21 285 -21 q 83 32 139 -21 q 26 169 26 84 q 66 321 26 259 q 184 422 106 383 q 369 478 260 461 q 615 500 477 496 q 622 533 619 519 q 625 562 625 547 q 612 614 625 594 q 575 647 599 635 q 520 664 551 659 q 450 668 488 668 q 319 649 393 668 q 199 612 245 631 l 192 612 l 217 740 q 330 763 256 750 q 473 776 405 776 q 685 732 614 776 q 755 592 755 688 q 752 553 755 574 q 745 514 749 532 l 627 0 l 608 0 q 586 -48 599 -17 q 573 -106 573 -79 q 599 -166 573 -146 q 675 -186 625 -186 q 728 -178 699 -186 q 774 -163 758 -170 l 780 -163 l 756 -265 q 692 -279 718 -275 q 637 -283 666 -283 q 509 -242 554 -283 q 463 -129 463 -201 q 474 -64 463 -95 q 500 0 484 -33 l 519 81 z "},"Ď":{"ha":1063,"x_min":48,"x_max":1030,"o":"m 1030 623 q 946 309 1030 457 q 716 81 862 161 q 533 16 627 33 q 321 0 439 0 l 48 0 l 281 1010 l 516 1010 q 716 995 626 1010 q 882 929 807 979 q 992 803 954 881 q 1030 623 1030 726 m 888 611 q 861 744 888 688 q 778 838 833 800 q 661 887 723 874 q 503 899 598 899 l 391 899 l 208 111 l 348 111 q 521 126 445 111 q 665 181 597 142 q 831 361 774 243 q 888 611 888 479 m 900 1390 l 686 1133 l 531 1133 l 435 1390 l 545 1390 l 629 1216 l 793 1390 l 900 1390 z "},"ď":{"ha":899,"x_min":58,"x_max":1225,"o":"m 897 1055 l 652 0 l 525 0 l 543 79 q 405 0 457 20 q 290 -21 352 -21 q 120 47 183 -21 q 58 244 58 115 q 92 451 58 353 q 184 621 125 548 q 320 736 241 694 q 487 779 399 779 q 598 766 547 779 q 693 727 649 753 l 769 1055 l 897 1055 m 669 621 q 579 656 623 645 q 486 667 536 667 q 360 633 416 667 q 266 541 305 600 q 211 412 230 487 q 191 266 191 336 q 227 139 191 183 q 342 96 262 96 q 459 124 399 96 q 568 186 518 153 l 669 621 m 1225 1055 l 977 713 l 891 713 l 1073 1055 l 1225 1055 z "},"Đ":{"ha":1063,"x_min":39,"x_max":1030,"o":"m 1030 623 q 946 309 1030 457 q 716 81 862 161 q 533 16 627 33 q 321 0 439 0 l 48 0 l 165 505 l 39 505 l 60 596 l 186 596 l 281 1010 l 516 1010 q 716 995 626 1010 q 882 929 807 979 q 992 803 954 881 q 1030 623 1030 726 m 888 611 q 861 744 888 688 q 778 838 833 800 q 661 887 723 874 q 503 899 598 899 l 391 899 l 320 596 l 565 596 l 544 505 l 299 505 l 208 111 l 348 111 q 521 126 445 111 q 665 181 597 142 q 831 361 774 243 q 888 611 888 479 z "},"Ę":{"ha":878,"x_min":47,"x_max":946,"o":"m 946 1010 l 920 895 l 389 895 l 324 610 l 854 610 l 828 496 l 298 496 l 210 115 l 740 115 l 713 0 l 531 0 q 514 -55 522 -24 q 507 -106 507 -86 q 533 -166 507 -146 q 610 -186 559 -186 q 662 -178 633 -186 q 709 -163 692 -170 l 714 -163 l 690 -265 q 626 -279 652 -275 q 572 -283 600 -283 q 444 -242 490 -283 q 397 -129 397 -202 q 408 -60 397 -92 q 430 0 418 -27 l 47 0 l 280 1010 l 946 1010 z "},"ę":{"ha":827,"x_min":60,"x_max":783,"o":"m 651 461 q 656 494 654 481 q 657 524 657 508 q 617 637 657 597 q 490 678 578 678 q 319 618 394 678 q 218 461 245 559 l 651 461 m 347 -15 q 136 69 212 -4 q 60 273 60 142 q 191 630 60 481 q 517 779 323 779 q 714 714 646 779 q 783 534 783 650 q 777 470 783 514 q 758 368 771 426 l 200 368 q 194 329 196 348 q 193 294 193 310 q 251 143 193 198 q 416 89 309 89 q 570 118 491 89 q 703 184 649 147 l 710 184 l 682 46 q 621 24 648 34 q 552 3 594 14 q 499 -8 524 -3 q 448 -15 475 -13 q 437 -59 443 -31 q 431 -106 431 -87 q 457 -166 431 -146 q 533 -186 483 -186 q 583 -178 555 -186 q 628 -162 611 -170 l 633 -162 l 614 -265 q 550 -279 576 -275 q 495 -283 524 -283 q 367 -242 413 -283 q 321 -129 321 -202 q 330 -65 321 -96 q 347 -15 338 -35 z "},"Ě":{"ha":878,"x_min":48,"x_max":946,"o":"m 946 1010 l 920 895 l 389 895 l 323 610 l 854 610 l 828 496 l 297 496 l 209 115 l 740 115 l 713 0 l 48 0 l 281 1010 l 946 1010 m 895 1390 l 682 1133 l 526 1133 l 431 1390 l 540 1390 l 625 1216 l 789 1390 l 895 1390 z "},"ě":{"ha":827,"x_min":60,"x_max":804,"o":"m 651 461 q 656 494 654 481 q 657 524 657 508 q 617 637 657 597 q 490 678 578 678 q 319 618 394 678 q 218 461 245 559 l 651 461 m 396 -18 q 149 56 239 -18 q 60 273 60 130 q 191 630 60 481 q 517 779 323 779 q 714 714 646 779 q 783 534 783 650 q 777 470 783 514 q 758 368 771 426 l 200 368 q 194 329 196 348 q 193 294 193 310 q 251 143 193 198 q 416 89 309 89 q 570 118 491 89 q 703 184 649 147 l 710 184 l 682 46 q 621 24 648 34 q 552 3 594 14 q 477 -12 510 -7 q 396 -18 445 -18 m 804 1137 l 590 880 l 435 880 l 339 1137 l 448 1137 l 533 963 l 697 1137 l 804 1137 z "},"Ĺ":{"ha":773,"x_min":47,"x_max":717,"o":"m 687 0 l 47 0 l 281 1010 l 416 1010 l 210 115 l 713 115 l 687 0 m 717 1390 l 476 1136 l 370 1136 l 543 1390 l 717 1390 z "},"ĺ":{"ha":381,"x_min":39,"x_max":617,"o":"m 411 1055 l 167 0 l 39 0 l 283 1055 l 411 1055 m 617 1390 l 376 1136 l 271 1136 l 443 1390 l 617 1390 z "},"Ľ":{"ha":773,"x_min":47,"x_max":812,"o":"m 687 0 l 47 0 l 281 1010 l 416 1010 l 210 115 l 713 115 l 687 0 m 812 1055 l 564 713 l 477 713 l 660 1055 l 812 1055 z "},"ľ":{"ha":411,"x_min":39,"x_max":735,"o":"m 411 1055 l 167 0 l 39 0 l 283 1055 l 411 1055 m 735 1055 l 487 713 l 401 713 l 583 1055 l 735 1055 z "},"Ŀ":{"ha":773,"x_min":47,"x_max":713,"o":"m 687 0 l 47 0 l 281 1010 l 416 1010 l 210 115 l 713 115 l 687 0 m 663 355 l 507 355 l 547 530 l 703 530 l 663 355 z "},"ŀ":{"ha":637,"x_min":39,"x_max":623,"o":"m 411 1055 l 167 0 l 39 0 l 283 1055 l 411 1055 m 583 355 l 427 355 l 467 530 l 623 530 l 583 355 z "},"Ń":{"ha":1039,"x_min":47,"x_max":1053,"o":"m 819 0 l 659 0 l 383 903 l 174 0 l 47 0 l 281 1010 l 483 1010 l 735 185 l 926 1010 l 1053 1010 l 819 0 m 907 1390 l 666 1136 l 560 1136 l 732 1390 l 907 1390 z "},"ń":{"ha":879,"x_min":38,"x_max":806,"o":"m 797 585 q 794 541 797 568 q 785 492 791 513 l 671 0 l 544 0 l 644 431 q 656 494 652 467 q 661 547 661 521 q 632 633 661 604 q 531 662 604 662 q 417 633 479 662 q 296 566 355 605 l 165 0 l 38 0 l 213 758 l 340 758 l 321 673 q 457 751 393 724 q 587 779 520 779 q 742 729 686 779 q 797 585 797 679 m 806 1137 l 565 883 l 459 883 l 631 1137 l 806 1137 z "},"Ň":{"ha":1039,"x_min":47,"x_max":1053,"o":"m 819 0 l 659 0 l 383 903 l 174 0 l 47 0 l 281 1010 l 483 1010 l 735 185 l 926 1010 l 1053 1010 l 819 0 m 965 1390 l 751 1133 l 596 1133 l 500 1390 l 610 1390 l 694 1216 l 859 1390 l 965 1390 z "},"ň":{"ha":879,"x_min":38,"x_max":815,"o":"m 797 585 q 794 541 797 568 q 785 492 791 513 l 671 0 l 544 0 l 644 431 q 656 494 652 467 q 661 547 661 521 q 632 633 661 604 q 531 662 604 662 q 417 633 479 662 q 296 566 355 605 l 165 0 l 38 0 l 213 758 l 340 758 l 321 673 q 457 751 393 724 q 587 779 520 779 q 742 729 686 779 q 797 585 797 679 m 815 1137 l 602 880 l 446 880 l 351 1137 l 460 1137 l 545 963 l 709 1137 l 815 1137 z "},"Ő":{"ha":1093,"x_min":91,"x_max":1060,"o":"m 1060 652 q 1020 399 1060 521 q 905 184 981 277 q 720 34 828 88 q 475 -21 611 -21 q 193 78 294 -21 q 91 358 91 176 q 132 616 91 496 q 249 831 172 736 q 434 976 323 922 q 675 1031 544 1031 q 958 933 855 1031 q 1060 652 1060 835 m 803 251 q 889 424 860 328 q 918 633 918 519 q 849 846 918 772 q 654 920 779 920 q 479 876 557 920 q 345 755 401 831 q 262 582 291 681 q 233 379 233 484 q 302 164 233 239 q 497 90 372 90 q 671 134 593 90 q 803 251 749 178 m 1030 1390 l 806 1136 l 712 1136 l 876 1390 l 1030 1390 m 756 1390 l 532 1136 l 438 1136 l 602 1390 l 756 1390 z "},"ő":{"ha":843,"x_min":60,"x_max":874,"o":"m 783 490 q 751 294 783 388 q 663 132 720 201 q 527 19 604 60 q 347 -21 450 -21 q 136 56 212 -21 q 60 269 60 133 q 91 463 60 370 q 180 627 122 555 q 318 737 237 696 q 497 779 400 779 q 705 704 628 779 q 783 490 783 629 m 575 203 q 631 329 612 258 q 650 479 650 400 q 605 623 650 574 q 477 672 559 672 q 359 641 411 672 q 269 554 307 609 q 212 429 232 500 q 193 279 193 357 q 238 136 193 186 q 367 85 283 85 q 485 117 432 85 q 575 203 538 148 m 874 1137 l 650 883 l 556 883 l 720 1137 l 874 1137 m 600 1137 l 376 883 l 282 883 l 446 1137 l 600 1137 z "},"Ŕ":{"ha":966,"x_min":47,"x_max":892,"o":"m 741 759 q 730 820 741 795 q 697 862 720 844 q 634 891 671 883 q 543 899 597 899 l 391 899 l 300 510 l 443 510 q 558 522 509 510 q 647 565 607 534 q 716 650 692 599 q 741 759 741 701 m 892 0 l 734 0 l 468 404 l 276 404 l 183 0 l 47 0 l 280 1010 l 555 1010 q 705 998 648 1010 q 806 955 763 986 q 865 888 844 927 q 887 789 887 848 q 808 568 887 663 q 601 435 729 473 l 892 0 m 821 1390 l 580 1136 l 474 1136 l 646 1390 l 821 1390 z "},"ŕ":{"ha":593,"x_min":38,"x_max":679,"o":"m 650 623 l 643 623 q 592 633 616 630 q 536 636 569 636 q 409 607 472 636 q 289 538 347 578 l 167 0 l 38 0 l 211 758 l 340 758 l 314 646 q 467 733 404 709 q 587 758 530 758 q 635 756 621 758 q 679 749 650 754 l 650 623 m 671 1137 l 431 883 l 325 883 l 497 1137 l 671 1137 z "},"Ř":{"ha":966,"x_min":47,"x_max":892,"o":"m 741 759 q 730 820 741 795 q 697 862 720 844 q 634 891 671 883 q 543 899 597 899 l 391 899 l 300 510 l 443 510 q 558 522 509 510 q 647 565 607 534 q 716 650 692 599 q 741 759 741 701 m 892 0 l 734 0 l 468 404 l 276 404 l 183 0 l 47 0 l 280 1010 l 555 1010 q 705 998 648 1010 q 806 955 763 986 q 865 888 844 927 q 887 789 887 848 q 808 568 887 663 q 601 435 729 473 l 892 0 m 848 1390 l 634 1133 l 479 1133 l 383 1390 l 492 1390 l 577 1216 l 741 1390 l 848 1390 z "},"ř":{"ha":593,"x_min":38,"x_max":728,"o":"m 650 623 l 643 623 q 592 633 616 630 q 536 636 569 636 q 409 607 472 636 q 289 538 347 578 l 167 0 l 38 0 l 211 758 l 340 758 l 314 646 q 467 733 404 709 q 587 758 530 758 q 635 756 621 758 q 679 749 650 754 l 650 623 m 728 1137 l 515 880 l 359 880 l 264 1137 l 373 1137 l 458 963 l 622 1137 l 728 1137 z "},"Ś":{"ha":949,"x_min":35,"x_max":947,"o":"m 397 -18 q 210 2 298 -18 q 35 66 121 23 l 68 220 l 77 220 q 237 125 142 158 q 420 92 332 92 q 641 150 564 92 q 718 296 718 207 q 691 374 718 342 q 610 420 663 405 q 506 443 566 432 q 390 467 445 454 q 225 549 283 491 q 167 692 167 606 q 289 932 167 836 q 606 1028 412 1028 q 798 1006 711 1028 q 947 954 884 984 l 916 810 l 907 810 q 769 886 859 854 q 582 918 680 918 q 385 863 458 918 q 311 726 311 809 q 338 647 311 681 q 432 596 364 613 q 547 571 475 586 q 668 544 619 557 q 814 465 764 517 q 864 334 864 413 q 831 201 864 267 q 741 89 799 136 q 594 10 678 39 q 397 -18 511 -18 m 845 1390 l 604 1136 l 498 1136 l 671 1390 l 845 1390 z "},"ś":{"ha":724,"x_min":12,"x_max":702,"o":"m 275 -18 q 123 3 190 -18 q 12 48 56 24 l 40 184 l 47 184 q 84 156 61 172 q 142 123 106 139 q 215 96 174 107 q 302 85 256 85 q 452 120 398 85 q 507 224 507 155 q 479 279 507 260 q 399 311 451 298 q 335 324 372 317 q 260 342 298 332 q 143 407 181 364 q 105 510 105 449 q 128 609 105 563 q 197 694 151 655 q 307 753 240 730 q 456 776 374 776 q 592 759 524 776 q 702 717 659 742 l 675 587 l 668 587 q 635 610 657 595 q 579 641 613 625 q 511 663 550 654 q 430 673 472 673 q 292 637 345 673 q 239 540 239 602 q 265 483 239 506 q 344 448 291 460 q 413 432 377 439 q 484 417 450 425 q 602 356 562 397 q 642 252 642 315 q 617 150 642 200 q 545 64 592 100 q 429 3 497 25 q 275 -18 360 -18 m 672 1137 l 431 883 l 326 883 l 498 1137 l 672 1137 z "},"Ţ":{"ha":856,"x_min":7,"x_max":1001,"o":"m 142 -191 q 268 -143 229 -191 q 307 0 307 -96 l 273 0 l 479 895 l 119 895 l 145 1010 l 1001 1010 l 975 895 l 615 895 l 411 11 q 336 -206 411 -125 q 139 -287 260 -287 q 73 -281 110 -287 q 7 -267 35 -275 l 29 -166 l 35 -166 q 80 -182 52 -173 q 142 -191 108 -191 z "},"ţ":{"ha":547,"x_min":-5,"x_max":606,"o":"m 397 -3 q 323 -208 397 -130 q 127 -287 249 -287 q 61 -281 98 -287 q -5 -267 24 -275 l 18 -166 l 24 -166 q 68 -182 40 -173 q 130 -191 96 -191 q 254 -146 215 -191 q 294 -14 293 -101 q 288 -14 292 -14 q 283 -14 285 -14 q 138 26 189 -14 q 87 156 87 67 q 90 199 87 178 q 98 248 93 220 l 193 654 l 106 654 l 130 758 l 216 758 l 267 975 l 394 975 l 343 758 l 606 758 l 583 654 l 320 654 l 239 305 q 227 244 232 279 q 221 190 221 210 q 246 116 221 140 q 339 92 271 92 q 405 102 367 92 q 457 117 444 111 l 464 117 l 440 7 q 419 2 430 5 q 397 -3 408 -1 z "},"Ť":{"ha":856,"x_min":119,"x_max":1001,"o":"m 975 895 l 615 895 l 408 0 l 273 0 l 479 895 l 119 895 l 145 1010 l 1001 1010 l 975 895 m 867 1390 l 653 1133 l 498 1133 l 402 1390 l 511 1390 l 596 1216 l 760 1390 l 867 1390 z "},"ť":{"ha":547,"x_min":87,"x_max":798,"o":"m 606 758 l 583 654 l 320 654 l 239 305 q 227 244 232 279 q 221 190 221 210 q 246 116 221 140 q 339 92 271 92 q 405 102 367 92 q 457 117 444 111 l 464 117 l 440 7 q 359 -9 402 -3 q 283 -15 316 -15 q 138 26 189 -15 q 87 156 87 67 q 90 199 87 178 q 98 248 93 220 l 193 654 l 106 654 l 130 758 l 216 758 l 267 975 l 394 975 l 343 758 l 606 758 m 798 1219 l 551 883 l 465 883 l 646 1219 l 798 1219 z "},"Ů":{"ha":1017,"x_min":105,"x_max":1042,"o":"m 902 406 q 835 213 876 292 q 727 78 794 133 q 592 3 665 28 q 420 -21 519 -21 q 183 51 261 -21 q 105 250 105 123 q 111 329 105 292 q 125 406 117 366 l 265 1010 l 401 1010 l 260 399 q 247 327 252 367 q 241 265 241 288 q 292 135 241 180 q 444 90 343 90 q 572 112 517 90 q 667 179 627 134 q 726 272 704 221 q 764 395 748 323 l 906 1010 l 1042 1010 l 902 406 m 637 922 q 492 977 549 922 q 435 1115 435 1032 q 519 1303 435 1223 q 714 1383 604 1383 q 860 1329 802 1383 q 917 1195 917 1275 q 834 1004 917 1086 q 637 922 751 922 m 817 1179 q 785 1261 817 1227 q 700 1295 753 1295 q 585 1245 634 1295 q 534 1130 535 1196 q 567 1045 534 1080 q 651 1011 599 1011 q 767 1062 717 1011 q 817 1179 817 1113 z "},"ů":{"ha":879,"x_min":83,"x_max":841,"o":"m 841 758 l 666 0 l 538 0 l 558 84 q 423 7 486 35 q 290 -21 360 -21 q 138 28 193 -21 q 83 172 83 77 q 86 216 83 195 q 94 266 89 238 l 208 758 l 335 758 l 235 326 q 224 266 229 300 q 218 212 218 232 q 248 125 218 154 q 349 96 277 96 q 464 125 399 96 q 583 192 528 154 l 713 758 l 841 758 m 518 775 q 373 830 431 775 q 316 968 316 886 q 401 1156 316 1076 q 595 1236 486 1236 q 741 1182 684 1236 q 798 1048 798 1128 q 715 858 798 940 q 518 775 632 775 m 699 1032 q 666 1115 699 1081 q 581 1148 634 1148 q 466 1099 515 1148 q 416 983 416 1050 q 448 899 416 933 q 532 865 480 865 q 648 916 598 865 q 699 1032 699 966 z "},"Ű":{"ha":1017,"x_min":105,"x_max":1042,"o":"m 902 406 q 835 213 876 292 q 727 78 794 133 q 592 3 665 28 q 420 -21 519 -21 q 183 51 261 -21 q 105 250 105 123 q 111 329 105 292 q 125 406 117 366 l 265 1010 l 401 1010 l 260 399 q 247 327 252 367 q 241 265 241 288 q 292 135 241 180 q 444 90 343 90 q 572 112 517 90 q 667 179 627 134 q 726 272 704 221 q 764 395 748 323 l 906 1010 l 1042 1010 l 902 406 m 1041 1390 l 817 1136 l 723 1136 l 886 1390 l 1041 1390 m 767 1390 l 543 1136 l 449 1136 l 612 1390 l 767 1390 z "},"ű":{"ha":879,"x_min":83,"x_max":892,"o":"m 841 758 l 666 0 l 538 0 l 558 84 q 423 7 486 35 q 290 -21 360 -21 q 138 28 193 -21 q 83 172 83 77 q 86 216 83 195 q 94 266 89 238 l 208 758 l 335 758 l 235 326 q 224 266 229 300 q 218 212 218 232 q 248 125 218 154 q 349 96 277 96 q 464 125 399 96 q 583 192 528 154 l 713 758 l 841 758 m 892 1137 l 669 883 l 574 883 l 738 1137 l 892 1137 m 618 1137 l 395 883 l 300 883 l 464 1137 l 618 1137 z "},"Ź":{"ha":951,"x_min":1,"x_max":1001,"o":"m 789 0 l 1 0 l 29 123 l 811 895 l 219 895 l 245 1010 l 1001 1010 l 974 893 l 185 115 l 816 115 l 789 0 m 854 1390 l 614 1136 l 508 1136 l 680 1390 l 854 1390 z "},"ź":{"ha":730,"x_min":-21,"x_max":747,"o":"m 591 0 l -21 0 l 1 94 l 564 656 l 130 656 l 154 758 l 747 758 l 726 667 l 161 102 l 614 102 l 591 0 m 690 1137 l 449 883 l 343 883 l 515 1137 l 690 1137 z "},"Ż":{"ha":951,"x_min":1,"x_max":1001,"o":"m 789 0 l 1 0 l 29 123 l 811 895 l 219 895 l 245 1010 l 1001 1010 l 974 893 l 185 115 l 816 115 l 789 0 m 680 1137 l 534 1137 l 565 1270 l 710 1270 l 680 1137 z "},"ż":{"ha":730,"x_min":-21,"x_max":747,"o":"m 591 0 l -21 0 l 1 94 l 564 656 l 130 656 l 154 758 l 747 758 l 726 667 l 161 102 l 614 102 l 591 0 m 532 884 l 387 884 l 418 1017 l 563 1017 l 532 884 z "},"Γ":{"ha":787,"x_min":47,"x_max":935,"o":"m 908 895 l 390 895 l 183 0 l 47 0 l 281 1010 l 935 1010 l 908 895 z "},"Θ":{"ha":1093,"x_min":91,"x_max":1060,"o":"m 1060 652 q 1020 399 1060 521 q 905 184 981 277 q 720 34 828 88 q 475 -21 611 -21 q 193 78 294 -21 q 91 358 91 176 q 132 616 91 496 q 249 831 172 736 q 434 976 323 922 q 675 1031 544 1031 q 958 933 855 1031 q 1060 652 1060 835 m 803 251 q 889 424 860 328 q 918 633 918 519 q 849 846 918 772 q 654 920 779 920 q 479 876 557 920 q 345 755 401 831 q 262 582 291 681 q 233 379 233 484 q 302 164 233 239 q 497 90 372 90 q 671 134 593 90 q 803 251 749 178 m 782 487 l 358 487 l 385 601 l 809 601 l 782 487 z "},"Φ":{"ha":1132,"x_min":83,"x_max":1106,"o":"m 1106 597 q 1058 385 1106 482 q 930 221 1010 287 q 765 135 862 165 q 568 102 669 104 l 541 -11 l 408 -11 l 435 102 q 293 129 357 105 q 182 193 229 153 q 110 291 136 234 q 83 420 83 349 q 131 632 83 535 q 260 796 179 729 q 420 881 323 849 q 623 916 518 913 l 647 1021 l 780 1021 l 755 916 q 1008 824 910 909 q 1106 597 1106 738 m 963 581 q 949 667 963 625 q 909 741 936 709 q 836 794 880 775 q 732 815 792 813 l 590 202 q 724 227 662 205 q 826 280 785 248 q 928 411 892 333 q 963 581 963 488 m 457 202 l 600 815 q 472 793 534 813 q 363 737 410 773 q 263 606 300 688 q 227 436 227 524 q 240 350 227 391 q 281 276 253 308 q 353 224 307 245 q 457 202 398 203 z "},"α":{"ha":865,"x_min":58,"x_max":827,"o":"m 827 758 l 652 0 l 525 0 l 543 79 q 405 0 457 20 q 290 -21 352 -21 q 120 47 183 -21 q 58 244 58 115 q 92 451 58 353 q 184 621 125 548 q 320 736 241 694 q 487 779 399 779 q 598 766 547 779 q 693 727 649 753 l 700 758 l 827 758 m 669 621 q 579 656 623 645 q 486 667 536 667 q 360 633 416 667 q 266 541 305 600 q 211 412 230 487 q 191 266 191 336 q 227 139 191 183 q 342 96 262 96 q 459 124 399 96 q 568 186 518 153 l 669 621 z "},"δ":{"ha":844,"x_min":60,"x_max":844,"o":"m 785 455 q 660 114 785 249 q 355 -21 536 -21 q 137 56 214 -21 q 60 269 60 132 q 96 465 60 380 q 191 611 132 549 q 326 707 250 671 q 480 755 402 743 q 366 857 420 812 q 262 941 311 901 l 294 1055 l 844 1055 l 817 954 l 423 954 l 423 950 q 533 861 465 919 q 651 748 601 802 q 753 602 722 672 q 785 455 785 532 m 651 442 q 621 583 651 522 q 551 682 591 644 q 441 652 505 676 q 324 585 377 629 q 229 461 264 536 q 193 288 193 385 q 240 137 193 189 q 376 85 287 85 q 573 186 494 85 q 651 442 651 287 z "},"ε":{"ha":712,"x_min":35,"x_max":723,"o":"m 615 43 q 464 -3 536 11 q 317 -18 393 -18 q 216 -8 267 -18 q 125 24 165 2 q 60 82 85 47 q 35 170 35 117 q 85 310 35 252 q 236 399 135 368 l 236 404 q 156 453 185 418 q 127 537 127 488 q 158 645 127 596 q 254 726 189 693 q 368 764 304 752 q 488 776 433 776 q 616 763 557 776 q 723 732 675 750 l 691 602 l 682 602 q 583 652 644 635 q 458 670 523 670 q 391 666 421 670 q 326 644 361 661 q 278 604 297 630 q 259 539 259 578 q 277 487 259 505 q 323 460 296 468 q 380 451 349 452 q 448 449 410 449 l 528 449 l 501 340 l 394 340 q 312 335 349 340 q 239 315 274 330 q 188 271 208 299 q 168 196 168 242 q 183 145 168 165 q 223 112 199 124 q 276 94 245 100 q 341 88 307 88 q 498 115 414 88 q 640 184 583 142 l 648 184 l 615 43 z "},"σ":{"ha":876,"x_min":60,"x_max":966,"o":"m 783 490 q 751 294 783 388 q 663 132 720 201 q 527 19 604 60 q 347 -21 450 -21 q 136 56 212 -21 q 60 269 60 133 q 91 463 60 370 q 180 627 122 555 q 318 737 237 696 q 497 779 400 779 q 563 773 532 779 q 621 758 594 768 l 966 758 l 942 656 l 726 656 q 767 583 751 627 q 783 490 783 538 m 575 203 q 631 329 612 258 q 650 479 650 400 q 605 623 650 574 q 477 672 559 672 q 359 641 411 672 q 269 554 307 609 q 212 429 232 500 q 193 279 193 357 q 238 136 193 186 q 367 85 283 85 q 485 117 432 85 q 575 203 538 148 z "},"τ":{"ha":689,"x_min":70,"x_max":770,"o":"m 745 656 l 472 656 l 322 0 l 193 0 l 343 656 l 70 656 l 94 758 l 770 758 l 745 656 z "},"φ":{"ha":1097,"x_min":58,"x_max":1044,"o":"m 1044 473 q 1001 278 1044 366 q 888 130 959 190 q 723 32 816 67 q 524 -9 630 -4 l 461 -279 l 333 -279 l 395 -9 q 150 81 242 -2 q 58 302 58 163 q 77 431 58 370 q 132 551 96 493 q 215 654 165 603 q 328 758 264 705 l 486 758 l 484 746 q 266 548 340 658 q 191 323 191 438 q 252 155 191 214 q 418 92 312 96 l 576 775 q 623 777 598 777 q 675 777 648 777 q 945 698 847 777 q 1044 473 1044 619 m 814 209 q 886 323 863 261 q 910 458 910 386 q 850 617 910 559 q 682 675 790 675 l 547 92 q 702 128 634 96 q 814 209 770 159 z "},"‗":{"ha":883,"x_min":-157,"x_max":785,"o":"m 785 -56 l 766 -137 l -122 -137 l -103 -56 l 785 -56 m 751 -205 l 732 -287 l -157 -287 l -138 -205 l 751 -205 z "},"‼":{"ha":867,"x_min":117,"x_max":816,"o":"m 495 1010 l 309 278 l 193 278 l 343 1010 l 495 1010 m 255 0 l 117 0 l 150 143 l 288 143 l 255 0 m 816 1010 l 629 278 l 514 278 l 664 1010 l 816 1010 m 576 0 l 437 0 l 471 143 l 609 143 l 576 0 z "},"ⁿ":{"ha":758,"x_min":93,"x_max":751,"o":"m 646 376 l 528 376 l 611 737 q 622 793 618 768 q 627 842 627 818 q 603 910 627 887 q 521 932 579 932 q 426 909 478 932 q 319 850 373 885 l 210 376 l 93 376 l 240 1013 l 357 1013 l 340 939 q 461 1006 400 981 q 578 1031 522 1031 q 705 991 659 1031 q 751 871 751 951 q 749 831 751 854 q 741 789 746 808 l 646 376 z "},"₧":{"ha":1616,"x_min":49,"x_max":1576,"o":"m 1509 256 q 1419 62 1509 143 q 1179 -18 1329 -18 q 1048 1 1108 -18 q 949 45 988 20 l 982 187 l 988 187 q 1019 158 1002 174 q 1067 126 1036 143 q 1129 99 1097 110 q 1206 88 1162 88 q 1338 125 1291 88 q 1385 229 1385 161 q 1363 281 1385 263 q 1298 311 1341 300 q 1239 326 1272 319 q 1173 345 1206 334 q 1076 408 1105 366 q 1046 503 1046 449 q 1059 574 1046 540 q 1095 644 1072 608 l 950 644 l 802 0 l 679 0 l 827 644 l 745 644 q 700 555 728 596 q 633 481 672 513 q 493 401 566 425 q 314 376 419 376 l 263 376 l 176 0 l 49 0 l 282 1010 l 444 1010 q 687 950 605 1010 q 770 777 770 890 q 769 762 770 770 q 768 745 768 753 l 850 745 l 886 897 l 1008 897 l 973 745 l 1219 745 q 1287 768 1251 760 q 1362 776 1323 776 q 1480 760 1421 776 q 1576 720 1539 744 l 1544 585 l 1538 585 q 1446 646 1500 623 q 1335 669 1392 669 q 1218 635 1265 669 q 1171 533 1171 602 q 1190 482 1171 502 q 1253 449 1208 462 q 1315 432 1282 441 q 1377 415 1348 423 q 1475 358 1440 397 q 1509 256 1509 319 m 635 751 q 624 813 635 785 q 587 861 612 842 q 517 893 559 882 q 416 903 475 903 l 385 903 l 288 485 l 314 485 q 450 500 395 485 q 543 548 505 516 q 611 639 588 587 q 635 751 635 692 z "},"Ĳ":{"ha":1209,"x_min":5,"x_max":1230,"o":"m 405 0 l 5 0 l 27 98 l 159 98 l 348 911 l 216 911 l 238 1010 l 638 1010 l 616 911 l 484 911 l 295 98 l 427 98 l 405 0 m 1059 262 q 931 57 1027 129 q 698 -14 835 -14 q 612 -8 665 -14 q 525 5 559 -3 l 553 126 l 561 126 q 625 106 587 117 q 706 96 663 96 q 808 112 768 96 q 872 155 849 127 q 911 225 897 184 q 935 313 925 266 l 1071 907 l 851 907 l 875 1010 l 1230 1010 l 1059 262 z "},"ĳ":{"ha":852,"x_min":39,"x_max":884,"o":"m 410 1017 l 379 884 l 235 884 l 266 1017 l 410 1017 m 342 758 l 167 0 l 39 0 l 214 758 l 342 758 m 854 884 l 709 884 l 739 1017 l 884 1017 l 854 884 m 637 -18 q 529 -218 606 -150 q 336 -287 451 -287 q 264 -281 309 -287 q 192 -268 220 -276 l 218 -152 l 225 -152 q 272 -169 245 -161 q 334 -178 298 -178 q 413 -163 381 -178 q 466 -119 446 -149 q 498 -48 486 -91 q 522 40 511 -6 l 663 655 l 505 655 l 529 758 l 816 758 l 637 -18 z "},"ŉ":{"ha":1015,"x_min":66,"x_max":932,"o":"m 932 585 q 929 538 932 568 q 921 492 925 508 l 807 0 l 680 0 l 779 431 q 792 494 787 467 q 796 547 796 521 q 768 633 796 604 q 667 662 740 662 q 553 633 615 662 q 432 566 491 605 l 301 0 l 174 0 l 349 758 l 476 758 l 456 673 q 592 751 529 724 q 723 779 656 779 q 877 729 822 779 q 932 585 932 679 m 434 1055 l 163 676 l 66 676 l 266 1055 l 434 1055 z "},"′":{"ha":502,"x_min":151,"x_max":548,"o":"m 548 1010 l 249 590 l 151 590 l 380 1010 l 548 1010 z "},"″":{"ha":774,"x_min":147,"x_max":824,"o":"m 544 1010 l 245 590 l 147 590 l 376 1010 l 544 1010 m 824 1010 l 525 590 l 427 590 l 656 1010 l 824 1010 z "},"℅":{"ha":1495,"x_min":131,"x_max":1415,"o":"m 1098 -20 q 946 31 998 -20 q 895 181 895 81 q 980 469 895 359 q 1212 579 1065 579 q 1363 528 1312 579 q 1415 378 1415 477 q 1332 94 1415 208 q 1098 -20 1249 -20 m 1256 171 q 1286 270 1277 217 q 1295 380 1295 323 q 1272 464 1295 435 q 1194 492 1249 492 q 1111 464 1145 492 q 1054 389 1076 435 q 1024 293 1034 349 q 1014 181 1014 237 q 1037 97 1014 126 q 1116 67 1059 67 q 1200 96 1164 67 q 1256 171 1235 124 m 1182 1010 l 475 0 l 362 0 l 1069 1010 l 1182 1010 m 541 476 q 459 445 508 459 q 359 430 410 430 q 193 484 254 430 q 131 650 131 538 q 159 805 131 734 q 234 926 186 876 q 345 1002 281 975 q 477 1029 409 1029 q 562 1018 522 1029 q 641 984 602 1006 l 618 869 l 609 869 q 536 924 570 908 q 464 939 502 939 q 384 921 422 939 q 315 865 346 903 q 268 780 286 832 q 250 666 250 727 q 288 555 250 591 q 384 520 325 520 q 467 539 427 520 q 555 594 507 558 l 564 594 l 541 476 z "},"ℓ":{"ha":449,"x_min":10,"x_max":438,"o":"m 10 286 l 130 446 l 130 754 q 172 959 130 907 q 289 1011 214 1011 q 396 967 354 1011 q 438 849 438 923 q 397 697 438 787 q 245 451 357 607 l 245 170 q 255 95 245 109 q 283 80 264 80 q 323 91 300 80 q 418 153 347 102 l 418 43 q 342 -2 380 13 q 265 -16 304 -16 q 166 22 203 -16 q 130 147 130 61 l 130 300 l 77 233 l 10 286 m 245 610 q 327 768 311 724 q 343 848 343 811 q 339 885 343 869 q 326 913 334 901 q 310 925 319 921 q 292 930 302 930 q 273 926 281 930 q 260 912 264 922 q 249 861 253 898 q 245 764 245 823 l 245 610 z "},"□":{"ha":839,"x_min":99,"x_max":739,"o":"m 99 640 l 739 640 l 739 0 l 99 0 l 99 640 m 151 589 l 151 52 l 688 52 l 688 589 l 151 589 z "},"▪":{"ha":492,"x_min":89,"x_max":403,"o":"m 403 616 l 403 302 l 89 302 l 89 616 l 403 616 z "},"▫":{"ha":492,"x_min":89,"x_max":403,"o":"m 403 616 l 403 302 l 89 302 l 89 616 l 403 616 m 351 564 l 140 564 l 140 353 l 351 353 l 351 564 z "},"●":{"ha":839,"x_min":120,"x_max":718,"o":"m 120 391 q 208 602 120 515 q 419 690 295 690 q 630 602 543 690 q 718 391 718 515 q 630 180 718 267 q 419 92 543 92 q 208 180 295 92 q 120 391 120 267 z "},"◦":{"ha":492,"x_min":76,"x_max":416,"o":"m 246 629 q 367 579 317 629 q 416 459 416 530 q 367 339 416 389 q 246 289 317 289 q 126 339 176 289 q 76 459 76 389 q 125 579 76 530 q 246 629 175 629 m 246 578 q 162 543 197 578 q 127 459 127 508 q 162 375 127 410 q 246 340 197 340 q 330 375 295 340 q 365 459 365 410 q 330 543 365 508 q 246 578 296 578 z "},"Ā":{"ha":948,"x_min":-58,"x_max":939,"o":"m 855 0 l 719 0 l 685 284 l 250 284 l 84 0 l -58 0 l 543 1010 l 721 1010 l 855 0 m 670 394 l 607 892 l 314 394 l 670 394 m 915 1160 l 338 1160 l 362 1263 l 939 1263 l 915 1160 z "},"ā":{"ha":834,"x_min":26,"x_max":805,"o":"m 593 399 q 407 384 488 395 q 273 349 326 372 q 190 289 218 327 q 161 193 161 250 q 195 119 161 144 q 298 93 228 93 q 424 120 359 93 q 543 186 488 148 l 593 399 m 519 81 q 469 50 500 70 q 405 16 437 30 q 328 -11 370 0 q 229 -21 285 -21 q 83 32 139 -21 q 26 169 26 84 q 66 321 26 259 q 184 422 106 383 q 369 478 260 461 q 615 500 477 496 q 622 533 619 519 q 625 562 625 547 q 612 614 625 594 q 575 647 599 635 q 520 664 551 659 q 450 668 488 668 q 319 649 393 668 q 199 612 245 631 l 192 612 l 217 740 q 330 763 256 750 q 473 776 405 776 q 685 732 614 776 q 755 592 755 688 q 752 553 755 574 q 745 514 749 532 l 627 0 l 500 0 l 519 81 m 781 907 l 205 907 l 229 1010 l 805 1010 l 781 907 z "},"Ĉ":{"ha":970,"x_min":90,"x_max":1025,"o":"m 500 -18 q 199 81 309 -18 q 90 363 90 180 q 132 623 90 503 q 253 835 174 744 q 445 976 331 924 q 699 1028 559 1028 q 865 1007 787 1028 q 1025 939 943 985 l 994 787 l 984 787 q 939 829 962 810 q 871 871 916 848 q 782 904 833 891 q 668 918 730 918 q 494 878 573 918 q 356 767 414 838 q 267 599 299 698 q 234 388 234 500 q 307 171 234 248 q 516 93 379 93 q 638 107 581 93 q 744 144 696 122 q 823 189 788 165 q 884 231 859 212 l 893 231 l 861 75 q 697 11 790 39 q 500 -18 605 -18 m 912 1133 l 809 1133 l 721 1309 l 557 1133 l 448 1133 l 659 1390 l 813 1390 l 912 1133 z "},"ĉ":{"ha":724,"x_min":59,"x_max":748,"o":"m 366 -17 q 239 0 294 -17 q 142 54 184 17 q 81 142 102 89 q 59 267 59 196 q 92 466 59 374 q 186 628 125 558 q 332 735 245 696 q 519 775 419 775 q 645 757 586 775 q 748 713 703 739 l 720 576 l 713 576 q 679 604 699 588 q 631 635 659 621 q 569 660 603 650 q 492 669 535 669 q 277 558 360 669 q 194 288 194 447 q 243 140 194 192 q 383 89 292 89 q 469 101 426 89 q 541 127 511 113 q 603 161 574 143 q 644 187 631 178 l 652 187 l 625 48 q 500 2 566 22 q 366 -17 434 -17 m 734 880 l 631 880 l 543 1056 l 379 880 l 269 880 l 480 1137 l 635 1137 l 734 880 z "},"Ċ":{"ha":970,"x_min":90,"x_max":1025,"o":"m 500 -18 q 199 81 309 -18 q 90 363 90 180 q 132 623 90 503 q 253 835 174 744 q 445 976 331 924 q 699 1028 559 1028 q 865 1007 787 1028 q 1025 939 943 985 l 994 787 l 984 787 q 939 829 962 810 q 871 871 916 848 q 782 904 833 891 q 668 918 730 918 q 494 878 573 918 q 356 767 414 838 q 267 599 299 698 q 234 388 234 500 q 307 171 234 248 q 516 93 379 93 q 638 107 581 93 q 744 144 696 122 q 823 189 788 165 q 884 231 859 212 l 893 231 l 861 75 q 697 11 790 39 q 500 -18 605 -18 m 770 1137 l 625 1137 l 655 1270 l 800 1270 l 770 1137 z "},"ċ":{"ha":724,"x_min":59,"x_max":748,"o":"m 366 -17 q 239 0 294 -17 q 142 54 184 17 q 81 142 102 89 q 59 267 59 196 q 92 466 59 374 q 186 628 125 558 q 332 735 245 696 q 519 775 419 775 q 645 757 586 775 q 748 713 703 739 l 720 576 l 713 576 q 679 604 699 588 q 631 635 659 621 q 569 660 603 650 q 492 669 535 669 q 277 558 360 669 q 194 288 194 447 q 243 140 194 192 q 383 89 292 89 q 469 101 426 89 q 541 127 511 113 q 603 161 574 143 q 644 187 631 178 l 652 187 l 625 48 q 500 2 566 22 q 366 -17 434 -17 m 570 884 l 425 884 l 456 1017 l 601 1017 l 570 884 z "},"Ē":{"ha":878,"x_min":48,"x_max":946,"o":"m 946 1010 l 920 895 l 389 895 l 323 610 l 854 610 l 828 496 l 297 496 l 209 115 l 740 115 l 713 0 l 48 0 l 281 1010 l 946 1010 m 914 1160 l 338 1160 l 361 1263 l 938 1263 l 914 1160 z "},"ē":{"ha":827,"x_min":60,"x_max":829,"o":"m 651 461 q 656 494 654 481 q 657 524 657 508 q 617 637 657 597 q 490 678 578 678 q 319 618 394 678 q 218 461 245 559 l 651 461 m 396 -18 q 149 56 239 -18 q 60 273 60 130 q 191 630 60 481 q 517 779 323 779 q 714 714 646 779 q 783 534 783 650 q 777 470 783 514 q 758 368 771 426 l 200 368 q 194 329 196 348 q 193 294 193 310 q 251 143 193 198 q 416 89 309 89 q 570 118 491 89 q 703 184 649 147 l 710 184 l 682 46 q 621 24 648 34 q 552 3 594 14 q 477 -12 510 -7 q 396 -18 445 -18 m 806 907 l 229 907 l 253 1010 l 829 1010 l 806 907 z "},"Ĕ":{"ha":878,"x_min":48,"x_max":946,"o":"m 946 1010 l 920 895 l 389 895 l 323 610 l 854 610 l 828 496 l 297 496 l 209 115 l 740 115 l 713 0 l 48 0 l 281 1010 l 946 1010 m 915 1390 q 802 1199 883 1268 q 611 1131 720 1131 q 457 1185 512 1131 q 402 1341 402 1240 q 403 1365 402 1354 q 406 1390 404 1375 l 518 1390 q 516 1367 517 1377 q 516 1349 516 1356 q 545 1250 516 1281 q 627 1219 573 1219 q 731 1257 685 1219 q 803 1390 777 1295 l 915 1390 z "},"ĕ":{"ha":827,"x_min":60,"x_max":820,"o":"m 651 461 q 656 494 654 481 q 657 524 657 508 q 617 637 657 597 q 490 678 578 678 q 319 618 394 678 q 218 461 245 559 l 651 461 m 396 -18 q 149 56 239 -18 q 60 273 60 130 q 191 630 60 481 q 517 779 323 779 q 714 714 646 779 q 783 534 783 650 q 777 470 783 514 q 758 368 771 426 l 200 368 q 194 329 196 348 q 193 294 193 310 q 251 143 193 198 q 416 89 309 89 q 570 118 491 89 q 703 184 649 147 l 710 184 l 682 46 q 621 24 648 34 q 552 3 594 14 q 477 -12 510 -7 q 396 -18 445 -18 m 820 1137 q 707 946 788 1015 q 516 878 625 878 q 362 932 417 878 q 307 1088 307 987 q 308 1112 307 1101 q 311 1137 309 1122 l 423 1137 q 421 1114 422 1124 q 421 1096 421 1103 q 450 997 421 1028 q 532 966 478 966 q 636 1004 590 966 q 708 1137 682 1042 l 820 1137 z "},"Ė":{"ha":878,"x_min":48,"x_max":946,"o":"m 946 1010 l 920 895 l 389 895 l 323 610 l 854 610 l 828 496 l 297 496 l 209 115 l 740 115 l 713 0 l 48 0 l 281 1010 l 946 1010 m 690 1137 l 545 1137 l 575 1270 l 720 1270 l 690 1137 z "},"ė":{"ha":827,"x_min":60,"x_max":783,"o":"m 651 461 q 656 494 654 481 q 657 524 657 508 q 617 637 657 597 q 490 678 578 678 q 319 618 394 678 q 218 461 245 559 l 651 461 m 396 -18 q 149 56 239 -18 q 60 273 60 130 q 191 630 60 481 q 517 779 323 779 q 714 714 646 779 q 783 534 783 650 q 777 470 783 514 q 758 368 771 426 l 200 368 q 194 329 196 348 q 193 294 193 310 q 251 143 193 198 q 416 89 309 89 q 570 118 491 89 q 703 184 649 147 l 710 184 l 682 46 q 621 24 648 34 q 552 3 594 14 q 477 -12 510 -7 q 396 -18 445 -18 m 588 884 l 443 884 l 473 1017 l 618 1017 l 588 884 z "},"Ĝ":{"ha":1077,"x_min":90,"x_max":1082,"o":"m 534 -20 q 208 83 325 -20 q 90 376 90 186 q 133 635 90 516 q 258 842 176 753 q 458 979 340 929 q 724 1028 576 1028 q 902 1007 813 1028 q 1082 937 990 985 l 1052 784 l 1040 784 q 876 886 964 854 q 686 918 787 918 q 490 873 574 918 q 348 756 406 829 q 263 589 292 684 q 234 396 234 493 q 314 171 234 250 q 549 92 393 92 q 678 104 618 92 q 791 136 738 117 l 848 395 l 578 395 l 604 508 l 1008 508 l 908 75 q 827 42 863 56 q 737 12 791 27 q 641 -11 690 -2 q 534 -20 591 -20 m 937 1133 l 833 1133 l 745 1309 l 582 1133 l 472 1133 l 683 1390 l 838 1390 l 937 1133 z "},"ĝ":{"ha":863,"x_min":14,"x_max":825,"o":"m 825 758 l 671 84 q 525 -198 627 -109 q 241 -287 422 -287 q 123 -278 182 -287 q 14 -254 64 -269 l 43 -127 l 50 -127 q 153 -160 88 -144 q 274 -176 217 -176 q 384 -159 338 -176 q 458 -114 429 -142 q 504 -48 486 -85 q 532 37 522 -10 l 548 103 q 427 34 479 57 q 294 12 375 12 q 121 79 183 12 q 58 269 58 146 q 91 460 58 368 q 180 625 123 553 q 316 736 237 694 q 485 779 395 779 q 601 764 550 779 q 690 725 652 749 l 706 758 l 825 758 m 667 621 q 577 656 623 644 q 485 669 532 669 q 364 638 418 669 q 270 555 309 608 q 212 434 233 505 q 191 292 191 363 q 228 169 191 212 q 345 125 264 125 q 459 149 401 125 q 572 208 517 172 l 667 621 m 750 880 l 647 880 l 559 1056 l 395 880 l 286 880 l 496 1137 l 651 1137 l 750 880 z "},"Ġ":{"ha":1077,"x_min":90,"x_max":1082,"o":"m 534 -20 q 208 83 325 -20 q 90 376 90 186 q 133 635 90 516 q 258 842 176 753 q 458 979 340 929 q 724 1028 576 1028 q 902 1007 813 1028 q 1082 937 990 985 l 1052 784 l 1040 784 q 876 886 964 854 q 686 918 787 918 q 490 873 574 918 q 348 756 406 829 q 263 589 292 684 q 234 396 234 493 q 314 171 234 250 q 549 92 393 92 q 678 104 618 92 q 791 136 738 117 l 848 395 l 578 395 l 604 508 l 1008 508 l 908 75 q 827 42 863 56 q 737 12 791 27 q 641 -11 690 -2 q 534 -20 591 -20 m 764 1137 l 618 1137 l 649 1270 l 794 1270 l 764 1137 z "},"ġ":{"ha":863,"x_min":14,"x_max":825,"o":"m 825 758 l 671 84 q 525 -198 627 -109 q 241 -287 422 -287 q 123 -278 182 -287 q 14 -254 64 -269 l 43 -127 l 50 -127 q 153 -160 88 -144 q 274 -176 217 -176 q 384 -159 338 -176 q 458 -114 429 -142 q 504 -48 486 -85 q 532 37 522 -10 l 548 103 q 427 34 479 57 q 294 12 375 12 q 121 79 183 12 q 58 269 58 146 q 91 460 58 368 q 180 625 123 553 q 316 736 237 694 q 485 779 395 779 q 601 764 550 779 q 690 725 652 749 l 706 758 l 825 758 m 667 621 q 577 656 623 644 q 485 669 532 669 q 364 638 418 669 q 270 555 309 608 q 212 434 233 505 q 191 292 191 363 q 228 169 191 212 q 345 125 264 125 q 459 149 401 125 q 572 208 517 172 l 667 621 m 574 884 l 429 884 l 460 1017 l 605 1017 l 574 884 z "},"Ģ":{"ha":1077,"x_min":90,"x_max":1082,"o":"m 528 -19 q 207 85 323 -18 q 90 376 90 188 q 133 635 90 516 q 258 842 176 753 q 458 979 340 929 q 724 1028 576 1028 q 902 1007 813 1028 q 1082 937 990 985 l 1052 784 l 1040 784 q 876 886 964 854 q 686 918 787 918 q 490 873 574 918 q 348 756 406 829 q 263 589 292 684 q 234 396 234 493 q 314 171 234 250 q 549 92 393 92 q 678 104 618 92 q 791 136 738 117 l 848 395 l 578 395 l 604 508 l 1008 508 l 908 75 q 827 42 863 56 q 737 12 791 28 q 686 -1 713 5 q 633 -12 660 -7 q 553 -213 626 -140 q 362 -287 479 -287 q 296 -281 333 -287 q 230 -267 258 -275 l 252 -166 l 258 -166 q 303 -182 275 -173 q 365 -191 331 -191 q 487 -146 450 -191 q 528 -19 525 -102 z "},"ģ":{"ha":863,"x_min":14,"x_max":825,"o":"m 825 758 l 671 84 q 525 -198 627 -109 q 241 -287 422 -287 q 123 -278 182 -287 q 14 -254 64 -269 l 43 -127 l 50 -127 q 153 -160 88 -144 q 274 -176 217 -176 q 384 -159 338 -176 q 458 -114 429 -142 q 504 -48 486 -85 q 532 37 522 -10 l 548 103 q 427 34 479 57 q 294 12 375 12 q 121 79 183 12 q 58 269 58 146 q 91 460 58 368 q 180 625 123 553 q 316 736 237 694 q 485 779 395 779 q 601 764 550 779 q 690 725 652 749 l 706 758 l 825 758 m 667 621 q 577 656 623 644 q 485 669 532 669 q 364 638 418 669 q 270 555 309 608 q 212 434 233 505 q 191 292 191 363 q 228 169 191 212 q 345 125 264 125 q 459 149 401 125 q 572 208 517 172 l 667 621 m 720 1137 l 540 883 l 368 883 l 612 1137 l 720 1137 z "},"Ĥ":{"ha":1044,"x_min":48,"x_max":1053,"o":"m 1053 1010 l 821 0 l 686 0 l 801 496 l 297 496 l 182 0 l 48 0 l 281 1010 l 415 1010 l 323 610 l 827 610 l 919 1010 l 1053 1010 m 910 1133 l 807 1133 l 719 1309 l 555 1133 l 446 1133 l 656 1390 l 811 1390 l 910 1133 z "},"ĥ":{"ha":879,"x_min":38,"x_max":812,"o":"m 797 585 q 794 541 797 568 q 785 492 791 513 l 671 0 l 544 0 l 644 431 q 656 494 652 467 q 661 547 661 521 q 632 633 661 604 q 531 662 604 662 q 417 633 479 662 q 296 566 355 605 l 165 0 l 38 0 l 281 1055 l 409 1055 l 321 673 q 457 751 393 724 q 587 779 520 779 q 742 729 686 779 q 797 585 797 679 m 812 1133 l 709 1133 l 621 1309 l 458 1133 l 348 1133 l 559 1390 l 713 1390 l 812 1133 z "},"Ħ":{"ha":1044,"x_min":48,"x_max":1131,"o":"m 1108 755 l 995 755 l 821 0 l 686 0 l 801 496 l 297 496 l 182 0 l 48 0 l 222 755 l 106 755 l 129 847 l 243 847 l 281 1010 l 415 1010 l 378 847 l 882 847 l 919 1010 l 1053 1010 l 1016 847 l 1131 847 l 1108 755 m 827 610 l 861 755 l 357 755 l 323 610 l 827 610 z "},"ħ":{"ha":879,"x_min":38,"x_max":797,"o":"m 797 585 q 794 541 797 568 q 785 492 791 513 l 671 0 l 544 0 l 644 431 q 656 494 652 467 q 661 547 661 521 q 632 633 661 604 q 531 662 604 662 q 417 633 479 662 q 296 566 355 605 l 165 0 l 38 0 l 237 863 l 123 863 l 144 951 l 258 951 l 281 1055 l 409 1055 l 385 951 l 604 951 l 583 863 l 364 863 l 321 673 q 457 751 393 724 q 587 779 520 779 q 742 729 686 779 q 797 585 797 679 z "},"Ĩ":{"ha":585,"x_min":5,"x_max":744,"o":"m 405 0 l 5 0 l 27 98 l 159 98 l 348 911 l 216 911 l 238 1010 l 638 1010 l 616 911 l 484 911 l 295 98 l 427 98 l 405 0 m 744 1351 q 669 1194 718 1245 q 549 1143 621 1143 q 485 1156 511 1143 q 435 1195 458 1168 q 392 1238 412 1222 q 348 1253 372 1253 q 296 1225 317 1253 q 262 1141 275 1196 l 178 1141 q 254 1296 201 1244 q 372 1348 307 1348 q 434 1334 406 1348 q 484 1297 463 1321 q 529 1255 508 1270 q 574 1241 549 1241 q 627 1271 604 1241 q 661 1351 649 1300 l 744 1351 z "},"ĩ":{"ha":381,"x_min":39,"x_max":543,"o":"m 342 758 l 167 0 l 39 0 l 214 758 l 342 758 m 543 1082 q 483 952 526 997 q 385 907 440 907 q 339 915 355 907 q 305 946 323 923 q 276 981 290 968 q 247 993 262 993 q 208 969 223 993 q 183 902 193 946 l 107 902 q 168 1033 124 989 q 265 1078 212 1078 q 314 1067 298 1078 q 345 1038 330 1056 q 377 1001 365 1011 q 403 991 389 991 q 443 1016 427 991 q 467 1082 459 1040 l 543 1082 z "},"Ī":{"ha":585,"x_min":5,"x_max":727,"o":"m 405 0 l 5 0 l 27 98 l 159 98 l 348 911 l 216 911 l 238 1010 l 638 1010 l 616 911 l 484 911 l 295 98 l 427 98 l 405 0 m 703 1160 l 212 1160 l 235 1263 l 727 1263 l 703 1160 z "},"ī":{"ha":381,"x_min":39,"x_max":503,"o":"m 342 758 l 167 0 l 39 0 l 214 758 l 342 758 m 479 907 l 92 907 l 116 1010 l 503 1010 l 479 907 z "},"Ĭ":{"ha":585,"x_min":5,"x_max":747,"o":"m 405 0 l 5 0 l 27 98 l 159 98 l 348 911 l 216 911 l 238 1010 l 638 1010 l 616 911 l 484 911 l 295 98 l 427 98 l 405 0 m 747 1390 q 641 1201 717 1272 q 450 1131 566 1131 q 299 1186 349 1131 q 248 1341 248 1241 q 249 1365 248 1354 q 252 1390 250 1375 l 364 1390 q 362 1367 363 1377 q 362 1349 362 1356 q 387 1249 362 1280 q 467 1219 412 1219 q 568 1259 526 1219 q 635 1390 610 1299 l 747 1390 z "},"ĭ":{"ha":381,"x_min":39,"x_max":528,"o":"m 342 758 l 167 0 l 39 0 l 214 758 l 342 758 m 528 1112 q 445 939 505 1000 q 293 878 384 878 q 179 921 216 878 q 141 1038 141 964 q 143 1077 141 1059 q 149 1112 146 1095 l 248 1112 q 242 1073 244 1094 q 239 1038 239 1051 q 257 976 239 996 q 309 957 275 957 q 382 991 352 957 q 429 1112 412 1025 l 528 1112 z "},"Į":{"ha":585,"x_min":5,"x_max":638,"o":"m 166 0 l 5 0 l 27 98 l 159 98 l 348 911 l 216 911 l 238 1010 l 638 1010 l 616 911 l 484 911 l 295 98 l 427 98 l 405 0 l 271 0 q 249 -55 260 -21 q 238 -115 238 -88 q 260 -169 238 -151 q 326 -186 282 -186 q 372 -180 349 -186 q 410 -166 396 -174 l 416 -166 l 391 -269 q 337 -279 366 -275 q 286 -283 309 -283 q 172 -248 216 -283 q 128 -142 128 -213 q 139 -72 128 -109 q 166 0 149 -35 z "},"į":{"ha":381,"x_min":-18,"x_max":410,"o":"m 410 1017 l 380 884 l 235 884 l 265 1017 l 410 1017 m -18 -142 q 0 -48 -18 -95 q 52 56 18 -1 l 214 758 l 342 758 l 167 0 l 123 0 q 103 -55 113 -21 q 92 -115 92 -88 q 114 -169 92 -151 q 180 -186 136 -186 q 227 -180 203 -186 q 264 -166 250 -174 l 270 -166 l 245 -269 q 191 -279 220 -275 q 140 -283 163 -283 q 26 -248 71 -283 q -18 -142 -18 -213 z "},"Ĵ":{"ha":631,"x_min":-53,"x_max":712,"o":"m 481 262 q 353 57 450 129 q 120 -14 257 -14 q 35 -8 87 -14 q -53 5 -18 -3 l -24 126 l -17 126 q 47 106 9 117 q 128 96 85 96 q 231 112 190 96 q 294 155 271 127 q 333 225 319 184 q 357 313 347 266 l 493 907 l 273 907 l 297 1010 l 652 1010 l 481 262 m 712 1133 l 609 1133 l 521 1309 l 357 1133 l 248 1133 l 458 1390 l 613 1390 l 712 1133 z "},"ĵ":{"ha":478,"x_min":-182,"x_max":534,"o":"m 262 -18 q 154 -218 232 -150 q -39 -287 77 -287 q -110 -281 -66 -287 q -182 -268 -154 -276 l -156 -152 l -149 -152 q -103 -169 -130 -161 q -41 -178 -76 -178 q 39 -163 7 -178 q 92 -119 71 -149 q 124 -48 111 -91 q 147 40 137 -6 l 289 655 l 131 655 l 155 758 l 441 758 l 262 -18 m 534 880 l 431 880 l 349 1056 l 193 880 l 83 880 l 287 1137 l 441 1137 l 534 880 z "},"Ķ":{"ha":962,"x_min":51,"x_max":1062,"o":"m 871 0 l 713 0 l 401 451 l 263 334 l 186 0 l 51 0 l 284 1010 l 420 1010 l 298 486 l 891 1010 l 1062 1010 l 508 526 l 871 0 m 516 14 q 443 -207 516 -126 q 240 -287 370 -287 q 174 -281 211 -287 q 108 -267 136 -275 l 130 -166 l 136 -166 q 181 -182 153 -173 q 243 -191 209 -191 q 367 -144 330 -191 q 405 14 405 -98 l 516 14 z "},"ķ":{"ha":815,"x_min":18,"x_max":870,"o":"m 734 0 l 579 0 l 337 333 l 227 244 l 172 0 l 43 0 l 287 1055 l 416 1055 l 258 377 l 703 758 l 870 758 l 438 399 l 734 0 m 427 14 q 354 -207 427 -126 q 151 -287 281 -287 q 84 -281 121 -287 q 18 -267 47 -275 l 41 -166 l 47 -166 q 91 -182 63 -173 q 153 -191 119 -191 q 278 -144 240 -191 q 315 14 315 -98 l 427 14 z "},"ĸ":{"ha":815,"x_min":43,"x_max":870,"o":"m 734 0 l 579 0 l 337 333 l 227 244 l 172 0 l 43 0 l 218 758 l 347 758 l 258 377 l 703 758 l 870 758 l 438 399 l 734 0 z "},"Ļ":{"ha":773,"x_min":47,"x_max":713,"o":"m 391 0 l 47 0 l 281 1010 l 416 1010 l 210 115 l 713 115 l 687 0 l 498 0 q 419 -210 494 -132 q 225 -287 345 -287 q 159 -281 196 -287 q 93 -267 121 -275 l 115 -166 l 121 -166 q 166 -182 138 -173 q 228 -191 194 -191 q 352 -146 313 -191 q 391 0 391 -101 z "},"ļ":{"ha":381,"x_min":-153,"x_max":412,"o":"m 102 -145 q 121 -122 102 -145 q 140 0 140 -99 l 39 0 l 283 1055 l 412 1055 l 171 14 l 247 14 l 247 10 q 172 -207 247 -127 q -24 -287 96 -287 q -85 -282 -47 -287 q -153 -268 -123 -277 l -130 -168 l -124 -168 q -81 -182 -108 -174 q -22 -191 -55 -191 q 102 -145 63 -191 z "},"Ņ":{"ha":1039,"x_min":47,"x_max":1053,"o":"m 819 0 l 659 0 l 383 903 l 174 0 l 47 0 l 281 1010 l 483 1010 l 735 185 l 926 1010 l 1053 1010 l 819 0 m 508 14 q 435 -207 508 -126 q 232 -287 362 -287 q 165 -281 203 -287 q 100 -267 128 -275 l 122 -166 l 128 -166 q 173 -182 144 -173 q 235 -191 201 -191 q 359 -144 321 -191 q 397 14 397 -98 l 508 14 z "},"ņ":{"ha":879,"x_min":26,"x_max":797,"o":"m 797 585 q 794 541 797 568 q 785 492 791 513 l 671 0 l 544 0 l 644 431 q 656 494 652 467 q 661 547 661 521 q 632 633 661 604 q 531 662 604 662 q 417 633 479 662 q 296 566 355 605 l 165 0 l 38 0 l 213 758 l 340 758 l 321 673 q 457 751 393 724 q 587 779 520 779 q 742 729 686 779 q 797 585 797 679 m 435 14 q 362 -207 435 -126 q 159 -287 289 -287 q 92 -281 130 -287 q 26 -267 55 -275 l 49 -166 l 55 -166 q 99 -182 71 -173 q 161 -191 127 -191 q 286 -144 248 -191 q 323 14 323 -98 l 435 14 z "},"Ŋ":{"ha":1039,"x_min":47,"x_max":1053,"o":"m 634 -130 q 656 -107 634 -130 q 693 -7 677 -85 l 383 903 l 174 0 l 47 0 l 281 1010 l 483 1010 l 747 238 l 926 1010 l 1053 1010 l 816 -16 q 701 -220 783 -153 q 494 -287 618 -287 q 439 -284 467 -287 q 387 -277 412 -281 l 412 -165 l 420 -165 q 454 -172 434 -169 q 495 -176 475 -176 q 634 -130 591 -176 z "},"ŋ":{"ha":879,"x_min":38,"x_max":797,"o":"m 275 -166 q 309 -173 292 -170 q 346 -176 326 -176 q 478 -135 435 -176 q 551 33 522 -94 l 644 431 q 656 494 652 467 q 661 547 661 521 q 632 633 661 604 q 531 662 604 662 q 417 633 479 662 q 296 566 355 605 l 165 0 l 38 0 l 213 758 l 340 758 l 321 673 q 457 751 393 724 q 587 779 520 779 q 742 729 686 779 q 797 585 797 679 q 793 541 797 568 q 785 492 790 513 l 667 -19 q 552 -221 635 -156 q 345 -287 469 -287 q 293 -284 319 -287 q 242 -278 267 -282 l 268 -166 l 275 -166 z "},"Ō":{"ha":1093,"x_min":91,"x_max":1060,"o":"m 1060 652 q 1020 399 1060 521 q 905 184 981 277 q 720 34 828 88 q 475 -21 611 -21 q 193 78 294 -21 q 91 358 91 176 q 132 616 91 496 q 249 831 172 736 q 434 976 323 922 q 675 1031 544 1031 q 958 933 855 1031 q 1060 652 1060 835 m 803 251 q 889 424 860 328 q 918 633 918 519 q 849 846 918 772 q 654 920 779 920 q 479 876 557 920 q 345 755 401 831 q 262 582 291 681 q 233 379 233 484 q 302 164 233 239 q 497 90 372 90 q 671 134 593 90 q 803 251 749 178 m 975 1160 l 399 1160 l 422 1263 l 999 1263 l 975 1160 z "},"ō":{"ha":843,"x_min":60,"x_max":820,"o":"m 783 490 q 751 294 783 388 q 663 132 720 201 q 527 19 604 60 q 347 -21 450 -21 q 136 56 212 -21 q 60 269 60 133 q 91 463 60 370 q 180 627 122 555 q 318 737 237 696 q 497 779 400 779 q 705 704 628 779 q 783 490 783 629 m 575 203 q 631 329 612 258 q 650 479 650 400 q 605 623 650 574 q 477 672 559 672 q 359 641 411 672 q 269 554 307 609 q 212 429 232 500 q 193 279 193 357 q 238 136 193 186 q 367 85 283 85 q 485 117 432 85 q 575 203 538 148 m 796 907 l 220 907 l 243 1010 l 820 1010 l 796 907 z "},"Ŏ":{"ha":1093,"x_min":91,"x_max":1060,"o":"m 1060 652 q 1020 399 1060 521 q 905 184 981 277 q 720 34 828 88 q 475 -21 611 -21 q 193 78 294 -21 q 91 358 91 176 q 132 616 91 496 q 249 831 172 736 q 434 976 323 922 q 675 1031 544 1031 q 958 933 855 1031 q 1060 652 1060 835 m 803 251 q 889 424 860 328 q 918 633 918 519 q 849 846 918 772 q 654 920 779 920 q 479 876 557 920 q 345 755 401 831 q 262 582 291 681 q 233 379 233 484 q 302 164 233 239 q 497 90 372 90 q 671 134 593 90 q 803 251 749 178 m 985 1390 q 872 1199 954 1268 q 682 1131 791 1131 q 528 1185 583 1131 q 473 1341 473 1240 q 474 1365 473 1354 q 476 1390 475 1375 l 589 1390 q 587 1367 587 1377 q 587 1349 587 1356 q 615 1250 587 1281 q 698 1219 644 1219 q 802 1257 755 1219 q 873 1390 848 1295 l 985 1390 z "},"ŏ":{"ha":843,"x_min":60,"x_max":808,"o":"m 783 490 q 751 294 783 388 q 663 132 720 201 q 527 19 604 60 q 347 -21 450 -21 q 136 56 212 -21 q 60 269 60 133 q 91 463 60 370 q 180 627 122 555 q 318 737 237 696 q 497 779 400 779 q 705 704 628 779 q 783 490 783 629 m 575 203 q 631 329 612 258 q 650 479 650 400 q 605 623 650 574 q 477 672 559 672 q 359 641 411 672 q 269 554 307 609 q 212 429 232 500 q 193 279 193 357 q 238 136 193 186 q 367 85 283 85 q 485 117 432 85 q 575 203 538 148 m 808 1137 q 695 946 777 1015 q 505 878 614 878 q 351 932 406 878 q 296 1088 296 987 q 297 1112 296 1101 q 299 1137 298 1122 l 412 1137 q 410 1114 410 1124 q 410 1096 410 1103 q 438 997 410 1028 q 521 966 467 966 q 625 1004 578 966 q 696 1137 671 1042 l 808 1137 z "},"Ŗ":{"ha":966,"x_min":47,"x_max":892,"o":"m 741 759 q 730 820 741 795 q 697 862 720 844 q 634 891 671 883 q 543 899 597 899 l 391 899 l 300 510 l 443 510 q 558 522 509 510 q 647 565 607 534 q 716 650 692 599 q 741 759 741 701 m 892 0 l 734 0 l 468 404 l 276 404 l 183 0 l 47 0 l 280 1010 l 555 1010 q 705 998 648 1010 q 806 955 763 986 q 865 888 844 927 q 887 789 887 848 q 808 568 887 663 q 601 435 729 473 l 892 0 m 522 14 q 449 -207 522 -126 q 245 -287 376 -287 q 179 -281 216 -287 q 113 -267 142 -275 l 136 -166 l 142 -166 q 186 -182 158 -173 q 248 -191 214 -191 q 373 -144 335 -191 q 410 14 410 -98 l 522 14 z "},"ŗ":{"ha":593,"x_min":-138,"x_max":679,"o":"m -138 -268 l -115 -168 l -109 -168 q -66 -182 -93 -174 q -7 -191 -40 -191 q 119 -140 86 -191 q 153 0 152 -90 l 38 0 l 211 758 l 340 758 l 314 646 q 467 733 404 709 q 587 758 530 758 q 635 756 621 758 q 679 749 650 754 l 650 623 l 643 623 q 592 633 616 630 q 536 636 569 636 q 409 607 472 636 q 289 538 347 578 l 170 14 l 260 14 l 260 10 q 185 -207 260 -127 q -9 -287 111 -287 q -70 -282 -32 -287 q -138 -268 -108 -277 z "},"Ŝ":{"ha":949,"x_min":35,"x_max":947,"o":"m 397 -18 q 210 2 298 -18 q 35 66 121 23 l 68 220 l 77 220 q 237 125 142 158 q 420 92 332 92 q 641 150 564 92 q 718 296 718 207 q 691 374 718 342 q 610 420 663 405 q 506 443 566 432 q 390 467 445 454 q 225 549 283 491 q 167 692 167 606 q 289 932 167 836 q 606 1028 412 1028 q 798 1006 711 1028 q 947 954 884 984 l 916 810 l 907 810 q 769 886 859 854 q 582 918 680 918 q 385 863 458 918 q 311 726 311 809 q 338 647 311 681 q 432 596 364 613 q 547 571 475 586 q 668 544 619 557 q 814 465 764 517 q 864 334 864 413 q 831 201 864 267 q 741 89 799 136 q 594 10 678 39 q 397 -18 511 -18 m 832 1133 l 729 1133 l 641 1309 l 477 1133 l 368 1133 l 578 1390 l 733 1390 l 832 1133 z "},"ŝ":{"ha":724,"x_min":12,"x_max":702,"o":"m 275 -18 q 123 3 190 -18 q 12 48 56 24 l 40 184 l 47 184 q 84 156 61 172 q 142 123 106 139 q 215 96 174 107 q 302 85 256 85 q 452 120 398 85 q 507 224 507 155 q 479 279 507 260 q 399 311 451 298 q 335 324 372 317 q 260 342 298 332 q 143 407 181 364 q 105 510 105 449 q 128 609 105 563 q 197 694 151 655 q 307 753 240 730 q 456 776 374 776 q 592 759 524 776 q 702 717 659 742 l 675 587 l 668 587 q 635 610 657 595 q 579 641 613 625 q 511 663 550 654 q 430 673 472 673 q 292 637 345 673 q 239 540 239 602 q 265 483 239 506 q 344 448 291 460 q 413 432 377 439 q 484 417 450 425 q 602 356 562 397 q 642 252 642 315 q 617 150 642 200 q 545 64 592 100 q 429 3 497 25 q 275 -18 360 -18 m 672 880 l 569 880 l 481 1056 l 317 880 l 208 880 l 418 1137 l 573 1137 l 672 880 z "},"Ŧ":{"ha":856,"x_min":119,"x_max":1001,"o":"m 749 502 l 524 502 l 408 0 l 273 0 l 389 502 l 163 502 l 186 596 l 410 596 l 479 895 l 119 895 l 145 1010 l 1001 1010 l 975 895 l 615 895 l 546 596 l 772 596 l 749 502 z "},"ŧ":{"ha":547,"x_min":39,"x_max":606,"o":"m 478 452 l 458 364 l 253 364 l 239 305 q 227 244 233 279 q 221 190 221 210 q 246 116 221 140 q 339 92 271 92 q 405 102 367 92 q 457 117 444 111 l 464 117 l 440 7 q 359 -9 402 -3 q 283 -15 316 -15 q 138 26 189 -15 q 87 156 87 67 q 90 199 87 178 q 98 248 92 221 l 125 364 l 39 364 l 59 452 l 146 452 l 193 654 l 106 654 l 130 758 l 216 758 l 267 975 l 394 975 l 343 758 l 606 758 l 583 654 l 320 654 l 273 452 l 478 452 z "},"Ũ":{"ha":1017,"x_min":105,"x_max":1042,"o":"m 902 406 q 835 213 876 292 q 727 78 794 133 q 592 3 665 28 q 420 -21 519 -21 q 183 51 261 -21 q 105 250 105 123 q 111 329 105 292 q 125 406 117 366 l 265 1010 l 401 1010 l 260 399 q 247 327 252 367 q 241 265 241 288 q 292 135 241 180 q 444 90 343 90 q 572 112 517 90 q 667 179 627 134 q 726 272 704 221 q 764 395 748 323 l 906 1010 l 1042 1010 l 902 406 m 970 1351 q 895 1194 943 1245 q 774 1143 846 1143 q 711 1156 737 1143 q 661 1195 684 1168 q 618 1238 638 1222 q 574 1253 598 1253 q 522 1225 543 1253 q 488 1141 501 1196 l 404 1141 q 480 1296 427 1244 q 598 1348 533 1348 q 660 1334 632 1348 q 710 1297 688 1321 q 754 1255 734 1270 q 800 1241 775 1241 q 852 1271 830 1241 q 886 1351 875 1300 l 970 1351 z "},"ũ":{"ha":879,"x_min":83,"x_max":841,"o":"m 841 758 l 666 0 l 538 0 l 558 84 q 423 7 486 35 q 290 -21 360 -21 q 138 28 193 -21 q 83 172 83 77 q 86 216 83 195 q 94 266 89 238 l 208 758 l 335 758 l 235 326 q 224 266 229 300 q 218 212 218 232 q 248 125 218 154 q 349 96 277 96 q 464 125 399 96 q 583 192 528 154 l 713 758 l 841 758 m 840 1098 q 765 941 813 992 q 644 890 716 890 q 581 903 607 890 q 531 942 554 915 q 488 985 508 969 q 444 1000 468 1000 q 392 972 412 1000 q 358 888 371 943 l 273 888 q 350 1043 297 991 q 468 1095 403 1095 q 530 1081 502 1095 q 580 1044 558 1068 q 624 1002 604 1017 q 669 988 645 988 q 722 1018 700 988 q 756 1098 745 1047 l 840 1098 z "},"Ū":{"ha":1017,"x_min":105,"x_max":1042,"o":"m 902 406 q 835 213 876 292 q 727 78 794 133 q 592 3 665 28 q 420 -21 519 -21 q 183 51 261 -21 q 105 250 105 123 q 111 329 105 292 q 125 406 117 366 l 265 1010 l 401 1010 l 260 399 q 247 327 252 367 q 241 265 241 288 q 292 135 241 180 q 444 90 343 90 q 572 112 517 90 q 667 179 627 134 q 726 272 704 221 q 764 395 748 323 l 906 1010 l 1042 1010 l 902 406 m 957 1160 l 380 1160 l 404 1263 l 981 1263 l 957 1160 z "},"ū":{"ha":879,"x_min":83,"x_max":853,"o":"m 841 758 l 666 0 l 538 0 l 558 84 q 423 7 486 35 q 290 -21 360 -21 q 138 28 193 -21 q 83 172 83 77 q 86 216 83 195 q 94 266 89 238 l 208 758 l 335 758 l 235 326 q 224 266 229 300 q 218 212 218 232 q 248 125 218 154 q 349 96 277 96 q 464 125 399 96 q 583 192 528 154 l 713 758 l 841 758 m 829 907 l 253 907 l 277 1010 l 853 1010 l 829 907 z "},"Ŭ":{"ha":1017,"x_min":105,"x_max":1042,"o":"m 902 406 q 835 213 876 292 q 727 78 794 133 q 592 3 665 28 q 420 -21 519 -21 q 183 51 261 -21 q 105 250 105 123 q 111 329 105 292 q 125 406 117 366 l 265 1010 l 401 1010 l 260 399 q 247 327 252 367 q 241 265 241 288 q 292 135 241 180 q 444 90 343 90 q 572 112 517 90 q 667 179 627 134 q 726 272 704 221 q 764 395 748 323 l 906 1010 l 1042 1010 l 902 406 m 964 1390 q 851 1199 932 1268 q 661 1131 770 1131 q 507 1185 562 1131 q 452 1341 452 1240 q 453 1365 452 1354 q 455 1390 454 1375 l 568 1390 q 566 1367 566 1377 q 566 1349 566 1356 q 594 1250 566 1281 q 677 1219 623 1219 q 781 1257 734 1219 q 852 1390 827 1295 l 964 1390 z "},"ŭ":{"ha":879,"x_min":83,"x_max":841,"o":"m 841 758 l 666 0 l 538 0 l 558 84 q 423 7 486 35 q 290 -21 360 -21 q 138 28 193 -21 q 83 172 83 77 q 86 216 83 195 q 94 266 89 238 l 208 758 l 335 758 l 235 326 q 224 266 229 300 q 218 212 218 232 q 248 125 218 154 q 349 96 277 96 q 464 125 399 96 q 583 192 528 154 l 713 758 l 841 758 m 831 1137 q 718 946 799 1015 q 527 878 636 878 q 373 932 428 878 q 318 1088 318 987 q 319 1112 318 1101 q 321 1137 320 1122 l 434 1137 q 432 1114 433 1124 q 432 1096 432 1103 q 460 997 432 1028 q 543 966 489 966 q 647 1004 601 966 q 719 1137 693 1042 l 831 1137 z "},"Ų":{"ha":1017,"x_min":105,"x_max":1042,"o":"m 427 -129 q 434 -73 427 -98 q 451 -20 441 -47 q 436 -20 444 -20 q 420 -20 428 -20 q 183 51 261 -20 q 105 250 105 123 q 111 329 105 292 q 125 406 117 366 l 265 1010 l 401 1010 l 260 399 q 247 327 252 367 q 241 265 241 288 q 292 135 241 180 q 444 90 343 90 q 572 112 517 90 q 667 179 627 134 q 726 272 704 221 q 764 395 748 323 l 906 1010 l 1042 1010 l 902 406 q 835 213 876 292 q 727 78 794 133 q 648 27 690 48 q 559 -5 607 6 q 544 -57 550 -29 q 537 -106 537 -85 q 563 -166 537 -146 q 640 -186 589 -186 q 692 -178 663 -186 q 739 -163 722 -170 l 744 -163 l 720 -265 q 656 -279 682 -275 q 602 -283 630 -283 q 473 -242 519 -283 q 427 -129 427 -202 z "},"ų":{"ha":879,"x_min":83,"x_max":841,"o":"m 502 -129 q 512 -64 502 -95 q 538 0 523 -33 l 558 84 q 423 7 486 35 q 290 -21 360 -21 q 138 28 193 -21 q 83 172 83 77 q 86 216 83 195 q 94 266 89 238 l 208 758 l 335 758 l 235 326 q 224 266 229 300 q 218 212 218 232 q 248 125 218 154 q 349 96 277 96 q 464 125 399 96 q 583 192 528 154 l 713 758 l 841 758 l 666 0 l 647 0 q 625 -50 637 -17 q 612 -106 612 -82 q 638 -166 612 -146 q 714 -186 664 -186 q 767 -178 737 -186 q 813 -163 796 -170 l 819 -163 l 795 -265 q 731 -279 757 -275 q 676 -283 705 -283 q 548 -243 595 -283 q 502 -129 502 -203 z "},"Ŵ":{"ha":1375,"x_min":197,"x_max":1450,"o":"m 1450 1010 l 965 0 l 810 0 l 780 836 l 388 0 l 239 0 l 197 1010 l 334 1010 l 361 172 l 756 1010 l 892 1010 l 920 163 l 1318 1010 l 1450 1010 m 1051 1133 l 948 1133 l 860 1309 l 696 1133 l 587 1133 l 798 1390 l 952 1390 l 1051 1133 z "},"ŵ":{"ha":1137,"x_min":131,"x_max":1156,"o":"m 1156 758 l 804 0 l 685 0 l 609 585 l 296 0 l 178 0 l 131 758 l 261 758 l 281 172 l 590 758 l 696 758 l 770 172 l 1023 758 l 1156 758 m 876 880 l 773 880 l 685 1056 l 522 880 l 412 880 l 623 1137 l 777 1137 l 876 880 z "},"Ŷ":{"ha":854,"x_min":144,"x_max":992,"o":"m 992 1010 l 509 443 l 406 0 l 271 0 l 370 429 l 144 1010 l 288 1010 l 463 556 l 845 1010 l 992 1010 m 807 1133 l 704 1133 l 616 1309 l 452 1133 l 342 1133 l 553 1390 l 708 1390 l 807 1133 z "},"ŷ":{"ha":821,"x_min":35,"x_max":857,"o":"m 175 -279 l 35 -279 l 255 44 l 118 758 l 249 758 l 356 194 l 718 758 l 857 758 l 175 -279 m 722 880 l 618 880 l 530 1056 l 367 880 l 257 880 l 468 1137 l 623 1137 l 722 880 z "},"ſ":{"ha":417,"x_min":41,"x_max":676,"o":"m 650 937 l 643 937 q 591 949 623 943 q 531 956 558 956 q 409 914 450 956 q 347 782 368 873 l 170 0 l 41 0 l 218 782 q 326 988 248 914 q 535 1062 405 1062 q 613 1058 578 1062 q 676 1048 648 1054 l 650 937 z "},"Ǻ":{"ha":948,"x_min":-58,"x_max":900,"o":"m 856 0 l 718 0 l 684 284 l 250 284 l 85 0 l -58 0 l 498 934 q 460 978 475 952 q 444 1038 444 1004 q 509 1175 444 1118 q 665 1232 574 1232 q 784 1190 736 1232 q 831 1084 831 1148 q 804 993 831 1034 q 732 927 777 952 l 856 0 m 669 394 l 607 898 l 315 394 l 669 394 m 727 1074 q 706 1126 727 1104 q 650 1147 685 1147 q 578 1117 606 1147 q 549 1047 549 1087 q 571 992 549 1014 q 626 970 592 970 q 697 1001 668 970 q 727 1074 727 1031 m 900 1389 l 696 1250 l 591 1250 l 728 1389 l 900 1389 z "},"ǻ":{"ha":834,"x_min":26,"x_max":787,"o":"m 593 400 q 408 386 487 396 q 273 353 329 375 q 190 291 218 330 q 161 193 161 252 q 195 118 161 144 q 298 92 229 92 q 436 124 367 92 q 543 186 505 157 l 593 400 m 519 81 q 469 50 500 70 q 405 16 437 30 q 328 -11 370 0 q 229 -21 285 -21 q 82 32 139 -21 q 26 169 26 84 q 65 321 26 259 q 183 422 105 383 q 369 478 260 461 q 615 500 477 496 q 622 533 619 519 q 625 562 625 547 q 612 614 625 593 q 575 648 600 635 q 522 664 554 659 q 450 669 489 669 q 322 651 393 669 q 199 613 252 633 l 192 613 l 217 740 q 276 753 241 746 q 359 768 312 761 q 335 809 345 784 q 325 856 325 833 q 391 991 325 936 q 541 1046 457 1046 q 660 1005 612 1046 q 707 899 707 964 q 686 820 707 856 q 629 756 665 783 q 722 697 688 737 q 756 592 756 657 q 753 553 756 574 q 746 514 750 532 l 627 0 l 500 0 l 519 81 m 608 887 q 586 941 608 920 q 528 962 564 962 q 455 931 486 962 q 424 859 424 901 q 447 804 424 827 q 505 782 470 782 q 577 813 547 782 q 608 887 608 845 m 787 1250 l 576 1064 l 472 1064 l 616 1250 l 787 1250 z "},"Ǽ":{"ha":1374,"x_min":-78,"x_max":1442,"o":"m 1209 0 l 568 0 l 656 379 l 307 379 l 68 0 l -78 0 l 571 1010 l 1442 1010 l 1416 895 l 909 895 l 842 610 l 1350 610 l 1324 496 l 817 496 l 728 115 l 1235 115 l 1209 0 m 680 487 l 777 903 l 641 903 l 373 487 l 680 487 m 1215 1390 l 975 1136 l 869 1136 l 1041 1390 l 1215 1390 z "},"ǽ":{"ha":1326,"x_min":35,"x_max":1281,"o":"m 1281 535 q 1276 473 1281 514 q 1259 381 1272 431 l 703 381 q 696 336 699 361 q 693 294 693 311 q 752 140 693 191 q 916 89 812 89 q 1067 118 990 89 q 1198 185 1143 148 l 1206 185 l 1179 46 q 1046 2 1118 22 q 895 -18 974 -18 q 708 18 781 -18 q 597 123 635 54 q 544 83 581 111 q 471 37 507 55 q 365 -4 422 12 q 239 -20 308 -20 q 92 31 149 -20 q 35 165 35 82 q 77 324 35 264 q 196 418 119 384 q 377 462 268 450 q 605 477 486 475 q 614 523 610 506 q 617 559 617 540 q 576 641 617 613 q 439 669 534 669 q 313 651 383 669 q 193 612 243 633 l 184 612 l 210 741 q 321 764 248 751 q 462 777 393 777 q 637 746 574 777 q 726 652 700 714 q 860 743 784 708 q 1020 779 935 779 q 1215 715 1148 779 q 1281 535 1281 651 m 1157 519 q 1116 640 1157 601 q 993 678 1074 678 q 829 623 900 678 q 724 475 758 568 l 1154 475 q 1156 496 1156 485 q 1157 519 1157 507 m 579 380 q 433 373 512 378 q 301 351 355 368 q 207 297 243 334 q 170 195 170 260 q 204 119 170 144 q 308 93 237 93 q 445 124 374 93 q 572 202 516 156 q 569 236 570 218 q 568 270 568 254 q 570 322 568 296 q 579 380 573 348 m 1035 1137 l 794 883 l 688 883 l 861 1137 l 1035 1137 z "},"Ǿ":{"ha":1093,"x_min":54,"x_max":1082,"o":"m 870 828 l 330 137 q 403 101 361 113 q 497 88 445 88 q 668 131 588 88 q 804 250 748 173 q 891 423 861 328 q 920 633 920 519 q 908 743 920 693 q 870 828 895 792 m 280 185 l 821 873 q 745 910 788 898 q 654 922 703 922 q 479 878 557 922 q 344 756 401 833 q 260 584 290 682 q 231 379 231 486 q 243 271 231 321 q 280 185 256 221 m 194 79 q 117 198 144 127 q 90 358 90 269 q 131 615 90 492 q 249 831 172 737 q 433 976 323 922 q 675 1031 544 1031 q 799 1017 742 1031 q 900 975 855 1002 l 993 1093 l 1082 1093 l 956 932 q 1034 814 1008 882 q 1061 652 1061 745 q 1021 399 1061 521 q 906 184 981 277 q 720 34 829 88 q 475 -21 612 -21 q 352 -6 410 -21 q 250 35 294 8 l 144 -99 l 54 -99 l 194 79 m 916 1390 l 675 1136 l 570 1136 l 742 1390 l 916 1390 z "},"ǿ":{"ha":843,"x_min":7,"x_max":822,"o":"m 627 597 l 254 119 q 303 93 275 102 q 367 83 332 83 q 485 115 432 83 q 576 202 538 146 q 633 328 614 258 q 652 479 652 397 q 646 544 652 514 q 627 597 640 574 m 216 162 l 589 640 q 538 666 567 657 q 477 674 510 674 q 357 642 408 674 q 268 555 307 610 q 211 429 232 503 q 191 279 191 355 q 197 215 191 243 q 216 162 203 186 m 134 60 q 79 151 98 98 q 60 269 60 204 q 91 462 60 370 q 180 627 121 555 q 318 737 236 696 q 497 779 400 779 q 587 767 545 779 q 663 734 629 755 l 747 842 l 822 842 l 709 697 q 764 609 745 660 q 783 490 783 558 q 752 296 783 389 q 664 132 722 202 q 527 19 605 60 q 347 -21 450 -21 q 255 -9 298 -21 q 179 23 213 2 l 82 -100 l 7 -100 l 134 60 m 778 1137 l 537 883 l 431 883 l 604 1137 l 778 1137 z "},"·":{"ha":631,"x_min":277,"x_max":485,"o":"m 440 564 l 277 564 l 321 758 l 485 758 l 440 564 z "},"Ẁ":{"ha":1375,"x_min":197,"x_max":1450,"o":"m 1450 1010 l 965 0 l 810 0 l 780 836 l 388 0 l 239 0 l 197 1010 l 334 1010 l 361 172 l 756 1010 l 892 1010 l 920 163 l 1318 1010 l 1450 1010 m 918 1136 l 819 1136 l 686 1390 l 846 1390 l 918 1136 z "},"ẁ":{"ha":1137,"x_min":131,"x_max":1156,"o":"m 1156 758 l 804 0 l 685 0 l 609 585 l 296 0 l 178 0 l 131 758 l 261 758 l 281 172 l 590 758 l 696 758 l 770 172 l 1023 758 l 1156 758 m 727 883 l 629 883 l 495 1137 l 655 1137 l 727 883 z "},"Ẃ":{"ha":1375,"x_min":197,"x_max":1450,"o":"m 1450 1010 l 965 0 l 810 0 l 780 836 l 388 0 l 239 0 l 197 1010 l 334 1010 l 361 172 l 756 1010 l 892 1010 l 920 163 l 1318 1010 l 1450 1010 m 1083 1390 l 842 1136 l 736 1136 l 909 1390 l 1083 1390 z "},"ẃ":{"ha":1137,"x_min":131,"x_max":1156,"o":"m 1156 758 l 804 0 l 685 0 l 609 585 l 296 0 l 178 0 l 131 758 l 261 758 l 281 172 l 590 758 l 696 758 l 770 172 l 1023 758 l 1156 758 m 905 1137 l 664 883 l 558 883 l 730 1137 l 905 1137 z "},"Ẅ":{"ha":1375,"x_min":197,"x_max":1450,"o":"m 1450 1010 l 965 0 l 810 0 l 780 836 l 388 0 l 239 0 l 197 1010 l 334 1010 l 361 172 l 756 1010 l 892 1010 l 920 163 l 1318 1010 l 1450 1010 m 1042 1137 l 906 1137 l 937 1270 l 1073 1270 l 1042 1137 m 761 1137 l 625 1137 l 655 1270 l 791 1270 l 761 1137 z "},"ẅ":{"ha":1137,"x_min":131,"x_max":1156,"o":"m 1156 758 l 804 0 l 685 0 l 609 585 l 296 0 l 178 0 l 131 758 l 261 758 l 281 172 l 590 758 l 696 758 l 770 172 l 1023 758 l 1156 758 m 858 884 l 722 884 l 752 1017 l 888 1017 l 858 884 m 576 884 l 440 884 l 471 1017 l 607 1017 l 576 884 z "},"Ỳ":{"ha":854,"x_min":144,"x_max":992,"o":"m 992 1010 l 509 443 l 406 0 l 271 0 l 370 429 l 144 1010 l 288 1010 l 463 556 l 845 1010 l 992 1010 m 633 1136 l 535 1136 l 401 1390 l 562 1390 l 633 1136 z "},"ỳ":{"ha":821,"x_min":35,"x_max":857,"o":"m 175 -279 l 35 -279 l 255 44 l 118 758 l 249 758 l 356 194 l 718 758 l 857 758 l 175 -279 m 568 883 l 470 883 l 336 1137 l 496 1137 l 568 883 z "},"‛":{"ha":373,"x_min":35,"x_max":403,"o":"m 403 1055 l 203 675 l 35 675 l 307 1055 l 403 1055 z "},"‾":{"ha":883,"x_min":172,"x_max":1079,"o":"m 1079 1213 l 1060 1131 l 172 1131 l 191 1213 l 1079 1213 z "},"₤":{"ha":883,"x_min":10,"x_max":906,"o":"m 713 0 l 10 0 l 39 125 q 163 192 113 144 q 239 330 213 240 l 119 330 l 140 420 l 262 420 l 282 516 l 164 516 l 186 606 l 300 606 l 325 720 q 453 943 353 856 q 691 1029 553 1029 q 811 1019 760 1029 q 906 995 863 1008 l 874 863 l 867 863 q 795 902 842 882 q 678 921 749 921 q 530 865 587 921 q 451 707 473 808 l 429 606 l 715 606 l 694 516 l 410 516 l 389 420 l 670 420 l 648 330 l 370 330 q 292 204 346 256 q 169 119 237 152 l 169 111 l 739 111 l 713 0 z "},"℮":{"ha":997,"x_min":117,"x_max":924,"o":"m 896 431 l 260 431 q 254 380 256 408 q 252 331 252 352 q 318 154 252 218 q 501 89 385 89 q 600 100 548 89 q 696 130 652 112 q 772 167 741 149 q 826 201 803 184 l 835 201 l 806 56 q 656 5 738 28 q 486 -18 574 -18 q 213 67 310 -18 q 117 317 117 153 q 267 735 117 568 q 628 902 417 902 q 846 830 769 902 q 924 622 924 758 q 920 569 924 602 q 911 505 917 536 l 896 431 m 788 530 q 793 572 791 551 q 795 612 795 592 q 745 752 795 702 q 598 802 695 802 q 398 723 485 802 q 281 530 312 645 l 788 530 z "},"⅛":{"ha":1389,"x_min":214,"x_max":1339,"o":"m 362 383 l 249 383 l 356 848 l 214 848 l 232 924 q 348 939 302 924 q 413 1013 393 954 l 507 1013 l 362 383 m 1069 1010 l 362 0 l 249 0 l 956 1010 l 1069 1010 m 1297 199 q 1209 41 1297 103 q 1002 -21 1122 -21 q 840 24 898 -21 q 781 137 781 69 q 827 252 781 203 q 949 329 872 300 l 949 332 q 885 382 905 355 q 864 446 864 410 q 942 587 864 530 q 1134 643 1019 643 q 1284 604 1229 643 q 1339 505 1339 565 q 1303 406 1339 458 q 1191 326 1267 355 l 1191 323 q 1270 271 1242 302 q 1297 199 1297 241 m 1221 481 q 1194 534 1221 512 q 1115 555 1166 555 q 1021 530 1061 555 q 981 464 981 505 q 996 424 981 442 q 1037 394 1011 406 q 1076 377 1052 387 q 1129 359 1099 367 q 1200 415 1179 386 q 1221 481 1221 444 m 1180 184 q 1162 229 1180 211 q 1107 264 1144 246 q 1065 280 1094 271 q 1006 300 1037 289 q 926 239 954 274 q 898 165 898 205 q 935 95 898 123 q 1021 66 971 66 q 1136 99 1092 66 q 1180 184 1180 132 z "},"⅜":{"ha":1389,"x_min":73,"x_max":1365,"o":"m 497 412 q 400 372 456 387 q 283 357 345 357 q 170 369 222 357 q 73 400 118 381 l 99 515 l 108 515 q 185 470 131 490 q 301 450 239 450 q 423 482 374 450 q 473 576 473 513 q 438 636 473 618 q 340 653 404 653 l 254 653 l 275 745 l 351 745 q 472 780 431 745 q 513 863 513 814 q 484 918 513 897 q 397 939 456 939 q 281 918 346 939 q 184 872 216 897 l 174 872 l 199 989 q 309 1019 251 1007 q 425 1031 366 1031 q 581 991 528 1031 q 633 893 633 951 q 590 778 633 826 q 472 709 547 730 l 472 704 q 557 664 522 694 q 592 583 592 634 q 566 482 592 525 q 497 412 540 439 m 1152 1010 l 446 0 l 332 0 l 1039 1010 l 1152 1010 m 1322 199 q 1235 41 1322 103 q 1028 -21 1147 -21 q 865 24 924 -21 q 807 137 807 69 q 852 252 807 203 q 975 329 898 300 l 975 332 q 910 382 931 355 q 890 446 890 410 q 967 587 890 530 q 1160 643 1045 643 q 1310 604 1255 643 q 1365 505 1365 565 q 1329 406 1365 458 q 1217 326 1293 355 l 1217 323 q 1295 271 1268 302 q 1322 199 1322 241 m 1247 481 q 1220 534 1247 512 q 1141 555 1192 555 q 1047 530 1087 555 q 1006 464 1006 505 q 1022 424 1006 442 q 1063 394 1037 406 q 1101 377 1078 387 q 1155 359 1125 367 q 1226 415 1205 386 q 1247 481 1247 444 m 1206 184 q 1188 229 1206 211 q 1133 264 1170 246 q 1091 280 1120 271 q 1032 300 1063 289 q 951 239 979 274 q 924 165 924 205 q 960 95 924 123 q 1047 66 997 66 q 1162 99 1118 66 q 1206 184 1206 132 z "},"⅝":{"ha":1389,"x_min":105,"x_max":1365,"o":"m 595 631 q 568 518 595 573 q 493 427 540 464 q 407 381 454 397 q 296 366 359 366 q 191 377 243 366 q 105 403 138 387 l 130 511 l 141 511 q 211 478 162 498 q 309 458 260 458 q 368 466 337 458 q 420 493 398 475 q 460 545 444 512 q 477 610 477 578 q 469 644 477 630 q 447 668 461 657 q 398 689 427 683 q 334 695 369 695 q 253 688 294 695 q 194 678 212 681 l 272 1016 l 677 1016 l 656 927 l 358 927 l 324 780 q 353 782 339 781 q 377 783 368 783 q 472 774 434 783 q 541 742 511 766 q 581 695 567 722 q 595 631 595 667 m 1145 1010 l 439 0 l 326 0 l 1032 1010 l 1145 1010 m 1322 199 q 1235 41 1322 103 q 1028 -21 1147 -21 q 865 24 924 -21 q 807 137 807 69 q 852 252 807 203 q 975 329 898 300 l 975 332 q 910 382 931 355 q 890 446 890 410 q 967 587 890 530 q 1160 643 1045 643 q 1310 604 1255 643 q 1365 505 1365 565 q 1329 406 1365 458 q 1217 326 1293 355 l 1217 323 q 1295 271 1268 302 q 1322 199 1322 241 m 1247 481 q 1220 534 1247 512 q 1141 555 1192 555 q 1047 530 1087 555 q 1006 464 1006 505 q 1022 424 1006 442 q 1063 394 1037 406 q 1101 377 1078 387 q 1155 359 1125 367 q 1226 415 1205 386 q 1247 481 1247 444 m 1206 184 q 1188 229 1206 211 q 1133 264 1170 246 q 1091 280 1120 271 q 1032 300 1063 289 q 951 239 979 274 q 924 165 924 205 q 960 95 924 123 q 1047 66 997 66 q 1162 99 1118 66 q 1206 184 1206 132 z "},"⅞":{"ha":1389,"x_min":132,"x_max":1339,"o":"m 690 921 l 260 383 l 132 383 l 578 927 l 222 927 l 244 1016 l 712 1016 l 690 921 m 1069 1010 l 362 0 l 249 0 l 956 1010 l 1069 1010 m 1297 199 q 1209 41 1297 103 q 1002 -21 1122 -21 q 840 24 898 -21 q 781 137 781 69 q 827 252 781 203 q 949 329 872 300 l 949 332 q 885 382 905 355 q 864 446 864 410 q 942 587 864 530 q 1134 643 1019 643 q 1284 604 1229 643 q 1339 505 1339 565 q 1303 406 1339 458 q 1191 326 1267 355 l 1191 323 q 1270 271 1242 302 q 1297 199 1297 241 m 1221 481 q 1194 534 1221 512 q 1115 555 1166 555 q 1021 530 1061 555 q 981 464 981 505 q 996 424 981 442 q 1037 394 1011 406 q 1076 377 1052 387 q 1129 359 1099 367 q 1200 415 1179 386 q 1221 481 1221 444 m 1180 184 q 1162 229 1180 211 q 1107 264 1144 246 q 1065 280 1094 271 q 1006 300 1037 289 q 926 239 954 274 q 898 165 898 205 q 935 95 898 123 q 1021 66 971 66 q 1136 99 1092 66 q 1180 184 1180 132 z "},"΄":{"ha":883,"x_min":419,"x_max":616,"o":"m 616 1137 l 519 876 l 419 876 l 450 1137 l 616 1137 z "},"΅":{"ha":883,"x_min":288,"x_max":860,"o":"m 696 1137 l 600 876 l 511 876 l 541 1137 l 696 1137 m 829 884 l 699 884 l 729 1017 l 860 1017 l 829 884 m 419 884 l 288 884 l 319 1017 l 450 1017 l 419 884 z "},"Ά":{"ha":949,"x_min":-56,"x_max":857,"o":"m 857 0 l 720 0 l 686 284 l 251 284 l 85 0 l -56 0 l 545 1010 l 722 1010 l 857 0 m 671 394 l 608 892 l 315 394 l 671 394 m 323 1010 l 226 749 l 126 749 l 157 1010 l 323 1010 z "},"Έ":{"ha":1043,"x_min":113,"x_max":1111,"o":"m 1111 1010 l 1084 895 l 553 895 l 488 610 l 1019 610 l 993 496 l 462 496 l 374 115 l 905 115 l 878 0 l 213 0 l 446 1010 l 1111 1010 m 310 1010 l 213 749 l 113 749 l 144 1010 l 310 1010 z "},"Ή":{"ha":1208,"x_min":113,"x_max":1218,"o":"m 1218 1010 l 985 0 l 851 0 l 966 496 l 462 496 l 347 0 l 213 0 l 446 1010 l 580 1010 l 488 610 l 992 610 l 1084 1010 l 1218 1010 m 310 1010 l 213 749 l 113 749 l 144 1010 l 310 1010 z "},"Ί":{"ha":749,"x_min":114,"x_max":803,"o":"m 570 0 l 170 0 l 192 98 l 324 98 l 513 911 l 380 911 l 403 1010 l 803 1010 l 781 911 l 648 911 l 460 98 l 592 98 l 570 0 m 311 1010 l 214 749 l 114 749 l 144 1010 l 311 1010 z "},"Ό":{"ha":1223,"x_min":115,"x_max":1190,"o":"m 1190 652 q 1150 399 1190 521 q 1035 184 1110 277 q 849 34 958 88 q 604 -21 741 -21 q 322 78 424 -21 q 220 358 220 176 q 261 616 220 496 q 378 831 302 736 q 563 976 453 922 q 805 1031 673 1031 q 1087 933 985 1031 q 1190 652 1190 835 m 932 251 q 1019 424 989 328 q 1048 633 1048 519 q 978 846 1048 772 q 784 920 909 920 q 609 876 687 920 q 475 755 531 831 q 391 582 420 681 q 362 379 362 484 q 432 164 362 239 q 627 90 501 90 q 801 134 722 90 q 932 251 879 178 m 311 1010 l 214 749 l 115 749 l 145 1010 l 311 1010 z "},"Ύ":{"ha":1046,"x_min":112,"x_max":1184,"o":"m 1184 1010 l 701 443 l 598 0 l 463 0 l 562 429 l 336 1010 l 480 1010 l 655 556 l 1037 1010 l 1184 1010 m 309 1010 l 212 749 l 112 749 l 142 1010 l 309 1010 z "},"Ώ":{"ha":1261,"x_min":115,"x_max":1210,"o":"m 1109 0 l 699 0 l 758 259 q 872 323 814 286 q 971 409 930 361 q 1041 525 1015 460 q 1067 680 1067 589 q 995 855 1067 791 q 797 920 922 920 q 517 806 625 920 q 410 526 410 692 q 424 430 410 470 q 463 358 437 389 q 523 302 488 328 q 586 259 558 277 l 527 0 l 117 0 l 143 113 l 439 113 l 463 207 q 319 343 370 260 q 269 526 269 425 q 426 884 269 736 q 813 1031 583 1031 q 1104 938 999 1031 q 1210 694 1210 845 q 1111 399 1210 529 q 861 202 1012 269 l 839 113 l 1135 113 l 1109 0 m 312 1010 l 215 749 l 115 749 l 146 1010 l 312 1010 z "},"ΐ":{"ha":381,"x_min":39,"x_max":564,"o":"m 342 758 l 168 0 l 39 0 l 214 758 l 342 758 m 564 1017 l 533 884 l 416 884 l 447 1017 l 564 1017 m 226 1017 l 195 884 l 79 884 l 109 1017 l 226 1017 m 432 1137 l 332 876 l 275 876 l 299 1137 l 432 1137 z "},"Α":{"ha":948,"x_min":-58,"x_max":855,"o":"m 855 0 l 719 0 l 685 284 l 250 284 l 84 0 l -58 0 l 543 1010 l 721 1010 l 855 0 m 670 394 l 607 892 l 314 394 l 670 394 z "},"Β":{"ha":952,"x_min":47,"x_max":908,"o":"m 733 81 q 595 19 667 37 q 418 0 524 0 l 47 0 l 280 1010 l 570 1010 q 735 1002 681 1010 q 833 968 789 995 q 889 909 871 945 q 908 830 908 873 q 859 675 908 743 q 722 572 809 608 l 722 566 q 846 498 803 548 q 889 369 889 448 q 846 206 889 283 q 733 81 803 129 m 762 793 q 753 840 762 821 q 726 871 743 859 q 654 895 697 890 q 544 900 612 900 l 391 900 l 321 600 l 498 600 q 600 609 556 600 q 675 635 643 617 q 740 705 718 660 q 762 793 762 750 m 747 359 q 734 421 747 397 q 688 465 722 444 q 619 487 661 481 q 501 492 576 492 l 297 492 l 208 110 l 393 110 q 540 120 484 110 q 638 155 597 130 q 720 242 692 186 q 747 359 747 297 z "},"Δ":{"ha":1008,"x_min":-40,"x_max":901,"o":"m 901 0 l -40 0 l 574 1010 l 753 1010 l 901 0 m 753 109 l 639 892 l 164 109 l 753 109 z "},"Ε":{"ha":878,"x_min":48,"x_max":946,"o":"m 946 1010 l 920 895 l 389 895 l 323 610 l 854 610 l 828 496 l 297 496 l 209 115 l 740 115 l 713 0 l 48 0 l 281 1010 l 946 1010 z "},"Ζ":{"ha":951,"x_min":1,"x_max":1001,"o":"m 789 0 l 1 0 l 29 123 l 811 895 l 219 895 l 245 1010 l 1001 1010 l 974 893 l 185 115 l 816 115 l 789 0 z "},"Η":{"ha":1044,"x_min":48,"x_max":1053,"o":"m 1053 1010 l 821 0 l 686 0 l 801 496 l 297 496 l 182 0 l 48 0 l 281 1010 l 415 1010 l 323 610 l 827 610 l 919 1010 l 1053 1010 z "},"Ι":{"ha":585,"x_min":5,"x_max":638,"o":"m 405 0 l 5 0 l 27 98 l 159 98 l 348 911 l 216 911 l 238 1010 l 638 1010 l 616 911 l 484 911 l 295 98 l 427 98 l 405 0 z "},"Κ":{"ha":962,"x_min":51,"x_max":1062,"o":"m 871 0 l 713 0 l 401 451 l 263 334 l 186 0 l 51 0 l 284 1010 l 420 1010 l 298 486 l 891 1010 l 1062 1010 l 508 526 l 871 0 z "},"Λ":{"ha":952,"x_min":-58,"x_max":856,"o":"m 856 0 l 716 0 l 604 885 l 87 0 l -58 0 l 543 1010 l 722 1010 l 856 0 z "},"Μ":{"ha":1171,"x_min":47,"x_max":1181,"o":"m 948 0 l 812 0 l 1012 858 l 602 278 l 522 278 l 379 884 l 174 0 l 47 0 l 281 1010 l 465 1010 l 602 448 l 995 1010 l 1181 1010 l 948 0 z "},"Ν":{"ha":1039,"x_min":47,"x_max":1053,"o":"m 819 0 l 659 0 l 383 903 l 174 0 l 47 0 l 281 1010 l 483 1010 l 735 185 l 926 1010 l 1053 1010 l 819 0 z "},"Ξ":{"ha":901,"x_min":-10,"x_max":970,"o":"m 944 895 l 197 895 l 223 1010 l 970 1010 l 944 895 m 817 496 l 140 496 l 166 610 l 842 610 l 817 496 m 736 0 l -10 0 l 16 115 l 763 115 l 736 0 z "},"Ο":{"ha":1093,"x_min":91,"x_max":1060,"o":"m 1060 652 q 1020 399 1060 521 q 905 184 981 277 q 720 34 828 88 q 475 -21 611 -21 q 193 78 294 -21 q 91 358 91 176 q 132 616 91 496 q 249 831 172 736 q 434 976 323 922 q 675 1031 544 1031 q 958 933 855 1031 q 1060 652 1060 835 m 803 251 q 889 424 860 328 q 918 633 918 519 q 849 846 918 772 q 654 920 779 920 q 479 876 557 920 q 345 755 401 831 q 262 582 291 681 q 233 379 233 484 q 302 164 233 239 q 497 90 372 90 q 671 134 593 90 q 803 251 749 178 z "},"Π":{"ha":1044,"x_min":47,"x_max":1054,"o":"m 1054 1010 l 821 0 l 686 0 l 892 895 l 389 895 l 183 0 l 47 0 l 280 1010 l 1054 1010 z "},"Ρ":{"ha":838,"x_min":47,"x_max":880,"o":"m 743 481 q 603 404 680 429 q 418 378 526 378 l 271 378 l 183 0 l 47 0 l 281 1010 l 547 1010 q 699 994 639 1010 q 798 947 760 977 q 859 872 838 916 q 880 767 880 829 q 844 610 880 684 q 743 481 808 536 m 736 744 q 725 808 736 779 q 689 857 713 838 q 620 889 660 880 q 517 899 581 899 l 391 899 l 296 488 l 416 488 q 552 503 498 488 q 645 550 606 517 q 714 637 691 589 q 736 744 736 685 z "},"Σ":{"ha":934,"x_min":-7,"x_max":975,"o":"m 781 0 l -7 0 l 20 120 l 540 535 l 205 893 l 232 1010 l 975 1010 l 949 895 l 372 895 l 709 540 l 704 520 l 191 115 l 806 115 l 781 0 z "},"Τ":{"ha":856,"x_min":119,"x_max":1001,"o":"m 975 895 l 615 895 l 408 0 l 273 0 l 479 895 l 119 895 l 145 1010 l 1001 1010 l 975 895 z "},"Υ":{"ha":854,"x_min":144,"x_max":992,"o":"m 992 1010 l 509 443 l 406 0 l 271 0 l 370 429 l 144 1010 l 288 1010 l 463 556 l 845 1010 l 992 1010 z "},"Χ":{"ha":951,"x_min":-42,"x_max":1053,"o":"m 434 508 l 201 1010 l 347 1010 l 530 606 l 901 1010 l 1053 1010 l 581 507 l 817 0 l 670 0 l 485 408 l 109 0 l -42 0 l 434 508 z "},"Ψ":{"ha":1209,"x_min":159,"x_max":1234,"o":"m 1143 617 q 1075 438 1118 511 q 966 318 1031 364 q 823 250 904 273 q 634 218 743 226 l 584 0 l 449 0 l 499 218 q 354 242 416 224 q 250 293 292 260 q 182 375 205 326 q 159 491 159 425 q 163 550 159 522 q 176 620 167 578 l 266 1010 l 401 1010 l 308 604 q 299 558 303 585 q 296 515 296 531 q 354 378 296 422 q 524 328 413 334 l 682 1010 l 817 1010 l 659 328 q 784 351 729 334 q 883 401 838 367 q 957 482 926 433 q 1004 602 987 531 l 1098 1010 l 1234 1010 l 1143 617 z "},"Ω":{"ha":1137,"x_min":-7,"x_max":1086,"o":"m 985 0 l 575 0 l 634 259 q 748 323 690 286 q 847 409 806 361 q 917 525 891 460 q 943 680 943 589 q 871 855 943 791 q 673 920 798 920 q 393 806 500 920 q 286 526 286 692 q 299 430 286 470 q 338 358 313 389 q 399 302 363 328 q 462 259 434 277 l 403 0 l -7 0 l 19 113 l 315 113 l 338 207 q 195 343 245 260 q 144 526 144 425 q 302 884 144 736 q 689 1031 459 1031 q 980 938 875 1031 q 1086 694 1086 845 q 987 399 1086 529 q 737 202 888 269 l 715 113 l 1010 113 l 985 0 z "},"Ϊ":{"ha":585,"x_min":5,"x_max":709,"o":"m 405 0 l 5 0 l 27 98 l 159 98 l 348 911 l 216 911 l 238 1010 l 638 1010 l 616 911 l 484 911 l 295 98 l 427 98 l 405 0 m 679 1137 l 543 1137 l 573 1270 l 709 1270 l 679 1137 m 397 1137 l 261 1137 l 292 1270 l 428 1270 l 397 1137 z "},"Ϋ":{"ha":854,"x_min":144,"x_max":992,"o":"m 992 1010 l 509 443 l 406 0 l 271 0 l 370 429 l 144 1010 l 288 1010 l 463 556 l 845 1010 l 992 1010 m 785 1137 l 649 1137 l 680 1270 l 816 1270 l 785 1137 m 504 1137 l 368 1137 l 398 1270 l 534 1270 l 504 1137 z "},"ά":{"ha":865,"x_min":58,"x_max":827,"o":"m 827 758 l 652 0 l 525 0 l 543 79 q 405 0 457 20 q 290 -21 352 -21 q 120 47 183 -21 q 58 244 58 115 q 92 451 58 353 q 184 621 125 548 q 320 736 241 694 q 487 779 399 779 q 598 766 547 779 q 693 727 649 753 l 700 758 l 827 758 m 669 621 q 579 656 623 645 q 486 667 536 667 q 360 633 416 667 q 266 541 305 600 q 211 412 230 487 q 191 266 191 336 q 227 139 191 183 q 342 96 262 96 q 459 124 399 96 q 568 186 518 153 l 669 621 m 680 1137 l 583 876 l 483 876 l 513 1137 l 680 1137 z "},"έ":{"ha":712,"x_min":35,"x_max":723,"o":"m 615 43 q 464 -3 536 11 q 317 -18 393 -18 q 216 -8 267 -18 q 125 24 165 2 q 60 82 85 47 q 35 170 35 117 q 85 310 35 252 q 236 399 135 368 l 236 404 q 156 453 185 418 q 127 537 127 488 q 158 645 127 596 q 254 726 189 693 q 368 764 304 752 q 488 776 433 776 q 616 763 557 776 q 723 732 675 750 l 691 602 l 682 602 q 583 652 644 635 q 458 670 523 670 q 391 666 421 670 q 326 644 361 661 q 278 604 297 630 q 259 539 259 578 q 277 487 259 505 q 323 460 296 468 q 380 451 349 452 q 448 449 410 449 l 528 449 l 501 340 l 394 340 q 312 335 349 340 q 239 315 274 330 q 188 271 208 299 q 168 196 168 242 q 183 145 168 165 q 223 112 199 124 q 276 94 245 100 q 341 88 307 88 q 498 115 414 88 q 640 184 583 142 l 648 184 l 615 43 m 630 1137 l 533 876 l 433 876 l 464 1137 l 630 1137 z "},"ή":{"ha":879,"x_min":38,"x_max":797,"o":"m 797 585 q 794 541 797 568 q 785 492 791 513 l 606 -279 l 479 -279 l 644 431 q 656 494 652 467 q 661 547 661 521 q 632 633 661 604 q 531 662 604 662 q 417 633 479 662 q 296 566 355 605 l 165 0 l 38 0 l 213 758 l 340 758 l 321 673 q 457 751 393 724 q 587 779 520 779 q 742 729 686 779 q 797 585 797 679 m 703 1137 l 606 876 l 506 876 l 536 1137 l 703 1137 z "},"ί":{"ha":381,"x_min":39,"x_max":449,"o":"m 342 758 l 168 0 l 39 0 l 214 758 l 342 758 m 449 1137 l 352 876 l 252 876 l 283 1137 l 449 1137 z "},"ΰ":{"ha":876,"x_min":87,"x_max":844,"o":"m 732 276 q 605 54 697 128 q 356 -20 512 -20 q 158 36 229 -20 q 87 197 87 92 q 90 239 87 219 q 97 285 92 260 l 206 758 l 335 758 l 236 329 q 226 271 230 302 q 222 216 222 239 q 255 118 222 152 q 378 85 288 85 q 479 101 439 85 q 544 148 519 117 q 585 220 569 178 q 614 323 600 262 l 714 758 l 843 758 l 732 276 m 680 1137 l 584 876 l 496 876 l 526 1137 l 680 1137 m 814 884 l 683 884 l 713 1017 l 844 1017 l 814 884 m 404 884 l 273 884 l 303 1017 l 434 1017 l 404 884 z "},"β":{"ha":861,"x_min":-27,"x_max":841,"o":"m 394 -15 q 280 0 340 -15 q 176 43 220 14 l 102 -279 l -27 -279 l 205 731 q 340 968 239 881 q 595 1055 441 1055 q 777 998 712 1055 q 841 849 841 941 q 774 671 841 750 q 600 563 707 592 l 597 551 q 733 484 686 535 q 781 353 781 433 q 666 91 781 196 q 394 -15 551 -15 m 648 346 q 629 423 648 393 q 578 471 610 453 q 505 495 546 488 q 420 501 463 501 l 388 501 l 412 606 l 436 606 q 541 619 489 606 q 627 659 592 632 q 686 727 664 686 q 707 829 707 768 q 669 920 707 888 q 565 952 630 952 q 476 934 513 952 q 409 885 439 916 q 363 814 381 855 q 332 725 345 774 l 199 143 q 292 106 239 118 q 393 94 345 94 q 581 167 514 94 q 648 346 648 240 z "},"γ":{"ha":821,"x_min":118,"x_max":861,"o":"m 861 758 l 385 40 l 313 -279 l 184 -279 l 258 40 l 118 758 l 250 758 l 355 189 l 720 758 l 861 758 z "},"ζ":{"ha":635,"x_min":43,"x_max":799,"o":"m 394 1 l 298 1 q 107 59 172 1 q 43 224 43 117 q 90 438 43 338 q 213 629 136 537 q 382 797 287 717 q 577 947 478 876 l 578 954 l 267 954 l 290 1055 l 799 1055 l 779 964 q 574 828 680 907 q 381 656 468 749 q 238 460 295 566 q 181 248 181 353 q 191 182 181 214 q 230 130 200 151 q 291 112 251 115 q 368 109 332 109 l 433 109 q 538 71 500 109 q 576 -28 576 33 q 531 -163 576 -97 q 425 -279 487 -229 l 300 -279 l 302 -270 q 416 -165 379 -214 q 452 -66 452 -117 q 439 -20 452 -41 q 394 1 426 1 z "},"η":{"ha":879,"x_min":38,"x_max":797,"o":"m 797 585 q 794 541 797 568 q 785 492 791 513 l 606 -279 l 479 -279 l 644 431 q 656 494 652 467 q 661 547 661 521 q 632 633 661 604 q 531 662 604 662 q 417 633 479 662 q 296 566 355 605 l 165 0 l 38 0 l 213 758 l 340 758 l 321 673 q 457 751 393 724 q 587 779 520 779 q 742 729 686 779 q 797 585 797 679 z "},"θ":{"ha":867,"x_min":94,"x_max":836,"o":"m 781 960 q 824 860 811 917 q 836 741 836 803 q 824 597 836 692 q 789 414 812 502 q 722 228 763 319 q 619 81 680 138 q 501 4 562 29 q 362 -21 440 -21 q 233 4 285 -21 q 151 73 181 30 q 107 174 119 117 q 94 291 94 231 q 103 424 94 345 q 137 602 112 502 q 200 787 160 696 q 300 941 241 877 q 416 1024 349 994 q 568 1055 484 1055 q 699 1029 647 1055 q 781 960 750 1003 m 710 740 q 672 900 710 849 q 552 951 634 951 q 458 931 498 951 q 380 865 417 912 q 305 725 336 810 q 259 578 274 640 l 695 578 q 705 653 701 611 q 710 740 710 696 m 675 476 l 239 476 q 227 390 233 442 q 220 294 220 338 q 257 135 220 187 q 378 83 294 83 q 476 105 432 83 q 555 176 520 127 q 631 322 599 235 q 675 476 663 410 z "},"ι":{"ha":381,"x_min":39,"x_max":342,"o":"m 342 758 l 168 0 l 39 0 l 214 758 l 342 758 z "},"κ":{"ha":822,"x_min":43,"x_max":848,"o":"m 734 0 l 579 0 l 337 333 l 227 244 l 172 0 l 43 0 l 218 758 l 347 758 l 258 377 l 576 663 q 685 742 644 725 q 769 759 726 759 q 815 758 787 759 q 848 758 844 758 l 823 648 l 815 648 q 790 650 805 649 q 762 650 774 650 q 706 632 734 650 q 643 583 678 614 l 438 399 l 734 0 z "},"λ":{"ha":822,"x_min":-39,"x_max":707,"o":"m 389 1055 l 524 1055 l 707 0 l 576 0 l 482 579 l 102 0 l -39 0 l 454 731 l 389 1055 z "},"μ":{"ha":887,"x_min":-27,"x_max":849,"o":"m 674 0 l 552 0 l 564 80 q 462 9 511 32 q 356 -14 413 -14 q 259 9 299 -14 q 184 77 219 33 l 102 -279 l -27 -279 l 212 758 l 341 758 l 210 189 q 277 126 234 149 q 374 102 320 102 q 492 128 439 102 q 590 193 545 153 l 720 758 l 849 758 l 674 0 z "},"ν":{"ha":821,"x_min":121,"x_max":859,"o":"m 859 758 l 377 0 l 250 0 l 121 758 l 251 758 l 347 155 l 718 758 l 859 758 z "},"ξ":{"ha":699,"x_min":39,"x_max":805,"o":"m 612 -28 q 568 -163 612 -97 q 461 -279 524 -229 l 336 -279 l 338 -270 q 451 -167 413 -216 q 489 -66 489 -118 q 476 -20 489 -41 q 431 1 463 1 l 338 1 q 180 24 235 1 q 97 78 126 46 q 54 147 68 109 q 39 229 39 185 q 64 347 39 295 q 132 442 88 399 q 232 512 174 484 q 353 554 290 540 l 354 562 q 248 620 289 577 q 208 727 208 663 q 221 796 208 764 q 260 859 234 829 q 318 910 284 887 q 384 952 352 934 l 385 956 l 224 956 l 246 1055 l 805 1055 l 782 954 l 615 954 q 518 940 566 954 q 431 899 471 927 q 368 829 393 872 q 344 731 344 787 q 362 664 344 690 q 408 623 380 637 q 474 602 439 608 q 550 597 509 597 l 665 597 l 641 492 l 443 492 q 346 475 392 492 q 260 426 300 458 q 200 349 223 395 q 176 248 176 303 q 199 169 176 197 q 259 127 222 140 q 344 111 296 114 q 444 109 392 109 l 469 109 q 574 71 536 109 q 612 -28 612 33 z "},"ο":{"ha":843,"x_min":60,"x_max":783,"o":"m 783 490 q 751 294 783 388 q 663 132 720 201 q 527 19 604 60 q 347 -21 450 -21 q 136 56 212 -21 q 60 269 60 133 q 91 463 60 370 q 180 627 122 555 q 318 737 237 696 q 497 779 400 779 q 705 704 628 779 q 783 490 783 629 m 575 203 q 631 329 612 258 q 650 479 650 400 q 605 623 650 574 q 477 672 559 672 q 359 641 411 672 q 269 554 307 609 q 212 429 232 500 q 193 279 193 357 q 238 136 193 186 q 367 85 283 85 q 485 117 432 85 q 575 203 538 148 z "},"ρ":{"ha":867,"x_min":-29,"x_max":810,"o":"m 810 498 q 781 321 810 413 q 698 156 753 230 q 558 31 638 76 q 380 -15 478 -15 q 277 -2 338 -15 q 173 39 216 12 l 100 -279 l -29 -279 l 136 441 q 276 694 174 609 q 528 779 377 779 q 659 756 605 779 q 746 695 713 733 q 794 606 779 657 q 810 498 810 555 m 675 488 q 667 556 675 522 q 639 616 659 589 q 587 657 620 642 q 510 673 555 673 q 352 612 414 673 q 260 420 290 551 l 197 142 q 284 105 241 117 q 379 94 327 94 q 515 133 458 94 q 606 228 572 171 q 658 355 642 286 q 675 488 675 424 z "},"ς":{"ha":705,"x_min":60,"x_max":742,"o":"m 612 -28 q 567 -163 612 -97 q 460 -279 523 -229 l 336 -279 l 338 -270 q 452 -164 416 -213 q 488 -66 488 -116 q 475 -20 488 -41 q 431 1 462 1 l 368 1 q 245 17 302 1 q 147 64 189 32 q 83 148 106 97 q 60 271 60 199 q 196 630 60 486 q 535 775 332 775 q 649 762 594 775 q 742 732 704 749 l 712 595 l 704 595 q 620 647 675 623 q 503 670 564 670 q 376 638 433 670 q 278 553 320 606 q 216 433 238 500 q 195 296 195 365 q 247 158 195 207 q 397 109 298 109 l 469 109 q 574 71 536 109 q 612 -28 612 33 z "},"υ":{"ha":876,"x_min":87,"x_max":843,"o":"m 732 276 q 605 54 697 128 q 356 -20 512 -20 q 158 36 229 -20 q 87 197 87 92 q 90 239 87 219 q 97 285 92 260 l 206 758 l 335 758 l 236 329 q 226 271 230 302 q 222 216 222 239 q 255 118 222 152 q 378 85 288 85 q 479 101 439 85 q 544 148 519 117 q 585 220 569 178 q 614 323 600 262 l 714 758 l 843 758 l 732 276 z "},"χ":{"ha":819,"x_min":-119,"x_max":867,"o":"m 311 251 l 128 758 l 264 758 l 402 353 l 722 758 l 867 758 l 447 238 l 634 -279 l 498 -279 l 355 136 l 26 -279 l -119 -279 l 311 251 z "},"ψ":{"ha":1141,"x_min":97,"x_max":1110,"o":"m 1004 300 q 942 165 985 219 q 833 73 899 111 q 697 19 769 37 q 547 -3 625 1 l 483 -279 l 355 -279 l 418 -3 q 294 17 353 1 q 192 64 235 33 q 123 141 149 95 q 97 248 97 187 q 99 284 97 268 q 104 317 101 300 l 206 758 l 335 758 l 240 349 q 233 311 236 332 q 231 275 231 290 q 251 187 231 220 q 298 136 271 154 q 365 108 328 117 q 441 97 403 99 l 594 758 l 722 758 l 569 97 q 663 111 612 100 q 755 147 713 122 q 833 220 798 174 q 885 342 868 267 l 981 758 l 1110 758 l 1004 300 z "},"ω":{"ha":1130,"x_min":52,"x_max":1061,"o":"m 1061 453 q 1041 298 1061 385 q 979 145 1020 212 q 856 21 926 62 q 699 -20 786 -20 q 582 12 631 -20 q 511 92 532 43 l 507 92 q 415 12 470 44 q 290 -20 359 -20 q 180 2 225 -20 q 107 62 136 25 q 65 148 79 99 q 52 250 52 197 q 72 395 52 330 q 129 525 91 460 q 214 641 163 585 q 330 758 264 697 l 492 758 l 490 746 q 371 651 425 701 q 275 537 317 600 q 208 405 232 475 q 184 257 184 334 q 190 194 184 220 q 210 139 195 167 q 248 100 224 115 q 310 85 272 85 q 367 93 342 85 q 408 114 391 100 q 436 140 425 126 q 455 167 447 155 l 547 566 l 675 566 l 583 167 q 594 141 586 155 q 617 115 602 127 q 655 93 633 102 q 713 85 677 85 q 817 123 774 85 q 884 216 859 161 q 921 333 909 272 q 932 444 932 393 q 898 616 932 541 q 806 746 863 692 l 808 758 l 955 758 q 1033 612 1005 686 q 1061 453 1061 538 z "},"ϊ":{"ha":381,"x_min":39,"x_max":505,"o":"m 342 758 l 168 0 l 39 0 l 214 758 l 342 758 m 505 1017 l 474 884 l 346 884 l 376 1017 l 505 1017 m 258 1017 l 228 884 l 100 884 l 130 1017 l 258 1017 z "},"ϋ":{"ha":876,"x_min":87,"x_max":843,"o":"m 732 276 q 605 54 697 128 q 356 -20 512 -20 q 158 36 229 -20 q 87 197 87 92 q 90 239 87 219 q 97 285 92 260 l 206 758 l 335 758 l 236 329 q 226 271 230 302 q 222 216 222 239 q 255 118 222 152 q 378 85 288 85 q 479 101 439 85 q 544 148 519 117 q 585 220 569 178 q 614 323 600 262 l 714 758 l 843 758 l 732 276 m 760 884 l 624 884 l 654 1017 l 791 1017 l 760 884 m 479 884 l 342 884 l 373 1017 l 509 1017 l 479 884 z "},"ό":{"ha":843,"x_min":60,"x_max":783,"o":"m 783 490 q 751 294 783 388 q 663 132 720 201 q 527 19 604 60 q 347 -21 450 -21 q 136 56 212 -21 q 60 269 60 133 q 91 463 60 370 q 180 627 122 555 q 318 737 237 696 q 497 779 400 779 q 705 704 628 779 q 783 490 783 629 m 575 203 q 631 329 612 258 q 650 479 650 400 q 605 623 650 574 q 477 672 559 672 q 359 641 411 672 q 269 554 307 609 q 212 429 232 500 q 193 279 193 357 q 238 136 193 186 q 367 85 283 85 q 485 117 432 85 q 575 203 538 148 m 662 1137 l 565 876 l 465 876 l 496 1137 l 662 1137 z "},"ύ":{"ha":876,"x_min":87,"x_max":843,"o":"m 732 276 q 605 54 697 128 q 356 -20 512 -20 q 158 36 229 -20 q 87 197 87 92 q 90 239 87 219 q 97 285 92 260 l 206 758 l 335 758 l 236 329 q 226 271 230 302 q 222 216 222 239 q 255 118 222 152 q 378 85 288 85 q 479 101 439 85 q 544 148 519 117 q 585 220 569 178 q 614 323 600 262 l 714 758 l 843 758 l 732 276 m 680 1137 l 583 876 l 483 876 l 513 1137 l 680 1137 z "},"ώ":{"ha":1130,"x_min":52,"x_max":1061,"o":"m 1061 453 q 1041 298 1061 385 q 979 145 1020 212 q 856 21 926 62 q 699 -20 786 -20 q 582 12 631 -20 q 511 92 532 43 l 507 92 q 415 12 470 44 q 290 -20 359 -20 q 180 2 225 -20 q 107 62 136 25 q 65 148 79 99 q 52 250 52 197 q 72 395 52 330 q 129 525 91 460 q 214 641 163 585 q 330 758 264 697 l 492 758 l 490 746 q 371 651 425 701 q 275 537 317 600 q 208 405 232 475 q 184 257 184 334 q 190 194 184 220 q 210 139 195 167 q 248 100 224 115 q 310 85 272 85 q 367 93 342 85 q 408 114 391 100 q 436 140 425 126 q 455 167 447 155 l 547 566 l 675 566 l 583 167 q 594 141 586 155 q 617 115 602 127 q 655 93 633 102 q 713 85 677 85 q 817 123 774 85 q 884 216 859 161 q 921 333 909 272 q 932 444 932 393 q 898 616 932 541 q 806 746 863 692 l 808 758 l 955 758 q 1033 612 1005 686 q 1061 453 1061 538 m 821 1137 l 724 876 l 624 876 l 654 1137 l 821 1137 z "},"Ё":{"ha":878,"x_min":48,"x_max":946,"o":"m 946 1010 l 920 895 l 389 895 l 323 610 l 854 610 l 828 496 l 297 496 l 209 115 l 740 115 l 713 0 l 48 0 l 281 1010 l 946 1010 m 842 1137 l 705 1137 l 736 1270 l 872 1270 l 842 1137 m 560 1137 l 424 1137 l 454 1270 l 591 1270 l 560 1137 z "},"Ђ":{"ha":1101,"x_min":118,"x_max":1038,"o":"m 1038 380 q 995 205 1038 283 q 882 79 951 127 q 746 17 815 34 q 574 0 677 0 l 507 0 l 534 115 l 556 115 q 697 122 651 115 q 787 156 743 129 q 867 240 841 189 q 894 358 894 290 q 883 419 894 391 q 849 465 873 446 q 769 496 815 490 q 633 501 724 501 l 454 501 l 338 0 l 203 0 l 410 895 l 118 895 l 144 1010 l 911 1010 l 884 895 l 545 895 l 479 611 l 697 611 q 861 598 800 611 q 973 541 922 585 q 1021 471 1005 512 q 1038 380 1038 431 z "},"Ѓ":{"ha":787,"x_min":47,"x_max":935,"o":"m 908 895 l 390 895 l 183 0 l 47 0 l 281 1010 l 935 1010 l 908 895 m 870 1390 l 629 1136 l 524 1136 l 696 1390 l 870 1390 z "},"Є":{"ha":973,"x_min":90,"x_max":1029,"o":"m 234 484 q 229 434 231 462 q 227 388 227 407 q 307 173 227 253 q 528 93 386 93 q 714 120 622 93 q 867 191 806 146 l 878 191 l 844 44 q 687 0 774 18 q 507 -18 600 -18 q 201 82 313 -18 q 90 368 90 182 q 132 628 90 509 q 254 837 174 746 q 448 977 333 926 q 704 1028 562 1028 q 884 1010 798 1028 q 1029 966 970 991 l 997 821 l 986 821 q 858 891 941 864 q 680 918 775 918 q 423 836 536 918 q 260 596 309 754 l 829 596 l 804 484 l 234 484 z "},"Ѕ":{"ha":949,"x_min":35,"x_max":947,"o":"m 397 -18 q 210 2 298 -18 q 35 66 121 23 l 68 220 l 77 220 q 237 125 142 158 q 420 92 332 92 q 641 150 564 92 q 718 296 718 207 q 691 374 718 342 q 610 420 663 405 q 506 443 566 432 q 390 467 445 454 q 225 549 283 491 q 167 692 167 606 q 289 932 167 836 q 606 1028 412 1028 q 798 1006 711 1028 q 947 954 884 984 l 916 810 l 907 810 q 769 886 859 854 q 582 918 680 918 q 385 863 458 918 q 311 726 311 809 q 338 647 311 681 q 432 596 364 613 q 547 571 475 586 q 668 544 619 557 q 814 465 764 517 q 864 334 864 413 q 831 201 864 267 q 741 89 799 136 q 594 10 678 39 q 397 -18 511 -18 z "},"І":{"ha":585,"x_min":5,"x_max":638,"o":"m 405 0 l 5 0 l 27 98 l 159 98 l 348 911 l 216 911 l 238 1010 l 638 1010 l 616 911 l 484 911 l 295 98 l 427 98 l 405 0 z "},"Ї":{"ha":585,"x_min":5,"x_max":709,"o":"m 405 0 l 5 0 l 27 98 l 159 98 l 348 911 l 216 911 l 238 1010 l 638 1010 l 616 911 l 484 911 l 295 98 l 427 98 l 405 0 m 679 1137 l 543 1137 l 573 1270 l 709 1270 l 679 1137 m 397 1137 l 261 1137 l 292 1270 l 428 1270 l 397 1137 z "},"Ј":{"ha":631,"x_min":-53,"x_max":652,"o":"m 481 262 q 353 57 450 129 q 120 -14 257 -14 q 35 -8 87 -14 q -53 5 -18 -3 l -24 126 l -17 126 q 47 106 9 117 q 128 96 85 96 q 231 112 190 96 q 294 155 271 127 q 333 225 319 184 q 357 313 347 266 l 493 907 l 273 907 l 297 1010 l 652 1010 l 481 262 z "},"Љ":{"ha":1553,"x_min":-73,"x_max":1490,"o":"m 1346 358 q 1336 419 1346 391 q 1301 465 1325 446 q 1222 496 1267 490 q 1085 501 1176 501 l 907 501 l 817 110 l 1007 110 q 1148 119 1100 110 q 1240 155 1197 128 q 1320 239 1293 188 q 1346 358 1346 290 m 1490 380 q 1447 205 1490 283 q 1334 79 1404 127 q 1198 17 1267 34 q 1026 0 1129 0 l 655 0 l 863 895 l 503 895 q 465 743 485 823 q 431 609 445 663 q 370 398 400 488 q 313 253 340 309 q 259 154 286 194 q 207 88 232 114 q 106 17 157 35 q 1 -2 56 -2 q -40 -1 -15 -2 q -73 0 -64 0 l -43 127 l -34 127 q -13 126 -26 127 q 10 125 0 125 q 58 134 34 125 q 100 157 82 142 q 206 317 158 204 q 307 632 254 431 q 349 798 326 705 q 400 1010 372 891 l 1024 1010 l 932 611 l 1149 611 q 1314 598 1253 611 q 1426 541 1375 585 q 1474 471 1457 512 q 1490 380 1490 431 z "},"Њ":{"ha":1532,"x_min":47,"x_max":1469,"o":"m 1325 358 q 1315 419 1325 391 q 1280 465 1304 446 q 1201 496 1246 490 q 1064 501 1155 501 l 886 501 l 795 110 l 986 110 q 1127 119 1079 110 q 1219 155 1176 128 q 1299 239 1272 188 q 1325 358 1325 290 m 1469 380 q 1426 205 1469 283 q 1313 79 1383 127 q 1177 17 1246 34 q 1005 0 1108 0 l 634 0 l 749 501 l 298 501 l 183 0 l 47 0 l 280 1010 l 416 1010 l 324 611 l 774 611 l 867 1010 l 1002 1010 l 911 611 l 1128 611 q 1293 598 1232 611 q 1404 541 1354 585 q 1453 471 1436 512 q 1469 380 1469 431 z "},"Ћ":{"ha":1136,"x_min":118,"x_max":1041,"o":"m 338 0 l 203 0 l 410 895 l 118 895 l 144 1010 l 911 1010 l 884 895 l 545 895 l 471 574 q 625 612 541 595 q 779 629 709 629 q 971 576 901 629 q 1041 420 1041 524 q 1038 376 1041 404 q 1029 330 1034 348 l 953 0 l 817 0 l 878 262 q 891 328 886 297 q 897 387 897 358 q 856 483 897 454 q 728 512 814 512 q 583 498 650 512 q 446 463 515 484 l 338 0 z "},"Ќ":{"ha":962,"x_min":51,"x_max":1035,"o":"m 871 0 l 709 0 l 393 460 l 293 460 l 186 0 l 51 0 l 283 1010 l 419 1010 l 315 557 q 380 564 346 557 q 443 585 414 570 q 507 631 475 602 q 569 702 538 659 q 602 750 585 724 q 637 806 619 777 q 784 967 714 924 q 975 1010 854 1010 l 1035 1010 l 1008 893 l 947 893 q 876 881 906 893 q 819 845 845 869 q 773 787 795 821 q 732 722 751 752 q 625 587 673 629 q 515 517 577 545 l 871 0 m 910 1390 l 669 1136 l 564 1136 l 736 1390 l 910 1390 z "},"Ў":{"ha":854,"x_min":14,"x_max":998,"o":"m 998 1010 l 420 160 q 344 72 383 105 q 264 22 304 39 q 193 0 226 5 q 127 -5 159 -5 q 62 -2 100 -5 q 14 1 24 1 l 41 123 l 51 123 q 84 119 61 122 q 138 116 107 116 q 174 117 151 116 q 218 126 197 118 q 265 153 240 134 q 314 208 290 171 l 355 269 l 148 1010 l 290 1010 l 452 413 l 852 1010 l 998 1010 m 869 1312 q 767 1144 844 1202 q 571 1086 689 1086 q 410 1134 463 1086 q 357 1262 357 1181 q 359 1287 357 1276 q 362 1312 360 1298 l 483 1312 q 479 1288 481 1300 q 478 1265 478 1276 q 505 1190 478 1214 q 585 1166 532 1166 q 689 1200 649 1166 q 745 1312 728 1235 l 869 1312 z "},"Џ":{"ha":1044,"x_min":47,"x_max":1054,"o":"m 372 0 l 47 0 l 280 1010 l 416 1010 l 209 113 l 711 113 l 918 1010 l 1054 1010 l 821 0 l 500 0 l 446 -229 l 318 -229 l 372 0 z "},"А":{"ha":948,"x_min":-58,"x_max":855,"o":"m 855 0 l 719 0 l 685 284 l 250 284 l 84 0 l -58 0 l 543 1010 l 721 1010 l 855 0 m 670 394 l 607 892 l 314 394 l 670 394 z "},"Б":{"ha":952,"x_min":47,"x_max":956,"o":"m 745 358 q 735 419 745 391 q 701 465 724 446 q 621 496 667 490 q 484 501 575 501 l 299 501 l 209 110 l 406 110 q 548 119 499 110 q 639 155 596 128 q 719 239 692 188 q 745 358 745 290 m 889 380 q 846 205 889 283 q 733 79 803 127 q 597 17 667 34 q 425 0 528 0 l 47 0 l 280 1010 l 956 1010 l 930 895 l 390 895 l 324 611 l 549 611 q 713 598 652 611 q 825 541 774 585 q 873 471 857 512 q 889 380 889 431 z "},"В":{"ha":952,"x_min":47,"x_max":908,"o":"m 733 81 q 595 19 667 37 q 418 0 524 0 l 47 0 l 280 1010 l 570 1010 q 735 1002 681 1010 q 833 968 789 995 q 889 909 871 945 q 908 830 908 873 q 859 675 908 743 q 722 572 809 608 l 722 566 q 846 498 803 548 q 889 369 889 448 q 846 206 889 283 q 733 81 803 129 m 762 793 q 753 840 762 821 q 726 871 743 859 q 654 895 697 890 q 544 900 612 900 l 391 900 l 321 600 l 498 600 q 600 609 556 600 q 675 635 643 617 q 740 705 718 660 q 762 793 762 750 m 747 359 q 734 421 747 397 q 688 465 722 444 q 619 487 661 481 q 501 492 576 492 l 297 492 l 208 110 l 393 110 q 540 120 484 110 q 638 155 597 130 q 720 242 692 186 q 747 359 747 297 z "},"Г":{"ha":787,"x_min":47,"x_max":935,"o":"m 908 895 l 390 895 l 183 0 l 47 0 l 281 1010 l 935 1010 l 908 895 z "},"Д":{"ha":1036,"x_min":-134,"x_max":1025,"o":"m 839 -229 l 710 -229 l 764 3 l 48 3 l -5 -229 l -134 -229 l -55 115 l 24 115 q 254 495 146 260 q 427 1010 362 729 l 1025 1010 l 819 115 l 918 115 l 839 -229 m 684 115 l 864 898 l 528 898 q 368 448 463 655 q 165 115 273 240 l 684 115 z "},"Е":{"ha":878,"x_min":48,"x_max":946,"o":"m 946 1010 l 920 895 l 389 895 l 323 610 l 854 610 l 828 496 l 297 496 l 209 115 l 740 115 l 713 0 l 48 0 l 281 1010 l 946 1010 z "},"Ж":{"ha":1352,"x_min":-60,"x_max":1436,"o":"m 1249 0 l 1097 0 l 833 464 l 762 464 l 654 0 l 521 0 l 628 464 l 562 464 l 111 0 l -60 0 l 458 530 q 386 615 410 564 q 357 736 362 665 q 347 808 353 779 q 325 857 340 837 q 283 884 309 876 q 214 893 257 893 l 176 893 l 203 1010 l 249 1010 q 411 964 359 1010 q 476 806 463 918 q 482 754 478 787 q 490 702 486 722 q 539 596 503 631 q 648 554 576 561 l 753 1010 l 887 1010 l 781 553 q 898 592 847 559 q 998 703 949 625 q 1030 755 1013 726 q 1061 807 1048 784 q 1203 967 1130 925 q 1388 1010 1277 1010 l 1436 1010 l 1409 893 l 1369 893 q 1302 884 1329 893 q 1251 855 1276 876 q 1208 806 1228 836 q 1166 736 1189 777 q 1067 595 1116 644 q 954 518 1017 547 l 1249 0 z "},"З":{"ha":855,"x_min":-13,"x_max":848,"o":"m 779 354 q 733 195 779 266 q 618 72 688 123 q 472 3 553 25 q 300 -18 391 -18 q 115 1 197 -18 q -13 41 33 21 l 20 184 l 30 184 q 164 119 87 146 q 326 92 241 92 q 435 109 374 92 q 535 153 496 125 q 611 237 584 188 q 637 349 637 286 q 581 456 637 420 q 408 492 525 492 l 264 492 l 290 602 l 416 602 q 623 653 542 602 q 704 795 704 705 q 655 884 704 852 q 507 916 606 916 q 349 892 435 916 q 186 827 263 869 l 177 827 l 210 970 q 355 1010 266 992 q 526 1028 444 1028 q 762 977 677 1028 q 848 825 848 925 q 774 652 848 726 q 601 558 701 579 l 599 548 q 661 529 629 543 q 720 494 694 516 q 762 437 745 472 q 779 354 779 403 z "},"И":{"ha":1042,"x_min":47,"x_max":1053,"o":"m 820 0 l 686 0 l 870 798 l 184 0 l 47 0 l 280 1010 l 414 1010 l 232 224 l 910 1010 l 1053 1010 l 820 0 z "},"Й":{"ha":1042,"x_min":47,"x_max":1053,"o":"m 820 0 l 686 0 l 870 798 l 184 0 l 47 0 l 280 1010 l 414 1010 l 232 224 l 910 1010 l 1053 1010 l 820 0 m 965 1312 q 862 1144 940 1202 q 667 1086 785 1086 q 506 1134 558 1086 q 453 1262 453 1181 q 454 1287 453 1276 q 458 1312 456 1298 l 578 1312 q 575 1288 576 1300 q 574 1265 574 1276 q 601 1190 574 1214 q 681 1166 627 1166 q 784 1200 745 1166 q 840 1312 824 1235 l 965 1312 z "},"К":{"ha":962,"x_min":51,"x_max":1035,"o":"m 871 0 l 709 0 l 393 460 l 293 460 l 186 0 l 51 0 l 283 1010 l 419 1010 l 315 557 q 380 564 346 557 q 443 585 414 570 q 507 631 475 602 q 569 702 538 659 q 602 750 585 724 q 637 806 619 777 q 784 967 714 924 q 975 1010 854 1010 l 1035 1010 l 1008 893 l 947 893 q 876 881 906 893 q 819 845 845 869 q 773 787 795 821 q 732 722 751 752 q 625 587 673 629 q 515 517 577 545 l 871 0 z "}}}
